G04*
G04 #@! TF.GenerationSoftware,Altium Limited,Altium Designer,19.0.15 (446)*
G04*
G04 Layer_Color=16711935*
%FSLAX44Y44*%
%MOMM*%
G71*
G01*
G75*
%ADD65R,1.4032X1.2032*%
%ADD67R,1.2032X1.6032*%
%ADD68R,1.2032X1.3032*%
%ADD69R,1.3032X1.2032*%
%ADD70C,2.0000*%
%ADD72R,2.0532X3.6032*%
%ADD75R,1.0032X1.1032*%
%ADD80R,2.0032X1.3032*%
%ADD81O,0.8032X2.4032*%
%ADD84R,1.3032X3.0032*%
%ADD87O,0.6532X1.6032*%
%ADD88O,1.6032X0.6532*%
%ADD97R,6.8032X2.1532*%
%ADD98R,0.8032X1.3032*%
G04:AMPARAMS|DCode=99|XSize=0.6532mm|YSize=1.8032mm|CornerRadius=0.1511mm|HoleSize=0mm|Usage=FLASHONLY|Rotation=180.000|XOffset=0mm|YOffset=0mm|HoleType=Round|Shape=RoundedRectangle|*
%AMROUNDEDRECTD99*
21,1,0.6532,1.5010,0,0,180.0*
21,1,0.3510,1.8032,0,0,180.0*
1,1,0.3022,-0.1755,0.7505*
1,1,0.3022,0.1755,0.7505*
1,1,0.3022,0.1755,-0.7505*
1,1,0.3022,-0.1755,-0.7505*
%
%ADD99ROUNDEDRECTD99*%
%ADD104R,1.7032X1.7032*%
%ADD105C,1.7032*%
%ADD106C,1.7532*%
%ADD107R,1.7532X1.7532*%
%ADD108C,0.7032*%
%ADD109R,1.7032X1.7032*%
%ADD110C,2.0032*%
%ADD111C,2.2032*%
%ADD112C,1.9032*%
%ADD113C,1.5240*%
%ADD114C,6.2032*%
%ADD115O,1.4112X2.6192*%
%ADD116C,1.3032*%
%ADD117C,2.8032*%
%ADD118R,1.7532X1.7532*%
%ADD151R,1.6032X1.2032*%
%ADD152O,0.5032X1.0532*%
%ADD153O,1.8532X0.8532*%
%ADD154R,2.3532X2.4032*%
%ADD155R,1.0532X0.6032*%
%ADD156R,2.2032X2.3532*%
%ADD157R,1.4232X1.1132*%
%ADD158R,1.9032X1.1532*%
%ADD159R,0.8532X1.8032*%
%ADD160R,1.9532X4.7032*%
%ADD161O,0.9032X2.7032*%
D65*
X608250Y-574683D02*
D03*
Y-593683D02*
D03*
X565028Y-590683D02*
D03*
Y-571683D02*
D03*
X550500Y-436933D02*
D03*
Y-417933D02*
D03*
X636082Y-417683D02*
D03*
Y-436683D02*
D03*
D67*
X870320Y-557493D02*
D03*
X890320D02*
D03*
X1161000Y-582183D02*
D03*
X1181000D02*
D03*
X119540Y-190713D02*
D03*
X139540D02*
D03*
D68*
X311425Y-220295D02*
D03*
X328425D02*
D03*
X434955Y-220205D02*
D03*
X417955D02*
D03*
X315235Y-311735D02*
D03*
X332235D02*
D03*
X438765Y-311645D02*
D03*
X421765D02*
D03*
X1071285Y-353796D02*
D03*
X1088285D02*
D03*
X1105312Y-354731D02*
D03*
X1122312D02*
D03*
X111324Y-853433D02*
D03*
X94324D02*
D03*
X62356Y-853433D02*
D03*
X79356D02*
D03*
X41528Y-674933D02*
D03*
X58528D02*
D03*
X780660Y-615834D02*
D03*
X763660D02*
D03*
X762405Y-492900D02*
D03*
X779405D02*
D03*
X634650Y-655183D02*
D03*
X651650D02*
D03*
X652252Y-631218D02*
D03*
X635252D02*
D03*
X487499Y-833333D02*
D03*
X470499D02*
D03*
X1015761Y-660240D02*
D03*
X1032761D02*
D03*
X53450Y-287479D02*
D03*
X70450D02*
D03*
X646040Y-832063D02*
D03*
X629040D02*
D03*
X300250Y-809181D02*
D03*
X283250D02*
D03*
X524055Y-219795D02*
D03*
X541055D02*
D03*
X648055D02*
D03*
X631055D02*
D03*
X527865Y-311235D02*
D03*
X544865D02*
D03*
X651865D02*
D03*
X634865D02*
D03*
X80910Y-620413D02*
D03*
X63910D02*
D03*
X64871Y-549293D02*
D03*
X47871D02*
D03*
X47872Y-450233D02*
D03*
X64872D02*
D03*
X64555Y-399906D02*
D03*
X81555D02*
D03*
X97891Y-450234D02*
D03*
X80891D02*
D03*
X1122312Y-372407D02*
D03*
X1105312D02*
D03*
X331750Y-500183D02*
D03*
X314750D02*
D03*
X299890Y-762569D02*
D03*
X282890D02*
D03*
X634610Y-751865D02*
D03*
X617610D02*
D03*
X328035Y-205055D02*
D03*
X311035D02*
D03*
X417565Y-204965D02*
D03*
X434565D02*
D03*
X332235Y-89993D02*
D03*
X315235D02*
D03*
X421765Y-89903D02*
D03*
X438765D02*
D03*
X332235Y-328752D02*
D03*
X315235D02*
D03*
X421765Y-328662D02*
D03*
X438765D02*
D03*
X499561Y-761574D02*
D03*
X482561D02*
D03*
X541050Y-832063D02*
D03*
X558050D02*
D03*
X1105137Y-322587D02*
D03*
X1088137D02*
D03*
X1054313Y-338222D02*
D03*
X1071312D02*
D03*
X1105312Y-338221D02*
D03*
X1088312D02*
D03*
X423410Y-746972D02*
D03*
X406410D02*
D03*
X390500Y-747183D02*
D03*
X373500D02*
D03*
X300500Y-779933D02*
D03*
X283500D02*
D03*
X300500Y-824933D02*
D03*
X283500D02*
D03*
X1015761Y-676750D02*
D03*
X1032761D02*
D03*
X51680Y-189443D02*
D03*
X34680D02*
D03*
X86961D02*
D03*
X69961D02*
D03*
X119540Y-153335D02*
D03*
X136540D02*
D03*
X870830Y-816823D02*
D03*
X853830D02*
D03*
X1103123Y-437653D02*
D03*
X1120123D02*
D03*
X540665Y-204555D02*
D03*
X523665D02*
D03*
X630665D02*
D03*
X647665D02*
D03*
X544865Y-89493D02*
D03*
X527864D02*
D03*
X634864D02*
D03*
X651864D02*
D03*
X544864Y-327406D02*
D03*
X527864D02*
D03*
X634865Y-328252D02*
D03*
X651865D02*
D03*
X330250Y-674933D02*
D03*
X313250D02*
D03*
X569750Y-395433D02*
D03*
X552750D02*
D03*
X137250Y-169433D02*
D03*
X120250D02*
D03*
D69*
X293440Y-295343D02*
D03*
Y-278343D02*
D03*
X399970Y-278253D02*
D03*
Y-295253D02*
D03*
X368370Y-328735D02*
D03*
Y-311735D02*
D03*
X474900Y-311645D02*
D03*
Y-328645D02*
D03*
X1103123Y-420499D02*
D03*
Y-403499D02*
D03*
X1134737Y-420497D02*
D03*
Y-403497D02*
D03*
X29500Y-781683D02*
D03*
Y-798683D02*
D03*
X110250Y-749183D02*
D03*
Y-732183D02*
D03*
X26453Y-674933D02*
D03*
Y-657933D02*
D03*
X627001Y-573684D02*
D03*
Y-590684D02*
D03*
X582993Y-420253D02*
D03*
Y-437253D02*
D03*
X870626Y-363573D02*
D03*
Y-380573D02*
D03*
X952667Y-478363D02*
D03*
Y-461363D02*
D03*
X929640Y-696461D02*
D03*
Y-713461D02*
D03*
X825500Y-770595D02*
D03*
Y-787595D02*
D03*
X73649Y-692933D02*
D03*
Y-709933D02*
D03*
X506070Y-294843D02*
D03*
Y-277843D02*
D03*
X613070D02*
D03*
Y-294843D02*
D03*
X581000Y-328235D02*
D03*
Y-311235D02*
D03*
X688000D02*
D03*
Y-328235D02*
D03*
X81555Y-565118D02*
D03*
Y-548118D02*
D03*
X105390Y-492646D02*
D03*
Y-475646D02*
D03*
X567418Y-420433D02*
D03*
Y-437433D02*
D03*
X547370Y-573169D02*
D03*
Y-590169D02*
D03*
X653250Y-419683D02*
D03*
Y-436683D02*
D03*
X358750Y-415433D02*
D03*
Y-432433D02*
D03*
X344055Y-202905D02*
D03*
Y-219905D02*
D03*
X450085Y-219815D02*
D03*
Y-202815D02*
D03*
X350590Y-328735D02*
D03*
Y-311735D02*
D03*
X457120Y-311645D02*
D03*
Y-328645D02*
D03*
X857250Y-698245D02*
D03*
Y-715245D02*
D03*
X752720Y-768953D02*
D03*
Y-785953D02*
D03*
X1083407Y-420399D02*
D03*
Y-437399D02*
D03*
X1118697Y-403382D02*
D03*
Y-420382D02*
D03*
X1067832Y-420399D02*
D03*
Y-437399D02*
D03*
X1050917Y-437399D02*
D03*
Y-420399D02*
D03*
X1057267Y-387672D02*
D03*
Y-370672D02*
D03*
X1041692D02*
D03*
Y-387672D02*
D03*
X48026Y-834683D02*
D03*
Y-817683D02*
D03*
X30250Y-742683D02*
D03*
Y-725683D02*
D03*
X26500Y-691683D02*
D03*
Y-708683D02*
D03*
X63601Y-834683D02*
D03*
Y-817683D02*
D03*
X29500Y-834683D02*
D03*
Y-817683D02*
D03*
X58074Y-708933D02*
D03*
Y-691933D02*
D03*
X42500Y-691683D02*
D03*
Y-708683D02*
D03*
X106000Y-708933D02*
D03*
Y-691933D02*
D03*
X110750Y-800183D02*
D03*
Y-783183D02*
D03*
Y-817684D02*
D03*
Y-834684D02*
D03*
X89750Y-709433D02*
D03*
Y-692433D02*
D03*
X122000Y-709183D02*
D03*
Y-692183D02*
D03*
X79175Y-834683D02*
D03*
Y-817683D02*
D03*
X94750Y-817684D02*
D03*
Y-834684D02*
D03*
X619413Y-437683D02*
D03*
Y-420683D02*
D03*
X969940Y-384223D02*
D03*
Y-401223D02*
D03*
X1043311Y-701270D02*
D03*
Y-718270D02*
D03*
X111760Y-306512D02*
D03*
Y-289512D02*
D03*
X95385Y-306512D02*
D03*
Y-289512D02*
D03*
X859022Y-629076D02*
D03*
Y-646076D02*
D03*
X978830Y-637113D02*
D03*
Y-620113D02*
D03*
X979000Y-581933D02*
D03*
Y-598933D02*
D03*
X881040Y-611713D02*
D03*
Y-594713D02*
D03*
X881700Y-632580D02*
D03*
Y-649580D02*
D03*
X556685Y-202405D02*
D03*
Y-219405D02*
D03*
X663685D02*
D03*
Y-202405D02*
D03*
X563220Y-328235D02*
D03*
Y-311235D02*
D03*
X670220D02*
D03*
Y-328235D02*
D03*
X47872Y-588657D02*
D03*
Y-571657D02*
D03*
Y-603915D02*
D03*
Y-620915D02*
D03*
X63519Y-599703D02*
D03*
Y-582703D02*
D03*
X97368Y-600013D02*
D03*
Y-617013D02*
D03*
X80412Y-599703D02*
D03*
Y-582703D02*
D03*
X15750Y-578500D02*
D03*
Y-595500D02*
D03*
X97394Y-566193D02*
D03*
Y-583193D02*
D03*
X48045Y-434479D02*
D03*
Y-417479D02*
D03*
X47009Y-382906D02*
D03*
Y-399906D02*
D03*
X64555Y-434479D02*
D03*
Y-417479D02*
D03*
X97369Y-382906D02*
D03*
Y-399906D02*
D03*
X81065Y-434479D02*
D03*
Y-417479D02*
D03*
X16510Y-427486D02*
D03*
Y-444486D02*
D03*
X97393Y-417479D02*
D03*
Y-434479D02*
D03*
X381750Y-482433D02*
D03*
Y-499433D02*
D03*
X364000Y-482433D02*
D03*
Y-499433D02*
D03*
X942000Y-197901D02*
D03*
Y-180901D02*
D03*
X963186Y-197900D02*
D03*
Y-180900D02*
D03*
X134500Y-231933D02*
D03*
Y-248933D02*
D03*
D70*
X21844Y-162814D02*
D03*
X1054100Y-99568D02*
D03*
X1175380Y-896874D02*
D03*
D72*
X313760Y-119124D02*
D03*
Y-171623D02*
D03*
X420290Y-119033D02*
D03*
Y-171533D02*
D03*
X526390Y-118624D02*
D03*
Y-171123D02*
D03*
X633390Y-118624D02*
D03*
Y-171123D02*
D03*
D75*
X834990Y-645132D02*
D03*
X825490Y-665132D02*
D03*
X844490D02*
D03*
D80*
X26813Y-545183D02*
D03*
Y-515182D02*
D03*
X395192Y-205713D02*
D03*
Y-235714D02*
D03*
X292170Y-342483D02*
D03*
Y-312483D02*
D03*
X398700Y-342393D02*
D03*
Y-312393D02*
D03*
X501293Y-205303D02*
D03*
Y-235303D02*
D03*
X608293Y-205303D02*
D03*
Y-235303D02*
D03*
X504800Y-341983D02*
D03*
Y-311983D02*
D03*
X611800Y-341983D02*
D03*
Y-311983D02*
D03*
X28825Y-492003D02*
D03*
Y-462003D02*
D03*
X288663Y-205803D02*
D03*
Y-235804D02*
D03*
D81*
X632425Y-241515D02*
D03*
X645125D02*
D03*
X657825D02*
D03*
X670525D02*
D03*
X632425Y-289515D02*
D03*
X645125D02*
D03*
X657825D02*
D03*
X670525D02*
D03*
X312795Y-242015D02*
D03*
X325495D02*
D03*
X338195D02*
D03*
X350895D02*
D03*
X312795Y-290015D02*
D03*
X325495D02*
D03*
X338195D02*
D03*
X350895D02*
D03*
X457425Y-289925D02*
D03*
X444725D02*
D03*
X432025D02*
D03*
X419325D02*
D03*
X457425Y-241925D02*
D03*
X444725D02*
D03*
X432025D02*
D03*
X419325D02*
D03*
X563525Y-289515D02*
D03*
X550825D02*
D03*
X538125D02*
D03*
X525425D02*
D03*
X563525Y-241515D02*
D03*
X550825D02*
D03*
X538125D02*
D03*
X525425D02*
D03*
X50820Y-477313D02*
D03*
X63520D02*
D03*
X76220D02*
D03*
X88920D02*
D03*
X50820Y-525313D02*
D03*
X63520D02*
D03*
X76220D02*
D03*
X88920D02*
D03*
D84*
X1182000Y-556221D02*
D03*
X1152000D02*
D03*
D87*
X812690Y-828543D02*
D03*
X806190D02*
D03*
X799690D02*
D03*
X793190D02*
D03*
X786690D02*
D03*
X780190D02*
D03*
X773690D02*
D03*
X767190D02*
D03*
X812690Y-769543D02*
D03*
X806190D02*
D03*
X799690D02*
D03*
X793190D02*
D03*
X786690D02*
D03*
X780190D02*
D03*
X773690D02*
D03*
X767190D02*
D03*
X870000Y-697962D02*
D03*
X876500D02*
D03*
X882999D02*
D03*
X889500D02*
D03*
X896000D02*
D03*
X902500D02*
D03*
X908999D02*
D03*
X915500D02*
D03*
X870000Y-756962D02*
D03*
X876500D02*
D03*
X882999D02*
D03*
X889500D02*
D03*
X896000D02*
D03*
X902500D02*
D03*
X908999D02*
D03*
X915500D02*
D03*
D88*
X928320Y-486713D02*
D03*
Y-493213D02*
D03*
Y-499713D02*
D03*
Y-506213D02*
D03*
Y-512713D02*
D03*
Y-519213D02*
D03*
Y-525713D02*
D03*
Y-532213D02*
D03*
X869320Y-486713D02*
D03*
Y-493213D02*
D03*
Y-499713D02*
D03*
Y-506213D02*
D03*
Y-512713D02*
D03*
Y-519213D02*
D03*
Y-525713D02*
D03*
Y-532213D02*
D03*
X870488Y-468617D02*
D03*
Y-462117D02*
D03*
Y-455617D02*
D03*
Y-449117D02*
D03*
Y-442617D02*
D03*
Y-436117D02*
D03*
Y-429617D02*
D03*
Y-423117D02*
D03*
Y-416617D02*
D03*
Y-410117D02*
D03*
Y-403617D02*
D03*
Y-397117D02*
D03*
X929488Y-468617D02*
D03*
Y-462117D02*
D03*
Y-455617D02*
D03*
Y-449117D02*
D03*
Y-442617D02*
D03*
Y-436117D02*
D03*
Y-429617D02*
D03*
Y-423117D02*
D03*
Y-416617D02*
D03*
Y-410117D02*
D03*
Y-403617D02*
D03*
Y-397117D02*
D03*
X645450Y-773918D02*
D03*
Y-780418D02*
D03*
Y-786918D02*
D03*
Y-793418D02*
D03*
Y-799918D02*
D03*
Y-806419D02*
D03*
Y-812918D02*
D03*
Y-819418D02*
D03*
X586450Y-773918D02*
D03*
Y-780418D02*
D03*
Y-786918D02*
D03*
Y-793418D02*
D03*
Y-799918D02*
D03*
Y-806419D02*
D03*
Y-812918D02*
D03*
Y-819418D02*
D03*
X484160Y-773918D02*
D03*
Y-780418D02*
D03*
Y-786918D02*
D03*
Y-793419D02*
D03*
Y-799918D02*
D03*
Y-806418D02*
D03*
Y-812918D02*
D03*
Y-819418D02*
D03*
X425160Y-773918D02*
D03*
Y-780418D02*
D03*
Y-786918D02*
D03*
Y-793419D02*
D03*
Y-799918D02*
D03*
Y-806418D02*
D03*
Y-812918D02*
D03*
Y-819418D02*
D03*
D97*
X1091860Y-208534D02*
D03*
Y-277034D02*
D03*
X812989Y-168293D02*
D03*
Y-99793D02*
D03*
D98*
X950940Y-419343D02*
D03*
X960440D02*
D03*
X969940D02*
D03*
Y-443343D02*
D03*
X950940D02*
D03*
D99*
X50691Y-733242D02*
D03*
X57192D02*
D03*
X63692D02*
D03*
X70191D02*
D03*
X76691D02*
D03*
X83192D02*
D03*
X89692D02*
D03*
X50691Y-794241D02*
D03*
X57192D02*
D03*
X63692D02*
D03*
X70191D02*
D03*
X76691D02*
D03*
X83192D02*
D03*
X89692D02*
D03*
D104*
X765750Y-699933D02*
D03*
X546700Y-888230D02*
D03*
X1135700D02*
D03*
D105*
X740350Y-699933D02*
D03*
X714950D02*
D03*
X689550D02*
D03*
X664150D02*
D03*
X638750D02*
D03*
X613350D02*
D03*
X587950D02*
D03*
X562550D02*
D03*
X537150D02*
D03*
X511750D02*
D03*
X486350D02*
D03*
X460950D02*
D03*
X435550D02*
D03*
X410150D02*
D03*
X384750D02*
D03*
X359350D02*
D03*
X333950D02*
D03*
X308550D02*
D03*
X283150D02*
D03*
X765750Y-725333D02*
D03*
X740350D02*
D03*
X714950D02*
D03*
X689550D02*
D03*
X664150D02*
D03*
X638750D02*
D03*
X613350D02*
D03*
X587950D02*
D03*
X562550D02*
D03*
X537150D02*
D03*
X511750D02*
D03*
X486350D02*
D03*
X460950D02*
D03*
X435550D02*
D03*
X410150D02*
D03*
X384750D02*
D03*
X359350D02*
D03*
X333950D02*
D03*
X308550D02*
D03*
X283150D02*
D03*
X521300Y-888230D02*
D03*
X495900D02*
D03*
X470500D02*
D03*
X445100D02*
D03*
X419700D02*
D03*
X394300D02*
D03*
X368900D02*
D03*
X343500D02*
D03*
X318100D02*
D03*
X292700D02*
D03*
X267300D02*
D03*
X241900D02*
D03*
X216500D02*
D03*
X191100D02*
D03*
X165700D02*
D03*
X140300D02*
D03*
X114900D02*
D03*
X89500D02*
D03*
X64100D02*
D03*
X546700Y-913630D02*
D03*
X521300D02*
D03*
X495900D02*
D03*
X470500D02*
D03*
X445100D02*
D03*
X419700D02*
D03*
X394300D02*
D03*
X368900D02*
D03*
X343500D02*
D03*
X318100D02*
D03*
X292700D02*
D03*
X267300D02*
D03*
X241900D02*
D03*
X216500D02*
D03*
X191100D02*
D03*
X165700D02*
D03*
X140300D02*
D03*
X114900D02*
D03*
X89500D02*
D03*
X64100D02*
D03*
X1110300Y-888230D02*
D03*
X1084900D02*
D03*
X1059500D02*
D03*
X1034100D02*
D03*
X1008700D02*
D03*
X983300D02*
D03*
X957900D02*
D03*
X932500D02*
D03*
X907100D02*
D03*
X881700D02*
D03*
X856300D02*
D03*
X830900D02*
D03*
X805500D02*
D03*
X780100D02*
D03*
X754700D02*
D03*
X729300D02*
D03*
X703900D02*
D03*
X678500D02*
D03*
X653100D02*
D03*
X1135700Y-913630D02*
D03*
X1110300D02*
D03*
X1084900D02*
D03*
X1059500D02*
D03*
X1034100D02*
D03*
X1008700D02*
D03*
X983300D02*
D03*
X957900D02*
D03*
X932500D02*
D03*
X907100D02*
D03*
X881700D02*
D03*
X856300D02*
D03*
X830900D02*
D03*
X805500D02*
D03*
X780100D02*
D03*
X754700D02*
D03*
X729300D02*
D03*
X703900D02*
D03*
X678500D02*
D03*
X653100D02*
D03*
X1178000Y-837400D02*
D03*
X417650Y-630683D02*
D03*
X392250Y-633683D02*
D03*
X366850Y-630683D02*
D03*
X341450Y-633683D02*
D03*
X316050Y-630683D02*
D03*
D106*
X914130Y-17433D02*
D03*
Y-42833D02*
D03*
X939530D02*
D03*
Y-17433D02*
D03*
X888730D02*
D03*
Y-42833D02*
D03*
X837930D02*
D03*
X863330D02*
D03*
X837930Y-17433D02*
D03*
X863330D02*
D03*
X812530D02*
D03*
Y-42833D02*
D03*
X761730Y-17433D02*
D03*
X736330D02*
D03*
X710930D02*
D03*
X761730Y-42833D02*
D03*
X736330D02*
D03*
X787130D02*
D03*
Y-17433D02*
D03*
X964930Y-42833D02*
D03*
Y-17433D02*
D03*
X1015730D02*
D03*
Y-42833D02*
D03*
X990330D02*
D03*
Y-17433D02*
D03*
X397557Y-42833D02*
D03*
Y-17433D02*
D03*
X372157D02*
D03*
Y-42833D02*
D03*
X422957D02*
D03*
Y-17433D02*
D03*
X473757D02*
D03*
X448357D02*
D03*
X473757Y-42833D02*
D03*
X448357D02*
D03*
X499157D02*
D03*
Y-17433D02*
D03*
X549957Y-42833D02*
D03*
X575357D02*
D03*
X600757D02*
D03*
X549957Y-17433D02*
D03*
X575357D02*
D03*
X524557D02*
D03*
Y-42833D02*
D03*
X346757Y-17433D02*
D03*
Y-42833D02*
D03*
X295957D02*
D03*
Y-17433D02*
D03*
X321357D02*
D03*
Y-42833D02*
D03*
X828258Y-598524D02*
D03*
Y-573124D02*
D03*
X802858Y-623924D02*
D03*
Y-598524D02*
D03*
Y-573124D02*
D03*
X827700Y-467213D02*
D03*
Y-441813D02*
D03*
X802300Y-492613D02*
D03*
Y-467213D02*
D03*
Y-441813D02*
D03*
X222299Y-540326D02*
D03*
Y-565726D02*
D03*
X247700Y-514926D02*
D03*
Y-540326D02*
D03*
Y-565726D02*
D03*
X247700Y-404492D02*
D03*
Y-379092D02*
D03*
X222300Y-429892D02*
D03*
Y-404492D02*
D03*
Y-379092D02*
D03*
X827550Y-344933D02*
D03*
Y-319533D02*
D03*
X802150Y-370333D02*
D03*
Y-344933D02*
D03*
Y-319533D02*
D03*
D107*
X710930Y-42833D02*
D03*
X600757Y-17433D02*
D03*
D108*
X1202000Y-832738D02*
D03*
Y-846738D02*
D03*
Y-839738D02*
D03*
Y-860738D02*
D03*
Y-867738D02*
D03*
Y-853738D02*
D03*
Y-895738D02*
D03*
Y-909737D02*
D03*
Y-902738D02*
D03*
Y-881738D02*
D03*
Y-888738D02*
D03*
Y-874738D02*
D03*
Y-923730D02*
D03*
Y-930730D02*
D03*
Y-916730D02*
D03*
Y-5027D02*
D03*
Y-19027D02*
D03*
Y-12027D02*
D03*
Y-33027D02*
D03*
Y-40027D02*
D03*
Y-26027D02*
D03*
Y-68027D02*
D03*
Y-82027D02*
D03*
Y-75027D02*
D03*
Y-54027D02*
D03*
Y-61027D02*
D03*
Y-47027D02*
D03*
Y-96020D02*
D03*
Y-103020D02*
D03*
Y-89020D02*
D03*
X-2000Y-4310D02*
D03*
Y-18310D02*
D03*
Y-11310D02*
D03*
Y-32310D02*
D03*
Y-39310D02*
D03*
Y-25310D02*
D03*
Y-67310D02*
D03*
Y-81310D02*
D03*
Y-74310D02*
D03*
Y-53310D02*
D03*
Y-60310D02*
D03*
Y-46310D02*
D03*
Y-95303D02*
D03*
Y-102303D02*
D03*
Y-88303D02*
D03*
Y-916303D02*
D03*
Y-930303D02*
D03*
Y-923303D02*
D03*
Y-874310D02*
D03*
Y-888310D02*
D03*
Y-881310D02*
D03*
Y-902310D02*
D03*
Y-909310D02*
D03*
Y-895310D02*
D03*
Y-853310D02*
D03*
Y-867310D02*
D03*
Y-860310D02*
D03*
Y-839310D02*
D03*
Y-846310D02*
D03*
Y-832310D02*
D03*
D109*
X1178000Y-812000D02*
D03*
X290650Y-633683D02*
D03*
D110*
X1065984Y-524406D02*
D03*
X1034994Y-524473D02*
D03*
X1172000Y-762183D02*
D03*
X977000Y-724183D02*
D03*
X1024571Y-821433D02*
D03*
X1065984Y-553683D02*
D03*
X1095500Y-524406D02*
D03*
X715940Y-377154D02*
D03*
X448000Y-583269D02*
D03*
X1095500Y-553683D02*
D03*
D111*
X115538Y-14392D02*
D03*
X15538D02*
D03*
D112*
X105538Y-114392D02*
D03*
X85538D02*
D03*
X65538D02*
D03*
X45538D02*
D03*
X25538D02*
D03*
D113*
X1181250Y-724112D02*
D03*
X657579Y-21500D02*
D03*
X18750Y-757433D02*
D03*
X600500Y-905000D02*
D03*
D114*
X-40000Y-53750D02*
D03*
X1240000Y-53731D02*
D03*
X-40000Y-881183D02*
D03*
X1240000Y-881146D02*
D03*
X815000Y-222433D02*
D03*
X235000D02*
D03*
X815000Y-712433D02*
D03*
X235000D02*
D03*
D115*
X232790Y-21433D02*
D03*
X157790D02*
D03*
D116*
X195290Y-22433D02*
D03*
Y-82433D02*
D03*
D117*
X1130500Y-21433D02*
D03*
X1182500Y-99433D02*
D03*
X1155500Y-85433D02*
D03*
X1090500Y-131433D02*
D03*
X1085500Y-55433D02*
D03*
D118*
X828258Y-623924D02*
D03*
X827700Y-492613D02*
D03*
X222299Y-514926D02*
D03*
X247700Y-429892D02*
D03*
X827550Y-370333D02*
D03*
D151*
X915500Y-577823D02*
D03*
Y-557823D02*
D03*
X1092841Y-657540D02*
D03*
Y-637540D02*
D03*
D152*
X1088407Y-401731D02*
D03*
X1083407D02*
D03*
X1078407D02*
D03*
X1073407D02*
D03*
X1088407Y-371231D02*
D03*
X1083407D02*
D03*
X1078407D02*
D03*
X1073407D02*
D03*
D153*
X900326Y-676593D02*
D03*
Y-663893D02*
D03*
Y-651193D02*
D03*
Y-638493D02*
D03*
Y-625793D02*
D03*
Y-613093D02*
D03*
Y-600393D02*
D03*
X956826Y-676593D02*
D03*
Y-663893D02*
D03*
Y-651193D02*
D03*
Y-638493D02*
D03*
Y-625793D02*
D03*
Y-613093D02*
D03*
Y-600393D02*
D03*
D154*
X1131665Y-801173D02*
D03*
Y-845173D02*
D03*
D155*
X671500Y-744933D02*
D03*
Y-751433D02*
D03*
Y-757933D02*
D03*
X650500D02*
D03*
Y-751433D02*
D03*
Y-744933D02*
D03*
D156*
X258850Y-761825D02*
D03*
X233450D02*
D03*
X208050D02*
D03*
X182650D02*
D03*
Y-853825D02*
D03*
X208050D02*
D03*
X233450D02*
D03*
X258850D02*
D03*
D157*
X1116971Y-762949D02*
D03*
Y-730249D02*
D03*
D158*
X1069219Y-700595D02*
D03*
Y-728595D02*
D03*
D159*
X1075011Y-676619D02*
D03*
X1065511D02*
D03*
X1056011D02*
D03*
Y-651620D02*
D03*
X1075011D02*
D03*
D160*
X1151700Y-684683D02*
D03*
X1118300D02*
D03*
D161*
X108550Y-263473D02*
D03*
X95850D02*
D03*
X83150D02*
D03*
X70450D02*
D03*
X108550Y-214473D02*
D03*
X95850D02*
D03*
X83150D02*
D03*
X70450D02*
D03*
M02*
