G04 This is an RS-274x file exported by *
G04 gerbv version 2.6A *
G04 More information is available about gerbv at *
G04 http://gerbv.geda-project.org/ *
G04 --End of header info--*
%MOIN*%
%FSLAX34Y34*%
%IPPOS*%
G04 --Define apertures--*
%ADD10R,0.0472X0.0394*%
%ADD11R,0.0394X0.0551*%
%ADD12R,0.0394X0.0433*%
%ADD13R,0.0433X0.0394*%
%ADD14R,0.0728X0.1339*%
%ADD15R,0.0315X0.0354*%
%ADD16R,0.0709X0.0433*%
%ADD17O,0.0236X0.0866*%
%ADD18R,0.0433X0.1102*%
%ADD19O,0.0177X0.0551*%
%ADD20O,0.0551X0.0177*%
%ADD21R,0.2598X0.0768*%
%ADD22R,0.0236X0.0433*%
%AMMACRO23*
21,1,0.017717,0.059094,0.000000,0.000000,180.000000*
21,1,0.013819,0.062992,0.000000,0.000000,180.000000*
1,1,0.003898,-0.006909,0.029547*
1,1,0.003898,0.006909,0.029547*
1,1,0.003898,0.006909,-0.029547*
1,1,0.003898,-0.006909,-0.029547*
%
%ADD23MACRO23*%
%ADD24R,0.0551X0.0394*%
%ADD25O,0.0118X0.0335*%
%ADD26O,0.0650X0.0256*%
%ADD27R,0.0846X0.0866*%
%ADD28R,0.0335X0.0157*%
%ADD29R,0.0787X0.0846*%
%ADD30R,0.0480X0.0358*%
%ADD31R,0.0669X0.0374*%
%ADD32R,0.0256X0.0630*%
%ADD33R,0.0689X0.1772*%
%ADD34O,0.0276X0.0984*%
G04 --Start main section--*
G54D10*
G01X0023947Y-022625D03*
G01X0023947Y-023373D03*
G01X0022245Y-023255D03*
G01X0022245Y-022507D03*
G01X0021673Y-017202D03*
G01X0021673Y-016454D03*
G01X0025043Y-016444D03*
G01X0025043Y-017192D03*
G54D11*
G01X0034265Y-021949D03*
G01X0035052Y-021949D03*
G01X0045709Y-022921D03*
G01X0046496Y-022921D03*
G01X0004706Y-007508D03*
G01X0005494Y-007508D03*
G54D12*
G01X0012261Y-008673D03*
G01X0012930Y-008673D03*
G01X0017124Y-008669D03*
G01X0016455Y-008669D03*
G01X0012411Y-012273D03*
G01X0013080Y-012273D03*
G01X0017274Y-012269D03*
G01X0016605Y-012269D03*
G01X0042177Y-013929D03*
G01X0042846Y-013929D03*
G01X0043516Y-013966D03*
G01X0044186Y-013966D03*
G01X0004383Y-033600D03*
G01X0003714Y-033600D03*
G01X0002455Y-033600D03*
G01X0003124Y-033600D03*
G01X0001635Y-026572D03*
G01X0002304Y-026572D03*
G01X0030735Y-024245D03*
G01X0030065Y-024245D03*
G01X0030016Y-019406D03*
G01X0030685Y-019406D03*
G01X0024986Y-025795D03*
G01X0025656Y-025795D03*
G01X0025679Y-024851D03*
G01X0025010Y-024851D03*
G01X0019193Y-032808D03*
G01X0018524Y-032808D03*
G01X0039991Y-025994D03*
G01X0040660Y-025994D03*
G01X0002104Y-011318D03*
G01X0002774Y-011318D03*
G01X0025435Y-032758D03*
G01X0024765Y-032758D03*
G01X0011821Y-031858D03*
G01X0011152Y-031858D03*
G01X0020632Y-008653D03*
G01X0021301Y-008653D03*
G01X0025514Y-008653D03*
G01X0024845Y-008653D03*
G01X0020782Y-012253D03*
G01X0021451Y-012253D03*
G01X0025664Y-012253D03*
G01X0024995Y-012253D03*
G01X0003185Y-024426D03*
G01X0002516Y-024426D03*
G01X0002554Y-021626D03*
G01X0001885Y-021626D03*
G01X0001885Y-017726D03*
G01X0002554Y-017726D03*
G01X0002542Y-015744D03*
G01X0003211Y-015744D03*
G01X0003854Y-017726D03*
G01X0003185Y-017726D03*
G01X0044186Y-014662D03*
G01X0043516Y-014662D03*
G01X0013061Y-019692D03*
G01X0012392Y-019692D03*
G01X0011807Y-030022D03*
G01X0011137Y-030022D03*
G01X0024985Y-029601D03*
G01X0024315Y-029601D03*
G01X0012915Y-008073D03*
G01X0012245Y-008073D03*
G01X0016440Y-008069D03*
G01X0017109Y-008069D03*
G01X0013080Y-003543D03*
G01X0012411Y-003543D03*
G01X0016605Y-003539D03*
G01X0017274Y-003539D03*
G01X0013080Y-012943D03*
G01X0012411Y-012943D03*
G01X0016605Y-012939D03*
G01X0017274Y-012939D03*
G01X0019668Y-029983D03*
G01X0018998Y-029983D03*
G01X0021301Y-032758D03*
G01X0021970Y-032758D03*
G01X0043509Y-012700D03*
G01X0042840Y-012700D03*
G01X0041508Y-013316D03*
G01X0042178Y-013316D03*
G01X0043516Y-013316D03*
G01X0042847Y-013316D03*
G01X0016670Y-029408D03*
G01X0016000Y-029408D03*
G01X0015374Y-029417D03*
G01X0014705Y-029417D03*
G01X0011831Y-030706D03*
G01X0011161Y-030706D03*
G01X0011831Y-032478D03*
G01X0011161Y-032478D03*
G01X0039991Y-026644D03*
G01X0040660Y-026644D03*
G01X0002035Y-007458D03*
G01X0001365Y-007458D03*
G01X0003424Y-007458D03*
G01X0002754Y-007458D03*
G01X0004706Y-006037D03*
G01X0005376Y-006037D03*
G01X0034285Y-032158D03*
G01X0033615Y-032158D03*
G01X0043430Y-017230D03*
G01X0044099Y-017230D03*
G01X0021286Y-008053D03*
G01X0020617Y-008053D03*
G01X0024829Y-008053D03*
G01X0025499Y-008053D03*
G01X0021451Y-003523D03*
G01X0020782Y-003523D03*
G01X0024995Y-003523D03*
G01X0025664Y-003523D03*
G01X0021451Y-012890D03*
G01X0020782Y-012890D03*
G01X0024995Y-012923D03*
G01X0025664Y-012923D03*
G01X0013002Y-026572D03*
G01X0012333Y-026572D03*
G01X0022431Y-015568D03*
G01X0021762Y-015568D03*
G01X0005404Y-006671D03*
G01X0004734Y-006671D03*
G54D13*
G01X0011553Y-011628D03*
G01X0011553Y-010958D03*
G01X0015747Y-010955D03*
G01X0015747Y-011624D03*
G01X0014503Y-012942D03*
G01X0014503Y-012273D03*
G01X0018697Y-012269D03*
G01X0018697Y-012939D03*
G01X0043430Y-016555D03*
G01X0043430Y-015886D03*
G01X0044675Y-016555D03*
G01X0044675Y-015886D03*
G01X0001161Y-030775D03*
G01X0001161Y-031444D03*
G01X0004341Y-029495D03*
G01X0004341Y-028826D03*
G01X0001041Y-026572D03*
G01X0001041Y-025903D03*
G01X0024685Y-022586D03*
G01X0024685Y-023255D03*
G01X0022952Y-016545D03*
G01X0022952Y-017215D03*
G01X0034277Y-014314D03*
G01X0034277Y-014983D03*
G01X0037507Y-018833D03*
G01X0037507Y-018164D03*
G01X0036600Y-027420D03*
G01X0036600Y-028089D03*
G01X0032500Y-030338D03*
G01X0032500Y-031008D03*
G01X0002900Y-027281D03*
G01X0002900Y-027950D03*
G01X0019924Y-011608D03*
G01X0019924Y-010939D03*
G01X0024137Y-010939D03*
G01X0024137Y-011608D03*
G01X0022874Y-012923D03*
G01X0022874Y-012253D03*
G01X0027087Y-012253D03*
G01X0027087Y-012923D03*
G01X0003211Y-022249D03*
G01X0003211Y-021579D03*
G01X0004149Y-019396D03*
G01X0004149Y-018726D03*
G01X0022339Y-016552D03*
G01X0022339Y-017222D03*
G01X0021550Y-022566D03*
G01X0021550Y-023235D03*
G01X0025719Y-016523D03*
G01X0025719Y-017192D03*
G01X0014124Y-016356D03*
G01X0014124Y-017025D03*
G01X0013545Y-007988D03*
G01X0013545Y-008658D03*
G01X0017720Y-008654D03*
G01X0017720Y-007985D03*
G01X0013803Y-012942D03*
G01X0013803Y-012273D03*
G01X0017997Y-012269D03*
G01X0017997Y-012939D03*
G01X0033750Y-027490D03*
G01X0033750Y-028159D03*
G01X0029635Y-030274D03*
G01X0029635Y-030943D03*
G01X0042654Y-016551D03*
G01X0042654Y-017220D03*
G01X0044043Y-015881D03*
G01X0044043Y-016550D03*
G01X0042041Y-016551D03*
G01X0042041Y-017220D03*
G01X0041375Y-017220D03*
G01X0041375Y-016551D03*
G01X0041625Y-015263D03*
G01X0041625Y-014593D03*
G01X0041011Y-014593D03*
G01X0041011Y-015263D03*
G01X0001891Y-032862D03*
G01X0001891Y-032192D03*
G01X0001191Y-029239D03*
G01X0001191Y-028570D03*
G01X0001043Y-027232D03*
G01X0001043Y-027901D03*
G01X0002504Y-032862D03*
G01X0002504Y-032192D03*
G01X0001161Y-032862D03*
G01X0001161Y-032192D03*
G01X0002286Y-027911D03*
G01X0002286Y-027241D03*
G01X0001673Y-027232D03*
G01X0001673Y-027901D03*
G01X0004173Y-027911D03*
G01X0004173Y-027241D03*
G01X0004360Y-031503D03*
G01X0004360Y-030834D03*
G01X0004360Y-032192D03*
G01X0004360Y-032862D03*
G01X0003533Y-027930D03*
G01X0003533Y-027261D03*
G01X0004803Y-027921D03*
G01X0004803Y-027251D03*
G01X0003117Y-032862D03*
G01X0003117Y-032192D03*
G01X0003730Y-032192D03*
G01X0003730Y-032862D03*
G01X0024386Y-017232D03*
G01X0024386Y-016562D03*
G01X0038187Y-015127D03*
G01X0038187Y-015796D03*
G01X0041075Y-027609D03*
G01X0041075Y-028278D03*
G01X0004400Y-012067D03*
G01X0004400Y-011398D03*
G01X0003755Y-012067D03*
G01X0003755Y-011398D03*
G01X0033820Y-024767D03*
G01X0033820Y-025436D03*
G01X0038537Y-025083D03*
G01X0038537Y-024414D03*
G01X0038543Y-022911D03*
G01X0038543Y-023580D03*
G01X0034687Y-024083D03*
G01X0034687Y-023414D03*
G01X0034713Y-024905D03*
G01X0034713Y-025574D03*
G01X0021917Y-007969D03*
G01X0021917Y-008638D03*
G01X0026129Y-008638D03*
G01X0026129Y-007969D03*
G01X0022174Y-012923D03*
G01X0022174Y-012253D03*
G01X0026387Y-012253D03*
G01X0026387Y-012923D03*
G01X0001885Y-023175D03*
G01X0001885Y-022506D03*
G01X0001885Y-023776D03*
G01X0001885Y-024445D03*
G01X0002501Y-023610D03*
G01X0002501Y-022941D03*
G01X0003833Y-023623D03*
G01X0003833Y-024292D03*
G01X0003166Y-023610D03*
G01X0003166Y-022941D03*
G01X0000620Y-022776D03*
G01X0000620Y-023445D03*
G01X0003834Y-022291D03*
G01X0003834Y-022960D03*
G01X0001892Y-017105D03*
G01X0001892Y-016436D03*
G01X0001851Y-015075D03*
G01X0001851Y-015744D03*
G01X0002542Y-017105D03*
G01X0002542Y-016436D03*
G01X0003833Y-015075D03*
G01X0003833Y-015744D03*
G01X0003192Y-017105D03*
G01X0003192Y-016436D03*
G01X0000650Y-016830D03*
G01X0000650Y-017499D03*
G01X0003834Y-016436D03*
G01X0003834Y-017105D03*
G01X0015030Y-018993D03*
G01X0015030Y-019663D03*
G01X0014331Y-018993D03*
G01X0014331Y-019663D03*
G01X0037087Y-007791D03*
G01X0037087Y-007122D03*
G01X0037921Y-007791D03*
G01X0037921Y-007122D03*
G01X0005295Y-009131D03*
G01X0005295Y-009801D03*
G54D14*
G01X0012353Y-004690D03*
G01X0012353Y-006757D03*
G01X0016547Y-004686D03*
G01X0016547Y-006753D03*
G01X0020724Y-004670D03*
G01X0020724Y-006737D03*
G01X0024937Y-004670D03*
G01X0024937Y-006737D03*
G54D15*
G01X0032874Y-025399D03*
G01X0032500Y-026186D03*
G01X0033248Y-026186D03*
G54D16*
G01X0001056Y-021464D03*
G01X0001056Y-020283D03*
G01X0015559Y-008099D03*
G01X0015559Y-009280D03*
G01X0011503Y-013484D03*
G01X0011503Y-012302D03*
G01X0015697Y-013480D03*
G01X0015697Y-012299D03*
G01X0019736Y-008083D03*
G01X0019736Y-009264D03*
G01X0023949Y-008083D03*
G01X0023949Y-009264D03*
G01X0019874Y-013464D03*
G01X0019874Y-012283D03*
G01X0024087Y-013464D03*
G01X0024087Y-012283D03*
G01X0001135Y-019370D03*
G01X0001135Y-018189D03*
G01X0011365Y-008102D03*
G01X0011365Y-009284D03*
G54D17*
G01X0024899Y-009508D03*
G01X0025399Y-009508D03*
G01X0025899Y-009508D03*
G01X0026399Y-009508D03*
G01X0024899Y-011398D03*
G01X0025399Y-011398D03*
G01X0025899Y-011398D03*
G01X0026399Y-011398D03*
G01X0012315Y-009528D03*
G01X0012815Y-009528D03*
G01X0013315Y-009528D03*
G01X0013815Y-009528D03*
G01X0012315Y-011418D03*
G01X0012815Y-011418D03*
G01X0013315Y-011418D03*
G01X0013815Y-011418D03*
G01X0018009Y-011414D03*
G01X0017509Y-011414D03*
G01X0017009Y-011414D03*
G01X0016509Y-011414D03*
G01X0018009Y-009525D03*
G01X0017509Y-009525D03*
G01X0017009Y-009525D03*
G01X0016509Y-009525D03*
G01X0022186Y-011398D03*
G01X0021686Y-011398D03*
G01X0021186Y-011398D03*
G01X0020686Y-011398D03*
G01X0022186Y-009508D03*
G01X0021686Y-009508D03*
G01X0021186Y-009508D03*
G01X0020686Y-009508D03*
G01X0002001Y-018792D03*
G01X0002501Y-018792D03*
G01X0003001Y-018792D03*
G01X0003501Y-018792D03*
G01X0002001Y-020682D03*
G01X0002501Y-020682D03*
G01X0003001Y-020682D03*
G01X0003501Y-020682D03*
G54D18*
G01X0046535Y-021898D03*
G01X0045354Y-021898D03*
G54D19*
G01X0031996Y-032620D03*
G01X0031740Y-032620D03*
G01X0031484Y-032620D03*
G01X0031228Y-032620D03*
G01X0030972Y-032620D03*
G01X0030716Y-032620D03*
G01X0030460Y-032620D03*
G01X0030204Y-032620D03*
G01X0031996Y-030297D03*
G01X0031740Y-030297D03*
G01X0031484Y-030297D03*
G01X0031228Y-030297D03*
G01X0030972Y-030297D03*
G01X0030716Y-030297D03*
G01X0030460Y-030297D03*
G01X0030204Y-030297D03*
G01X0034252Y-027479D03*
G01X0034508Y-027479D03*
G01X0034764Y-027479D03*
G01X0035020Y-027479D03*
G01X0035276Y-027479D03*
G01X0035531Y-027479D03*
G01X0035787Y-027479D03*
G01X0036043Y-027479D03*
G01X0034252Y-029802D03*
G01X0034508Y-029802D03*
G01X0034764Y-029802D03*
G01X0035020Y-029802D03*
G01X0035276Y-029802D03*
G01X0035531Y-029802D03*
G01X0035787Y-029802D03*
G01X0036043Y-029802D03*
G54D20*
G01X0036548Y-019162D03*
G01X0036548Y-019418D03*
G01X0036548Y-019674D03*
G01X0036548Y-019930D03*
G01X0036548Y-020186D03*
G01X0036548Y-020441D03*
G01X0036548Y-020697D03*
G01X0036548Y-020953D03*
G01X0034225Y-019162D03*
G01X0034225Y-019418D03*
G01X0034225Y-019674D03*
G01X0034225Y-019930D03*
G01X0034225Y-020186D03*
G01X0034225Y-020441D03*
G01X0034225Y-020697D03*
G01X0034225Y-020953D03*
G01X0034271Y-018449D03*
G01X0034271Y-018194D03*
G01X0034271Y-017938D03*
G01X0034271Y-017682D03*
G01X0034271Y-017426D03*
G01X0034271Y-017170D03*
G01X0034271Y-016914D03*
G01X0034271Y-016658D03*
G01X0034271Y-016402D03*
G01X0034271Y-016146D03*
G01X0034271Y-015890D03*
G01X0034271Y-015635D03*
G01X0036594Y-018449D03*
G01X0036594Y-018194D03*
G01X0036594Y-017938D03*
G01X0036594Y-017682D03*
G01X0036594Y-017426D03*
G01X0036594Y-017170D03*
G01X0036594Y-016914D03*
G01X0036594Y-016658D03*
G01X0036594Y-016402D03*
G01X0036594Y-016146D03*
G01X0036594Y-015890D03*
G01X0036594Y-015635D03*
G01X0025411Y-030469D03*
G01X0025411Y-030725D03*
G01X0025411Y-030981D03*
G01X0025411Y-031237D03*
G01X0025411Y-031493D03*
G01X0025411Y-031749D03*
G01X0025411Y-032005D03*
G01X0025411Y-032261D03*
G01X0023089Y-030469D03*
G01X0023089Y-030725D03*
G01X0023089Y-030981D03*
G01X0023089Y-031237D03*
G01X0023089Y-031493D03*
G01X0023089Y-031749D03*
G01X0023089Y-032005D03*
G01X0023089Y-032261D03*
G01X0019061Y-030469D03*
G01X0019061Y-030725D03*
G01X0019061Y-030981D03*
G01X0019061Y-031237D03*
G01X0019061Y-031493D03*
G01X0019061Y-031749D03*
G01X0019061Y-032005D03*
G01X0019061Y-032261D03*
G01X0016739Y-030469D03*
G01X0016739Y-030725D03*
G01X0016739Y-030981D03*
G01X0016739Y-031237D03*
G01X0016739Y-031493D03*
G01X0016739Y-031749D03*
G01X0016739Y-032005D03*
G01X0016739Y-032261D03*
G54D21*
G01X0042987Y-008210D03*
G01X0042987Y-010907D03*
G01X0032007Y-006626D03*
G01X0032007Y-003929D03*
G54D22*
G01X0037439Y-016510D03*
G01X0037813Y-016510D03*
G01X0038187Y-016510D03*
G01X0038187Y-017454D03*
G01X0037439Y-017454D03*
G54D23*
G01X0001996Y-028868D03*
G01X0002252Y-028868D03*
G01X0002508Y-028868D03*
G01X0002763Y-028868D03*
G01X0003019Y-028868D03*
G01X0003275Y-028868D03*
G01X0003531Y-028868D03*
G01X0001996Y-031269D03*
G01X0002252Y-031269D03*
G01X0002508Y-031269D03*
G01X0002763Y-031269D03*
G01X0003019Y-031269D03*
G01X0003275Y-031269D03*
G01X0003531Y-031269D03*
G54D24*
G01X0036043Y-022749D03*
G01X0036043Y-021962D03*
G01X0043025Y-025887D03*
G01X0043025Y-025100D03*
G54D25*
G01X0042851Y-015816D03*
G01X0042654Y-015816D03*
G01X0042457Y-015816D03*
G01X0042260Y-015816D03*
G01X0042851Y-014615D03*
G01X0042654Y-014615D03*
G01X0042457Y-014615D03*
G01X0042260Y-014615D03*
G54D26*
G01X0035446Y-026638D03*
G01X0035446Y-026138D03*
G01X0035446Y-025638D03*
G01X0035446Y-025138D03*
G01X0035446Y-024638D03*
G01X0035446Y-024138D03*
G01X0035446Y-023638D03*
G01X0037670Y-026638D03*
G01X0037670Y-026138D03*
G01X0037670Y-025638D03*
G01X0037670Y-025138D03*
G01X0037670Y-024638D03*
G01X0037670Y-024138D03*
G01X0037670Y-023638D03*
G54D27*
G01X0044554Y-031542D03*
G01X0044554Y-033275D03*
G54D28*
G01X0026437Y-029328D03*
G01X0026437Y-029584D03*
G01X0026437Y-029840D03*
G01X0025610Y-029840D03*
G01X0025610Y-029584D03*
G01X0025610Y-029328D03*
G54D29*
G01X0010191Y-029993D03*
G01X0009191Y-029993D03*
G01X0008191Y-029993D03*
G01X0007191Y-029993D03*
G01X0007191Y-033615D03*
G01X0008191Y-033615D03*
G01X0009191Y-033615D03*
G01X0010191Y-033615D03*
G54D30*
G01X0043975Y-030037D03*
G01X0043975Y-028750D03*
G54D31*
G01X0042095Y-027582D03*
G01X0042095Y-028685D03*
G54D32*
G01X0042323Y-026639D03*
G01X0041949Y-026639D03*
G01X0041575Y-026639D03*
G01X0041575Y-025654D03*
G01X0042323Y-025654D03*
G54D33*
G01X0045343Y-026956D03*
G01X0044028Y-026956D03*
G54D34*
G01X0004274Y-010373D03*
G01X0003774Y-010373D03*
G01X0003274Y-010373D03*
G01X0002774Y-010373D03*
G01X0004274Y-008444D03*
G01X0003774Y-008444D03*
G01X0003274Y-008444D03*
G01X0002774Y-008444D03*
M02*
