G04*
G04 #@! TF.GenerationSoftware,Altium Limited,Altium Designer,19.0.15 (446)*
G04*
G04 Layer_Color=128*
%FSLAX44Y44*%
%MOMM*%
G71*
G01*
G75*
%ADD165C,0.0508*%
D165*
X760750Y-699933D02*
X770750D01*
X765750Y-704933D02*
Y-694933D01*
X735350Y-699933D02*
X745350D01*
X740350Y-704933D02*
Y-694933D01*
X709950Y-699933D02*
X719950D01*
X714950Y-704933D02*
Y-694933D01*
X684550Y-699933D02*
X694550D01*
X689550Y-704933D02*
Y-694933D01*
X659150Y-699933D02*
X669150D01*
X664150Y-704933D02*
Y-694933D01*
X633750Y-699933D02*
X643750D01*
X638750Y-704933D02*
Y-694933D01*
X608350Y-699933D02*
X618350D01*
X613350Y-704933D02*
Y-694933D01*
X582950Y-699933D02*
X592950D01*
X587950Y-704933D02*
Y-694933D01*
X557550Y-699933D02*
X567550D01*
X562550Y-704933D02*
Y-694933D01*
X532150Y-699933D02*
X542150D01*
X537150Y-704933D02*
Y-694933D01*
X506750Y-699933D02*
X516750D01*
X511750Y-704933D02*
Y-694933D01*
X481350Y-699933D02*
X491350D01*
X486350Y-704933D02*
Y-694933D01*
X455950Y-699933D02*
X465950D01*
X460950Y-704933D02*
Y-694933D01*
X430550Y-699933D02*
X440550D01*
X435550Y-704933D02*
Y-694933D01*
X405150Y-699933D02*
X415150D01*
X410150Y-704933D02*
Y-694933D01*
X379750Y-699933D02*
X389750D01*
X384750Y-704933D02*
Y-694933D01*
X354350Y-699933D02*
X364350D01*
X359350Y-704933D02*
Y-694933D01*
X328950Y-699933D02*
X338950D01*
X333950Y-704933D02*
Y-694933D01*
X303550Y-699933D02*
X313550D01*
X308550Y-704933D02*
Y-694933D01*
X278150Y-699933D02*
X288150D01*
X283150Y-704933D02*
Y-694933D01*
X760750Y-725333D02*
X770750D01*
X765750Y-730333D02*
Y-720333D01*
X735350Y-725333D02*
X745350D01*
X740350Y-730333D02*
Y-720333D01*
X709950Y-725333D02*
X719950D01*
X714950Y-730333D02*
Y-720333D01*
X684550Y-725333D02*
X694550D01*
X689550Y-730333D02*
Y-720333D01*
X659150Y-725333D02*
X669150D01*
X664150Y-730333D02*
Y-720333D01*
X633750Y-725333D02*
X643750D01*
X638750Y-730333D02*
Y-720333D01*
X608350Y-725333D02*
X618350D01*
X613350Y-730333D02*
Y-720333D01*
X582950Y-725333D02*
X592950D01*
X587950Y-730333D02*
Y-720333D01*
X557550Y-725333D02*
X567550D01*
X562550Y-730333D02*
Y-720333D01*
X532150Y-725333D02*
X542150D01*
X537150Y-730333D02*
Y-720333D01*
X506750Y-725333D02*
X516750D01*
X511750Y-730333D02*
Y-720333D01*
X481350Y-725333D02*
X491350D01*
X486350Y-730333D02*
Y-720333D01*
X455950Y-725333D02*
X465950D01*
X460950Y-730333D02*
Y-720333D01*
X430550Y-725333D02*
X440550D01*
X435550Y-730333D02*
Y-720333D01*
X405150Y-725333D02*
X415150D01*
X410150Y-730333D02*
Y-720333D01*
X379750Y-725333D02*
X389750D01*
X384750Y-730333D02*
Y-720333D01*
X354350Y-725333D02*
X364350D01*
X359350Y-730333D02*
Y-720333D01*
X328950Y-725333D02*
X338950D01*
X333950Y-730333D02*
Y-720333D01*
X303550Y-725333D02*
X313550D01*
X308550Y-730333D02*
Y-720333D01*
X278150Y-725333D02*
X288150D01*
X283150Y-730333D02*
Y-720333D01*
X909030Y-17433D02*
X919230D01*
X914130Y-22533D02*
Y-12333D01*
X909030Y-42833D02*
X919230D01*
X914130Y-47933D02*
Y-37733D01*
X934430Y-42833D02*
X944630D01*
X939530Y-47933D02*
Y-37733D01*
X934430Y-17433D02*
X944630D01*
X939530Y-22533D02*
Y-12333D01*
X883630Y-17433D02*
X893830D01*
X888730Y-22533D02*
Y-12333D01*
X883630Y-42833D02*
X893830D01*
X888730Y-47933D02*
Y-37733D01*
X832830Y-42833D02*
X843030D01*
X837930Y-47933D02*
Y-37733D01*
X858230Y-42833D02*
X868430D01*
X863330Y-47933D02*
Y-37733D01*
X832830Y-17433D02*
X843030D01*
X837930Y-22533D02*
Y-12333D01*
X858230Y-17433D02*
X868430D01*
X863330Y-22533D02*
Y-12333D01*
X807430Y-17433D02*
X817630D01*
X812530Y-22533D02*
Y-12333D01*
X807430Y-42833D02*
X817630D01*
X812530Y-47933D02*
Y-37733D01*
X756630Y-17433D02*
X766830D01*
X761730Y-22533D02*
Y-12333D01*
X731230Y-17433D02*
X741430D01*
X736330Y-22533D02*
Y-12333D01*
X705830Y-17433D02*
X716030D01*
X710930Y-22533D02*
Y-12333D01*
X756630Y-42833D02*
X766830D01*
X761730Y-47933D02*
Y-37733D01*
X731230Y-42833D02*
X741430D01*
X736330Y-47933D02*
Y-37733D01*
X705830Y-42833D02*
X716030D01*
X710930Y-47933D02*
Y-37733D01*
X782030Y-42833D02*
X792230D01*
X787130Y-47933D02*
Y-37733D01*
X782030Y-17433D02*
X792230D01*
X787130Y-22533D02*
Y-12333D01*
X959830Y-42833D02*
X970030D01*
X964930Y-47933D02*
Y-37733D01*
X959830Y-17433D02*
X970030D01*
X964930Y-22533D02*
Y-12333D01*
X1010630Y-17433D02*
X1020830D01*
X1015730Y-22533D02*
Y-12333D01*
X1010630Y-42833D02*
X1020830D01*
X1015730Y-47933D02*
Y-37733D01*
X985230Y-42833D02*
X995430D01*
X990330Y-47933D02*
Y-37733D01*
X985230Y-17433D02*
X995430D01*
X990330Y-22533D02*
Y-12333D01*
X392457Y-42833D02*
X402657D01*
X397557Y-47933D02*
Y-37733D01*
X392457Y-17433D02*
X402657D01*
X397557Y-22533D02*
Y-12333D01*
X367057Y-17433D02*
X377257D01*
X372157Y-22533D02*
Y-12333D01*
X367057Y-42833D02*
X377257D01*
X372157Y-47933D02*
Y-37733D01*
X417857Y-42833D02*
X428057D01*
X422957Y-47933D02*
Y-37733D01*
X417857Y-17433D02*
X428057D01*
X422957Y-22533D02*
Y-12333D01*
X468657Y-17433D02*
X478857D01*
X473757Y-22533D02*
Y-12333D01*
X443257Y-17433D02*
X453457D01*
X448357Y-22533D02*
Y-12333D01*
X468657Y-42833D02*
X478857D01*
X473757Y-47933D02*
Y-37733D01*
X443257Y-42833D02*
X453457D01*
X448357Y-47933D02*
Y-37733D01*
X494057Y-42833D02*
X504257D01*
X499157Y-47933D02*
Y-37733D01*
X494057Y-17433D02*
X504257D01*
X499157Y-22533D02*
Y-12333D01*
X544857Y-42833D02*
X555057D01*
X549957Y-47933D02*
Y-37733D01*
X570257Y-42833D02*
X580457D01*
X575357Y-47933D02*
Y-37733D01*
X595657Y-42833D02*
X605857D01*
X600757Y-47933D02*
Y-37733D01*
X544857Y-17433D02*
X555057D01*
X549957Y-22533D02*
Y-12333D01*
X570257Y-17433D02*
X580457D01*
X575357Y-22533D02*
Y-12333D01*
X595657Y-17433D02*
X605857D01*
X600757Y-22533D02*
Y-12333D01*
X519457Y-17433D02*
X529657D01*
X524557Y-22533D02*
Y-12333D01*
X519457Y-42833D02*
X529657D01*
X524557Y-47933D02*
Y-37733D01*
X341657Y-17433D02*
X351857D01*
X346757Y-22533D02*
Y-12333D01*
X341657Y-42833D02*
X351857D01*
X346757Y-47933D02*
Y-37733D01*
X290857Y-42833D02*
X301057D01*
X295957Y-47933D02*
Y-37733D01*
X290857Y-17433D02*
X301057D01*
X295957Y-22533D02*
Y-12333D01*
X316257Y-17433D02*
X326457D01*
X321357Y-22533D02*
Y-12333D01*
X316257Y-42833D02*
X326457D01*
X321357Y-47933D02*
Y-37733D01*
X541700Y-888230D02*
X551700D01*
X546700Y-893230D02*
Y-883230D01*
X516300Y-888230D02*
X526300D01*
X521300Y-893230D02*
Y-883230D01*
X490900Y-888230D02*
X500900D01*
X495900Y-893230D02*
Y-883230D01*
X465500Y-888230D02*
X475500D01*
X470500Y-893230D02*
Y-883230D01*
X440100Y-888230D02*
X450100D01*
X445100Y-893230D02*
Y-883230D01*
X414700Y-888230D02*
X424700D01*
X419700Y-893230D02*
Y-883230D01*
X389300Y-888230D02*
X399300D01*
X394300Y-893230D02*
Y-883230D01*
X363900Y-888230D02*
X373900D01*
X368900Y-893230D02*
Y-883230D01*
X338500Y-888230D02*
X348500D01*
X343500Y-893230D02*
Y-883230D01*
X313100Y-888230D02*
X323100D01*
X318100Y-893230D02*
Y-883230D01*
X287700Y-888230D02*
X297700D01*
X292700Y-893230D02*
Y-883230D01*
X262300Y-888230D02*
X272300D01*
X267300Y-893230D02*
Y-883230D01*
X236900Y-888230D02*
X246900D01*
X241900Y-893230D02*
Y-883230D01*
X211500Y-888230D02*
X221500D01*
X216500Y-893230D02*
Y-883230D01*
X186100Y-888230D02*
X196100D01*
X191100Y-893230D02*
Y-883230D01*
X160700Y-888230D02*
X170700D01*
X165700Y-893230D02*
Y-883230D01*
X135300Y-888230D02*
X145300D01*
X140300Y-893230D02*
Y-883230D01*
X109900Y-888230D02*
X119900D01*
X114900Y-893230D02*
Y-883230D01*
X84500Y-888230D02*
X94500D01*
X89500Y-893230D02*
Y-883230D01*
X59100Y-888230D02*
X69100D01*
X64100Y-893230D02*
Y-883230D01*
X541700Y-913630D02*
X551700D01*
X546700Y-918630D02*
Y-908630D01*
X516300Y-913630D02*
X526300D01*
X521300Y-918630D02*
Y-908630D01*
X490900Y-913630D02*
X500900D01*
X495900Y-918630D02*
Y-908630D01*
X465500Y-913630D02*
X475500D01*
X470500Y-918630D02*
Y-908630D01*
X440100Y-913630D02*
X450100D01*
X445100Y-918630D02*
Y-908630D01*
X414700Y-913630D02*
X424700D01*
X419700Y-918630D02*
Y-908630D01*
X389300Y-913630D02*
X399300D01*
X394300Y-918630D02*
Y-908630D01*
X363900Y-913630D02*
X373900D01*
X368900Y-918630D02*
Y-908630D01*
X338500Y-913630D02*
X348500D01*
X343500Y-918630D02*
Y-908630D01*
X313100Y-913630D02*
X323100D01*
X318100Y-918630D02*
Y-908630D01*
X287700Y-913630D02*
X297700D01*
X292700Y-918630D02*
Y-908630D01*
X262300Y-913630D02*
X272300D01*
X267300Y-918630D02*
Y-908630D01*
X236900Y-913630D02*
X246900D01*
X241900Y-918630D02*
Y-908630D01*
X211500Y-913630D02*
X221500D01*
X216500Y-918630D02*
Y-908630D01*
X186100Y-913630D02*
X196100D01*
X191100Y-918630D02*
Y-908630D01*
X160700Y-913630D02*
X170700D01*
X165700Y-918630D02*
Y-908630D01*
X135300Y-913630D02*
X145300D01*
X140300Y-918630D02*
Y-908630D01*
X109900Y-913630D02*
X119900D01*
X114900Y-918630D02*
Y-908630D01*
X84500Y-913630D02*
X94500D01*
X89500Y-918630D02*
Y-908630D01*
X59100Y-913630D02*
X69100D01*
X64100Y-918630D02*
Y-908630D01*
X1130700Y-888230D02*
X1140700D01*
X1135700Y-893230D02*
Y-883230D01*
X1105300Y-888230D02*
X1115300D01*
X1110300Y-893230D02*
Y-883230D01*
X1079900Y-888230D02*
X1089900D01*
X1084900Y-893230D02*
Y-883230D01*
X1054500Y-888230D02*
X1064500D01*
X1059500Y-893230D02*
Y-883230D01*
X1029100Y-888230D02*
X1039100D01*
X1034100Y-893230D02*
Y-883230D01*
X1003700Y-888230D02*
X1013700D01*
X1008700Y-893230D02*
Y-883230D01*
X978300Y-888230D02*
X988300D01*
X983300Y-893230D02*
Y-883230D01*
X952900Y-888230D02*
X962900D01*
X957900Y-893230D02*
Y-883230D01*
X927500Y-888230D02*
X937500D01*
X932500Y-893230D02*
Y-883230D01*
X902100Y-888230D02*
X912100D01*
X907100Y-893230D02*
Y-883230D01*
X876700Y-888230D02*
X886700D01*
X881700Y-893230D02*
Y-883230D01*
X851300Y-888230D02*
X861300D01*
X856300Y-893230D02*
Y-883230D01*
X825900Y-888230D02*
X835900D01*
X830900Y-893230D02*
Y-883230D01*
X800500Y-888230D02*
X810500D01*
X805500Y-893230D02*
Y-883230D01*
X775100Y-888230D02*
X785100D01*
X780100Y-893230D02*
Y-883230D01*
X749700Y-888230D02*
X759700D01*
X754700Y-893230D02*
Y-883230D01*
X724300Y-888230D02*
X734300D01*
X729300Y-893230D02*
Y-883230D01*
X698900Y-888230D02*
X708900D01*
X703900Y-893230D02*
Y-883230D01*
X673500Y-888230D02*
X683500D01*
X678500Y-893230D02*
Y-883230D01*
X648100Y-888230D02*
X658100D01*
X653100Y-893230D02*
Y-883230D01*
X1130700Y-913630D02*
X1140700D01*
X1135700Y-918630D02*
Y-908630D01*
X1105300Y-913630D02*
X1115300D01*
X1110300Y-918630D02*
Y-908630D01*
X1079900Y-913630D02*
X1089900D01*
X1084900Y-918630D02*
Y-908630D01*
X1054500Y-913630D02*
X1064500D01*
X1059500Y-918630D02*
Y-908630D01*
X1029100Y-913630D02*
X1039100D01*
X1034100Y-918630D02*
Y-908630D01*
X1003700Y-913630D02*
X1013700D01*
X1008700Y-918630D02*
Y-908630D01*
X978300Y-913630D02*
X988300D01*
X983300Y-918630D02*
Y-908630D01*
X952900Y-913630D02*
X962900D01*
X957900Y-918630D02*
Y-908630D01*
X927500Y-913630D02*
X937500D01*
X932500Y-918630D02*
Y-908630D01*
X902100Y-913630D02*
X912100D01*
X907100Y-918630D02*
Y-908630D01*
X876700Y-913630D02*
X886700D01*
X881700Y-918630D02*
Y-908630D01*
X851300Y-913630D02*
X861300D01*
X856300Y-918630D02*
Y-908630D01*
X825900Y-913630D02*
X835900D01*
X830900Y-918630D02*
Y-908630D01*
X800500Y-913630D02*
X810500D01*
X805500Y-918630D02*
Y-908630D01*
X775100Y-913630D02*
X785100D01*
X780100Y-918630D02*
Y-908630D01*
X749700Y-913630D02*
X759700D01*
X754700Y-918630D02*
Y-908630D01*
X724300Y-913630D02*
X734300D01*
X729300Y-918630D02*
Y-908630D01*
X698900Y-913630D02*
X708900D01*
X703900Y-918630D02*
Y-908630D01*
X673500Y-913630D02*
X683500D01*
X678500Y-918630D02*
Y-908630D01*
X648100Y-913630D02*
X658100D01*
X653100Y-918630D02*
Y-908630D01*
X1199500Y-832738D02*
X1204500D01*
X1202000Y-835238D02*
Y-830238D01*
X1199500Y-846738D02*
X1204500D01*
X1202000Y-849238D02*
Y-844238D01*
X1199500Y-839738D02*
X1204500D01*
X1202000Y-842238D02*
Y-837238D01*
X1199500Y-860738D02*
X1204500D01*
X1202000Y-863238D02*
Y-858238D01*
X1199500Y-867738D02*
X1204500D01*
X1202000Y-870238D02*
Y-865238D01*
X1199500Y-853738D02*
X1204500D01*
X1202000Y-856238D02*
Y-851238D01*
X1199500Y-895738D02*
X1204500D01*
X1202000Y-898238D02*
Y-893238D01*
X1199500Y-909737D02*
X1204500D01*
X1202000Y-912237D02*
Y-907237D01*
X1199500Y-902738D02*
X1204500D01*
X1202000Y-905238D02*
Y-900238D01*
X1199500Y-881738D02*
X1204500D01*
X1202000Y-884238D02*
Y-879238D01*
X1199500Y-888738D02*
X1204500D01*
X1202000Y-891238D02*
Y-886238D01*
X1199500Y-874738D02*
X1204500D01*
X1202000Y-877238D02*
Y-872238D01*
X1199500Y-923730D02*
X1204500D01*
X1202000Y-926230D02*
Y-921230D01*
X1199500Y-930730D02*
X1204500D01*
X1202000Y-933230D02*
Y-928231D01*
X1199500Y-916730D02*
X1204500D01*
X1202000Y-919230D02*
Y-914230D01*
X1199500Y-5027D02*
X1204500D01*
X1202000Y-7527D02*
Y-2527D01*
X1199500Y-19027D02*
X1204500D01*
X1202000Y-21527D02*
Y-16527D01*
X1199500Y-12027D02*
X1204500D01*
X1202000Y-14527D02*
Y-9527D01*
X1199500Y-33027D02*
X1204500D01*
X1202000Y-35527D02*
Y-30527D01*
X1199500Y-40027D02*
X1204500D01*
X1202000Y-42527D02*
Y-37527D01*
X1199500Y-26027D02*
X1204500D01*
X1202000Y-28527D02*
Y-23527D01*
X1199500Y-68027D02*
X1204500D01*
X1202000Y-70527D02*
Y-65527D01*
X1199500Y-82027D02*
X1204500D01*
X1202000Y-84527D02*
Y-79527D01*
X1199500Y-75027D02*
X1204500D01*
X1202000Y-77527D02*
Y-72527D01*
X1199500Y-54027D02*
X1204500D01*
X1202000Y-56527D02*
Y-51527D01*
X1199500Y-61027D02*
X1204500D01*
X1202000Y-63527D02*
Y-58527D01*
X1199500Y-47027D02*
X1204500D01*
X1202000Y-49527D02*
Y-44527D01*
X1199500Y-96020D02*
X1204500D01*
X1202000Y-98520D02*
Y-93520D01*
X1199500Y-103020D02*
X1204500D01*
X1202000Y-105520D02*
Y-100520D01*
X1199500Y-89020D02*
X1204500D01*
X1202000Y-91520D02*
Y-86520D01*
X-4500Y-4310D02*
X500D01*
X-2000Y-6810D02*
Y-1810D01*
X-4500Y-18310D02*
X500D01*
X-2000Y-20810D02*
Y-15810D01*
X-4500Y-11310D02*
X500D01*
X-2000Y-13810D02*
Y-8810D01*
X-4500Y-32310D02*
X500D01*
X-2000Y-34810D02*
Y-29810D01*
X-4500Y-39310D02*
X500D01*
X-2000Y-41810D02*
Y-36810D01*
X-4500Y-25310D02*
X500D01*
X-2000Y-27810D02*
Y-22810D01*
X-4500Y-67310D02*
X500D01*
X-2000Y-69810D02*
Y-64810D01*
X-4500Y-81310D02*
X500D01*
X-2000Y-83810D02*
Y-78810D01*
X-4500Y-74310D02*
X500D01*
X-2000Y-76810D02*
Y-71810D01*
X-4500Y-53310D02*
X500D01*
X-2000Y-55810D02*
Y-50810D01*
X-4500Y-60310D02*
X500D01*
X-2000Y-62810D02*
Y-57810D01*
X-4500Y-46310D02*
X500D01*
X-2000Y-48810D02*
Y-43810D01*
X-4500Y-95303D02*
X500D01*
X-2000Y-97803D02*
Y-92803D01*
X-4500Y-102303D02*
X500D01*
X-2000Y-104803D02*
Y-99803D01*
X-4500Y-88303D02*
X500D01*
X-2000Y-90803D02*
Y-85803D01*
X-4500Y-916303D02*
X500D01*
X-2000Y-918803D02*
Y-913803D01*
X-4500Y-930303D02*
X500D01*
X-2000Y-932803D02*
Y-927803D01*
X-4500Y-923303D02*
X500D01*
X-2000Y-925803D02*
Y-920803D01*
X-4500Y-874310D02*
X500D01*
X-2000Y-876810D02*
Y-871810D01*
X-4500Y-888310D02*
X500D01*
X-2000Y-890810D02*
Y-885810D01*
X-4500Y-881310D02*
X500D01*
X-2000Y-883810D02*
Y-878810D01*
X-4500Y-902310D02*
X500D01*
X-2000Y-904810D02*
Y-899810D01*
X-4500Y-909310D02*
X500D01*
X-2000Y-911810D02*
Y-906810D01*
X-4500Y-895310D02*
X500D01*
X-2000Y-897810D02*
Y-892810D01*
X-4500Y-853310D02*
X500D01*
X-2000Y-855810D02*
Y-850810D01*
X-4500Y-867310D02*
X500D01*
X-2000Y-869810D02*
Y-864810D01*
X-4500Y-860310D02*
X500D01*
X-2000Y-862810D02*
Y-857810D01*
X-4500Y-839310D02*
X500D01*
X-2000Y-841810D02*
Y-836810D01*
X-4500Y-846310D02*
X500D01*
X-2000Y-848810D02*
Y-843810D01*
X-4500Y-832310D02*
X500D01*
X-2000Y-834810D02*
Y-829810D01*
X1173500Y-837400D02*
X1182500D01*
X1178000Y-841900D02*
Y-832900D01*
X1173500Y-812000D02*
X1182500D01*
X1178000Y-816500D02*
Y-807500D01*
X1060984Y-524406D02*
X1070984D01*
X1065984Y-529406D02*
Y-519406D01*
X1029994Y-524473D02*
X1039994D01*
X1034994Y-529473D02*
Y-519473D01*
X1167000Y-762183D02*
X1177000D01*
X1172000Y-767183D02*
Y-757183D01*
X972000Y-724183D02*
X982000D01*
X977000Y-729183D02*
Y-719183D01*
X1019571Y-821433D02*
X1029571D01*
X1024571Y-826433D02*
Y-816433D01*
X110038Y-14392D02*
X121038D01*
X115538Y-19892D02*
Y-8892D01*
X10038Y-14392D02*
X21038D01*
X15538Y-19892D02*
Y-8892D01*
X100538Y-114392D02*
X110538D01*
X105538Y-119392D02*
Y-109392D01*
X80538Y-114392D02*
X90538D01*
X85538Y-119392D02*
Y-109392D01*
X60538Y-114392D02*
X70538D01*
X65538Y-119392D02*
Y-109392D01*
X40538Y-114392D02*
X50538D01*
X45538Y-119392D02*
Y-109392D01*
X20538Y-114392D02*
X30538D01*
X25538Y-119392D02*
Y-109392D01*
X1177440Y-724112D02*
X1185060D01*
X1181250Y-727922D02*
Y-720302D01*
X653769Y-21500D02*
X661389D01*
X657579Y-25310D02*
Y-17690D01*
X14940Y-757433D02*
X22560D01*
X18750Y-761243D02*
Y-753623D01*
X596690Y-905000D02*
X604310D01*
X600500Y-908810D02*
Y-901190D01*
X-53750Y-53750D02*
X-26250D01*
X-40000Y-67500D02*
Y-40000D01*
X1226250Y-53731D02*
X1253750D01*
X1240000Y-67481D02*
Y-39982D01*
X-53750Y-881183D02*
X-26250D01*
X-40000Y-894933D02*
Y-867433D01*
X1226250Y-881146D02*
X1253750D01*
X1240000Y-894896D02*
Y-867396D01*
X1060984Y-553683D02*
X1070984D01*
X1065984Y-558683D02*
Y-548683D01*
X229290Y-21433D02*
X236290D01*
X232790Y-24933D02*
Y-17933D01*
X154290Y-21433D02*
X161290D01*
X157790Y-24933D02*
Y-17933D01*
X189790Y-22433D02*
X200790D01*
X195290Y-27933D02*
Y-16933D01*
X189790Y-82433D02*
X200790D01*
X195290Y-87933D02*
Y-76933D01*
X801250Y-222433D02*
X828750D01*
X815000Y-236183D02*
Y-208683D01*
X221250Y-222433D02*
X248750D01*
X235000Y-236183D02*
Y-208683D01*
X801250Y-712433D02*
X828750D01*
X815000Y-726183D02*
Y-698683D01*
X221250Y-712433D02*
X248750D01*
X235000Y-726183D02*
Y-698683D01*
X1122000Y-21433D02*
X1139000D01*
X1130500Y-29933D02*
Y-12933D01*
X1174000Y-99433D02*
X1191000D01*
X1182500Y-107933D02*
Y-90933D01*
X1147000Y-85433D02*
X1164000D01*
X1155500Y-93933D02*
Y-76933D01*
X1082000Y-131433D02*
X1099000D01*
X1090500Y-139933D02*
Y-122933D01*
X1077000Y-55433D02*
X1094000D01*
X1085500Y-63933D02*
Y-46933D01*
X412550Y-630683D02*
X422750D01*
X417650Y-635783D02*
Y-625583D01*
X387150Y-633683D02*
X397350D01*
X392250Y-638783D02*
Y-628583D01*
X361750Y-630683D02*
X371950D01*
X366850Y-635783D02*
Y-625583D01*
X336350Y-633683D02*
X346550D01*
X341450Y-638783D02*
Y-628583D01*
X310950Y-630683D02*
X321150D01*
X316050Y-635783D02*
Y-625583D01*
X285550Y-633683D02*
X295750D01*
X290650Y-638783D02*
Y-628583D01*
X1090500Y-524406D02*
X1100500D01*
X1095500Y-529406D02*
Y-519406D01*
X710940Y-377154D02*
X720940D01*
X715940Y-382154D02*
Y-372154D01*
X443000Y-583269D02*
X453000D01*
X448000Y-588269D02*
Y-578269D01*
X1090500Y-553683D02*
X1100500D01*
X1095500Y-558683D02*
Y-548683D01*
X823158Y-623924D02*
X833357D01*
X828258Y-629024D02*
Y-618824D01*
X823158Y-598524D02*
X833357D01*
X828258Y-603624D02*
Y-593424D01*
X823158Y-573124D02*
X833357D01*
X828258Y-578224D02*
Y-568024D01*
X797757Y-623924D02*
X807958D01*
X802858Y-629024D02*
Y-618824D01*
X797757Y-598524D02*
X807958D01*
X802858Y-603624D02*
Y-593424D01*
X797757Y-573124D02*
X807958D01*
X802858Y-578224D02*
Y-568024D01*
X822600Y-492613D02*
X832800D01*
X827700Y-497713D02*
Y-487513D01*
X822600Y-467213D02*
X832800D01*
X827700Y-472313D02*
Y-462113D01*
X822600Y-441813D02*
X832800D01*
X827700Y-446913D02*
Y-436713D01*
X797200Y-492613D02*
X807400D01*
X802300Y-497713D02*
Y-487513D01*
X797200Y-467213D02*
X807400D01*
X802300Y-472313D02*
Y-462113D01*
X797200Y-441813D02*
X807400D01*
X802300Y-446913D02*
Y-436713D01*
X217199Y-514926D02*
X227400D01*
X222299Y-520026D02*
Y-509826D01*
X217199Y-540326D02*
X227400D01*
X222299Y-545426D02*
Y-535226D01*
X217199Y-565726D02*
X227400D01*
X222299Y-570826D02*
Y-560626D01*
X242600Y-514926D02*
X252799D01*
X247700Y-520026D02*
Y-509826D01*
X242600Y-540326D02*
X252799D01*
X247700Y-545426D02*
Y-535226D01*
X242600Y-565726D02*
X252799D01*
X247700Y-570826D02*
Y-560626D01*
X242600Y-429892D02*
X252800D01*
X247700Y-434992D02*
Y-424792D01*
X242600Y-404492D02*
X252800D01*
X247700Y-409592D02*
Y-399392D01*
X242600Y-379092D02*
X252800D01*
X247700Y-384192D02*
Y-373992D01*
X217200Y-429892D02*
X227400D01*
X222300Y-434992D02*
Y-424792D01*
X217200Y-404492D02*
X227400D01*
X222300Y-409592D02*
Y-399392D01*
X217200Y-379092D02*
X227400D01*
X222300Y-384192D02*
Y-373992D01*
X822450Y-370333D02*
X832650D01*
X827550Y-375433D02*
Y-365233D01*
X822450Y-344933D02*
X832650D01*
X827550Y-350033D02*
Y-339833D01*
X822450Y-319533D02*
X832650D01*
X827550Y-324633D02*
Y-314433D01*
X797050Y-370333D02*
X807250D01*
X802150Y-375433D02*
Y-365233D01*
X797050Y-344933D02*
X807250D01*
X802150Y-350033D02*
Y-339833D01*
X797050Y-319533D02*
X807250D01*
X802150Y-324633D02*
Y-314433D01*
X471669Y-717513D02*
X474669D01*
X473169Y-719013D02*
Y-716013D01*
X286250Y-712183D02*
X289250D01*
X287750Y-713683D02*
Y-710683D01*
X440120Y-640297D02*
X443120D01*
X441620Y-641797D02*
Y-638797D01*
X354100Y-749716D02*
X357100D01*
X355600Y-751216D02*
Y-748216D01*
X663484Y-654893D02*
X666484D01*
X664984Y-656393D02*
Y-653393D01*
X561050Y-661633D02*
X564050D01*
X562550Y-663133D02*
Y-660133D01*
X723174Y-652743D02*
X726174D01*
X724674Y-654243D02*
Y-651243D01*
X455574Y-186082D02*
X458573D01*
X457074Y-187582D02*
Y-184582D01*
X1156000Y-147730D02*
X1159000D01*
X1157500Y-149230D02*
Y-146230D01*
X898930Y-801880D02*
X901930D01*
X900430Y-803380D02*
Y-800379D01*
X897660Y-811453D02*
X900660D01*
X899160Y-812953D02*
Y-809953D01*
X910106Y-818642D02*
X913106D01*
X911606Y-820142D02*
Y-817142D01*
X1101523Y-382743D02*
X1104523D01*
X1103023Y-384243D02*
Y-381243D01*
X1107915Y-390945D02*
X1110915D01*
X1109415Y-392445D02*
Y-389445D01*
X1037268Y-47423D02*
X1040268D01*
X1038768Y-48923D02*
Y-45923D01*
X814102Y-309093D02*
X817103D01*
X815602Y-310593D02*
Y-307593D01*
X830010Y-394933D02*
X833010D01*
X831510Y-396433D02*
Y-393433D01*
X1071606Y-592874D02*
X1074606D01*
X1073106Y-594374D02*
Y-591374D01*
X1138216Y-505858D02*
X1141216D01*
X1139716Y-507358D02*
Y-504358D01*
X1173250Y-507183D02*
X1176250D01*
X1174750Y-508683D02*
Y-505683D01*
X764287Y-813790D02*
X767287D01*
X765787Y-815290D02*
Y-812290D01*
X692400Y-827632D02*
X695400D01*
X693900Y-829132D02*
Y-826132D01*
X874460Y-339303D02*
X877460D01*
X875960Y-340803D02*
Y-337803D01*
X884571Y-455893D02*
X887571D01*
X886071Y-457393D02*
Y-454393D01*
X654992Y-830935D02*
X657992D01*
X656492Y-832435D02*
Y-829435D01*
X567460Y-450596D02*
X570460D01*
X568960Y-452096D02*
Y-449096D01*
X470250Y-291433D02*
X473250D01*
X471750Y-292933D02*
Y-289933D01*
X484520Y-338388D02*
X487520D01*
X486020Y-339888D02*
Y-336888D01*
X479490Y-292063D02*
X482490D01*
X480990Y-293563D02*
Y-290563D01*
X68461Y-566420D02*
X71461D01*
X69961Y-567920D02*
Y-564920D01*
X9591Y-377058D02*
X12591D01*
X11091Y-378558D02*
Y-375558D01*
X27000Y-429892D02*
X30000D01*
X28500Y-431392D02*
Y-428392D01*
X14250Y-606750D02*
X17250D01*
X15750Y-608250D02*
Y-605250D01*
X811300Y-814882D02*
X814300D01*
X812800Y-816382D02*
Y-813382D01*
X855750Y-763581D02*
X858750D01*
X857250Y-765081D02*
Y-762081D01*
X887230Y-733552D02*
X890230D01*
X888730Y-735052D02*
Y-732052D01*
X848764Y-753389D02*
X851765D01*
X850265Y-754889D02*
Y-751889D01*
X875816Y-733433D02*
X878816D01*
X877316Y-734933D02*
Y-731933D01*
X845590Y-743163D02*
X848590D01*
X847090Y-744663D02*
Y-741663D01*
X408989Y-842772D02*
X411989D01*
X410489Y-844272D02*
Y-841272D01*
X665296Y-389853D02*
X668296D01*
X666796Y-391353D02*
Y-388353D01*
X863601Y-756158D02*
X866601D01*
X865101Y-757658D02*
Y-754658D01*
X896250Y-713325D02*
X899250D01*
X897750Y-714825D02*
Y-711825D01*
X220242Y-599440D02*
X223242D01*
X221742Y-600940D02*
Y-597940D01*
X941602Y-625094D02*
X944602D01*
X943102Y-626594D02*
Y-623594D01*
X913408Y-644398D02*
X916408D01*
X914908Y-645898D02*
Y-642898D01*
X534186Y-338582D02*
X537186D01*
X535686Y-340082D02*
Y-337082D01*
X525042Y-374142D02*
X528042D01*
X526542Y-375642D02*
Y-372642D01*
X517930Y-341122D02*
X520930D01*
X519430Y-342622D02*
Y-339622D01*
X523010Y-394034D02*
X526010D01*
X524510Y-395533D02*
Y-392534D01*
X57682Y-493268D02*
X60682D01*
X59182Y-494768D02*
Y-491768D01*
X620800Y-539242D02*
X623800D01*
X622300Y-540742D02*
Y-537742D01*
X370610Y-413766D02*
X373610D01*
X372110Y-415266D02*
Y-412266D01*
X616624Y-451339D02*
X619624D01*
X618124Y-452839D02*
Y-449838D01*
X593876Y-451612D02*
X596876D01*
X595376Y-453112D02*
Y-450112D01*
X578310Y-451682D02*
X581310D01*
X579810Y-453182D02*
Y-450182D01*
X607592Y-451104D02*
X610592D01*
X609092Y-452604D02*
Y-449604D01*
X539016Y-539932D02*
X542016D01*
X540517Y-541432D02*
Y-538432D01*
X565174Y-539750D02*
X568174D01*
X566674Y-541250D02*
Y-538250D01*
X543838Y-562610D02*
X546838D01*
X545338Y-564110D02*
Y-561110D01*
X128548Y-640588D02*
X131548D01*
X130048Y-642088D02*
Y-639088D01*
X443254Y-516636D02*
X446254D01*
X444754Y-518136D02*
Y-515136D01*
X436000Y-503933D02*
X439000D01*
X437500Y-505433D02*
Y-502433D01*
X439190Y-531368D02*
X442190D01*
X440690Y-532868D02*
Y-529868D01*
X425982Y-478028D02*
X428982D01*
X427482Y-479528D02*
Y-476528D01*
X416838Y-478536D02*
X419838D01*
X418338Y-480036D02*
Y-477036D01*
X415568Y-516890D02*
X418568D01*
X417068Y-518390D02*
Y-515390D01*
X679220Y-294132D02*
X682220D01*
X680720Y-295632D02*
Y-292632D01*
X537573Y-436181D02*
X540573D01*
X539073Y-437681D02*
Y-434681D01*
X462304Y-499364D02*
X465304D01*
X463804Y-500864D02*
Y-497864D01*
X480592Y-495554D02*
X483592D01*
X482092Y-497054D02*
Y-494054D01*
X477798Y-472186D02*
X480798D01*
X479298Y-473686D02*
Y-470686D01*
X494816Y-490982D02*
X497816D01*
X496316Y-492482D02*
Y-489482D01*
X502690Y-485648D02*
X505690D01*
X504190Y-487148D02*
Y-484148D01*
X510000Y-479933D02*
X513000D01*
X511500Y-481433D02*
Y-478433D01*
X464844Y-520446D02*
X467844D01*
X466344Y-521946D02*
Y-518946D01*
X355116Y-533400D02*
X358116D01*
X356616Y-534900D02*
Y-531900D01*
X331240Y-531677D02*
X334240D01*
X332740Y-533177D02*
Y-530177D01*
X147891Y-665292D02*
X150891D01*
X149391Y-666792D02*
Y-663792D01*
X68350Y-746506D02*
X71350D01*
X69850Y-748006D02*
Y-745006D01*
X97617Y-763742D02*
X100617D01*
X99117Y-765242D02*
Y-762242D01*
X151440Y-705612D02*
X154440D01*
X152940Y-707112D02*
Y-704112D01*
X267972Y-782828D02*
X270972D01*
X269472Y-784328D02*
Y-781328D01*
X121182Y-845312D02*
X124182D01*
X122682Y-846812D02*
Y-843812D01*
X141756Y-832250D02*
X144756D01*
X143256Y-833750D02*
Y-830750D01*
X69096Y-781574D02*
X72096D01*
X70596Y-783074D02*
Y-780074D01*
X203478Y-413933D02*
X206478D01*
X204978Y-415433D02*
Y-412433D01*
X206780Y-391922D02*
X209780D01*
X208280Y-393422D02*
Y-390422D01*
X27964Y-573933D02*
X30964D01*
X29464Y-575433D02*
Y-572433D01*
X24453Y-559816D02*
X27453D01*
X25953Y-561316D02*
Y-558316D01*
X53872Y-513334D02*
X56872D01*
X55372Y-514834D02*
Y-511834D01*
X26076Y-530184D02*
X29076D01*
X27576Y-531684D02*
Y-528684D01*
X40410Y-791210D02*
X43410D01*
X41910Y-792710D02*
Y-789710D01*
X418870Y-193804D02*
X421870D01*
X420370Y-195304D02*
Y-192304D01*
X885576Y-676873D02*
X888576D01*
X887076Y-678373D02*
Y-675373D01*
X951000Y-540326D02*
X954000D01*
X952500Y-541826D02*
Y-538826D01*
X498540Y-393367D02*
X501540D01*
X500040Y-394867D02*
Y-391867D01*
X569660Y-366993D02*
X572660D01*
X571160Y-368493D02*
Y-365493D01*
X977830Y-432570D02*
X980830D01*
X979330Y-434070D02*
Y-431070D01*
X705102Y-393247D02*
X708102D01*
X706602Y-394747D02*
Y-391747D01*
X738068Y-422742D02*
X741068D01*
X739568Y-424242D02*
Y-421242D01*
X1100935Y-567690D02*
X1103935D01*
X1102435Y-569190D02*
Y-566190D01*
X609873Y-326390D02*
X612873D01*
X611373Y-327890D02*
Y-324890D01*
X579000Y-338410D02*
X582000D01*
X580500Y-339910D02*
Y-336910D01*
X561720Y-339786D02*
X564720D01*
X563220Y-341286D02*
Y-338286D01*
X633770Y-344133D02*
X636771D01*
X635271Y-345633D02*
Y-342633D01*
X625540Y-380963D02*
X628540D01*
X627040Y-382463D02*
Y-379463D01*
X637649Y-392393D02*
X640649D01*
X639149Y-393893D02*
Y-390893D01*
X485874Y-844763D02*
X488874D01*
X487374Y-846263D02*
Y-843263D01*
X342670Y-798683D02*
X345670D01*
X344170Y-800183D02*
Y-797183D01*
X345750Y-835096D02*
X348750D01*
X347250Y-836596D02*
Y-833596D01*
X524280Y-842405D02*
X527280D01*
X525780Y-843905D02*
Y-840905D01*
X401499Y-585999D02*
X404499D01*
X402999Y-587499D02*
Y-584499D01*
X934498Y-79000D02*
X937498D01*
X935998Y-80500D02*
Y-77500D01*
X924498Y-69559D02*
X927498D01*
X925998Y-71059D02*
Y-68059D01*
X917640Y-63463D02*
X920640D01*
X919140Y-64963D02*
Y-61963D01*
X181312Y-712601D02*
X184312D01*
X182812Y-714101D02*
Y-711101D01*
X181312Y-701893D02*
X184312D01*
X182812Y-703393D02*
Y-700393D01*
X181312Y-691185D02*
X184312D01*
X182812Y-692685D02*
Y-689685D01*
X181312Y-680477D02*
X184312D01*
X182812Y-681977D02*
Y-678977D01*
X181031Y-723742D02*
X184031D01*
X182531Y-725242D02*
Y-722242D01*
X352576Y-373000D02*
X355576D01*
X354076Y-374500D02*
Y-371500D01*
X277392Y-372872D02*
X280392D01*
X278892Y-374372D02*
Y-371372D01*
X307372Y-373000D02*
X310372D01*
X308872Y-374500D02*
Y-371500D01*
X321081Y-373000D02*
X324081D01*
X322580Y-374500D02*
Y-371500D01*
X404634Y-373000D02*
X407634D01*
X406134Y-374500D02*
Y-371500D01*
X390926Y-373000D02*
X393926D01*
X392426Y-374500D02*
Y-371500D01*
X377217Y-373000D02*
X380218D01*
X378717Y-374500D02*
Y-371500D01*
X418775Y-373000D02*
X421775D01*
X420275Y-374500D02*
Y-371500D01*
X180681Y-741013D02*
X183681D01*
X182181Y-742513D02*
Y-739513D01*
X202531Y-741294D02*
X205531D01*
X204031Y-742794D02*
Y-739794D01*
X191822Y-741294D02*
X194823D01*
X193323Y-742794D02*
Y-739794D01*
X152031Y-769076D02*
X155031D01*
X153531Y-770576D02*
Y-767576D01*
X152031Y-779784D02*
X155031D01*
X153531Y-781284D02*
Y-778284D01*
X152312Y-725810D02*
X155312D01*
X153812Y-727310D02*
Y-724310D01*
X152312Y-736518D02*
X155312D01*
X153812Y-738018D02*
Y-735018D01*
X152312Y-747226D02*
X155312D01*
X153812Y-748727D02*
Y-745726D01*
X152312Y-757935D02*
X155312D01*
X153812Y-759435D02*
Y-756435D01*
X1115921Y-505858D02*
X1118921D01*
X1117421Y-507358D02*
Y-504358D01*
X172533Y-333590D02*
X175534D01*
X174034Y-335090D02*
Y-332090D01*
X822136Y-29427D02*
X825136D01*
X823636Y-30927D02*
Y-27927D01*
X517590Y-608547D02*
X520590D01*
X519090Y-610047D02*
Y-607047D01*
X563290Y-602683D02*
X566290D01*
X564790Y-604183D02*
Y-601183D01*
X1023364Y-289925D02*
X1026364D01*
X1024864Y-291425D02*
Y-288425D01*
X835598Y-118581D02*
X838598D01*
X837098Y-120081D02*
Y-117081D01*
X931864Y-148299D02*
X934864D01*
X933364Y-149799D02*
Y-146799D01*
X945627Y-148210D02*
X948627D01*
X947127Y-149710D02*
Y-146710D01*
X934493Y-160910D02*
X937493D01*
X935993Y-162410D02*
Y-159410D01*
X934150Y-135861D02*
X937150D01*
X935650Y-137361D02*
Y-134361D01*
X944982Y-122810D02*
X947982D01*
X946482Y-124310D02*
Y-121310D01*
X758382Y-152109D02*
X761382D01*
X759882Y-153609D02*
Y-150609D01*
X1042862Y-200115D02*
X1045862D01*
X1044362Y-201615D02*
Y-198615D01*
X1031686Y-169381D02*
X1034686D01*
X1033186Y-170881D02*
Y-167881D01*
X1017716Y-180557D02*
X1020716D01*
X1019216Y-182057D02*
Y-179057D01*
X969575Y-169442D02*
X972575D01*
X971075Y-170942D02*
Y-167942D01*
X1019725Y-198874D02*
X1022725D01*
X1021225Y-200375D02*
Y-197374D01*
X849060Y-154903D02*
X852060D01*
X850560Y-156403D02*
Y-153403D01*
X849060Y-188860D02*
X852060D01*
X850560Y-190360D02*
Y-187360D01*
X458181Y-28725D02*
X461181D01*
X459681Y-30225D02*
Y-27225D01*
X636462Y-38063D02*
X639462D01*
X637962Y-39563D02*
Y-36563D01*
X597600Y-604483D02*
X600600D01*
X599100Y-605983D02*
Y-602983D01*
X545495Y-619903D02*
X548495D01*
X546995Y-621403D02*
Y-618403D01*
X268924Y-595085D02*
X271924D01*
X270424Y-596585D02*
Y-593585D01*
X312993Y-593622D02*
X315993D01*
X314493Y-595122D02*
Y-592122D01*
X381700Y-59630D02*
X384700D01*
X383200Y-61130D02*
Y-58130D01*
X616650Y-73623D02*
X619650D01*
X618150Y-75123D02*
Y-72123D01*
X376903Y-81013D02*
X379903D01*
X378403Y-82513D02*
Y-79513D01*
X15010Y-207614D02*
X18010D01*
X16510Y-209114D02*
Y-206113D01*
X983680Y-64733D02*
X986680D01*
X985180Y-66233D02*
Y-63233D01*
X996380Y-65560D02*
X999380D01*
X997880Y-67060D02*
Y-64060D01*
X897660Y-59653D02*
X900660D01*
X899160Y-61153D02*
Y-58153D01*
X850330Y-52033D02*
X853330D01*
X851830Y-53533D02*
Y-50533D01*
X207383Y-677816D02*
X210383D01*
X208883Y-679316D02*
Y-676316D01*
X26750Y-503933D02*
X29750D01*
X28250Y-505433D02*
Y-502433D01*
X179276Y-323301D02*
X182276D01*
X180776Y-324800D02*
Y-321800D01*
X185663Y-316914D02*
X188663D01*
X187163Y-318414D02*
Y-315414D01*
X192050Y-310527D02*
X195049D01*
X193549Y-312027D02*
Y-309027D01*
X198436Y-304141D02*
X201436D01*
X199936Y-305641D02*
Y-302641D01*
X149290Y-142203D02*
X152290D01*
X150790Y-143703D02*
Y-140703D01*
X133000Y-137782D02*
X136000D01*
X134500Y-139282D02*
Y-136282D01*
X451276Y-761574D02*
X454276D01*
X452776Y-763074D02*
Y-760074D01*
X436310Y-782283D02*
X439310D01*
X437810Y-783783D02*
Y-780783D01*
X450280Y-779743D02*
X453280D01*
X451780Y-781243D02*
Y-778243D01*
X421656Y-731370D02*
X424656D01*
X423156Y-732870D02*
Y-729870D01*
X536980Y-760943D02*
X539980D01*
X538480Y-762443D02*
Y-759443D01*
X770315Y-786341D02*
X773315D01*
X771815Y-787841D02*
Y-784841D01*
X811190Y-783184D02*
X814190D01*
X812690Y-784684D02*
Y-781684D01*
X811030Y-793418D02*
X814030D01*
X812530Y-794918D02*
Y-791918D01*
X466790Y-775933D02*
X469790D01*
X468290Y-777433D02*
Y-774433D01*
X578731Y-754670D02*
X581731D01*
X580231Y-756170D02*
Y-753170D01*
X198820Y-791683D02*
X201820D01*
X200320Y-793183D02*
Y-790183D01*
X639510Y-474943D02*
X642510D01*
X641010Y-476443D02*
Y-473443D01*
X846520Y-482563D02*
X849520D01*
X848020Y-484063D02*
Y-481063D01*
X927988Y-390882D02*
X930988D01*
X929488Y-392383D02*
Y-389383D01*
X628080Y-265393D02*
X631080D01*
X629580Y-266893D02*
Y-263893D01*
X1130165Y-860188D02*
X1133165D01*
X1131665Y-861688D02*
Y-858688D01*
X1167620Y-794241D02*
X1170620D01*
X1169120Y-795742D02*
Y-792741D01*
X104840Y-317359D02*
X107840D01*
X106340Y-318859D02*
Y-315859D01*
X121960Y-324063D02*
X124960D01*
X123460Y-325563D02*
Y-322563D01*
X66074Y-313449D02*
X69074D01*
X67574Y-314949D02*
Y-311949D01*
X1026960Y-225263D02*
X1029959D01*
X1028459Y-226763D02*
Y-223763D01*
X1147000Y-394034D02*
X1150000D01*
X1148500Y-395533D02*
Y-392534D01*
X1133237Y-393497D02*
X1136237D01*
X1134737Y-394997D02*
Y-391997D01*
X1133013Y-382760D02*
X1136013D01*
X1134513Y-384260D02*
Y-381260D01*
X1113865Y-382760D02*
X1116865D01*
X1115365Y-384260D02*
Y-381260D01*
X715019Y-221082D02*
X718019D01*
X716519Y-222582D02*
Y-219582D01*
X868352Y-539995D02*
X871352D01*
X869852Y-541495D02*
Y-538495D01*
X857950Y-549873D02*
X860950D01*
X859450Y-551373D02*
Y-548373D01*
X842990Y-542676D02*
X845990D01*
X844490Y-544176D02*
Y-541176D01*
X977018Y-452396D02*
X980018D01*
X978518Y-453895D02*
Y-450896D01*
X880200Y-507963D02*
X883200D01*
X881700Y-509463D02*
Y-506463D01*
X889325Y-478900D02*
X892325D01*
X890825Y-480400D02*
Y-477400D01*
X906210Y-527013D02*
X909210D01*
X907710Y-528513D02*
Y-525513D01*
X446810Y-829523D02*
X449810D01*
X448310Y-831023D02*
Y-828023D01*
X344757Y-482433D02*
X347757D01*
X346257Y-483933D02*
Y-480933D01*
X387288Y-567343D02*
X390288D01*
X388788Y-568843D02*
Y-565843D01*
X352383Y-613683D02*
X355383D01*
X353883Y-615183D02*
Y-612183D01*
X639973Y-444953D02*
X642973D01*
X641473Y-446453D02*
Y-443453D01*
X727853Y-450761D02*
X730853D01*
X729353Y-452261D02*
Y-449261D01*
X1029400Y-387671D02*
X1032400D01*
X1030900Y-389171D02*
Y-386171D01*
X1067719Y-391123D02*
X1070719D01*
X1069219Y-392623D02*
Y-389623D01*
X379883Y-469863D02*
X382883D01*
X381383Y-471363D02*
Y-468363D01*
X381700Y-510503D02*
X384700D01*
X383200Y-512003D02*
Y-509003D01*
X299500Y-676183D02*
X302500D01*
X301000Y-677683D02*
Y-674683D01*
X695046Y-292063D02*
X698046D01*
X696546Y-293563D02*
Y-290563D01*
X577942Y-291433D02*
X580942D01*
X579441Y-292933D02*
Y-289933D01*
X366870Y-290015D02*
X369870D01*
X368370Y-291515D02*
Y-288515D01*
X281390Y-753073D02*
X284390D01*
X282890Y-754573D02*
Y-751573D01*
X650364Y-104103D02*
X653364D01*
X651864Y-105603D02*
Y-102603D01*
X1129000Y-120730D02*
X1132000D01*
X1130500Y-122230D02*
Y-119230D01*
X960820Y-314923D02*
X963820D01*
X962320Y-316423D02*
Y-313423D01*
X1046399Y-399233D02*
X1049399D01*
X1047899Y-400733D02*
Y-397733D01*
X1065210Y-379551D02*
X1068211D01*
X1066711Y-381051D02*
Y-378051D01*
X942862Y-329734D02*
X945862D01*
X944362Y-331234D02*
Y-328234D01*
X1018734Y-143473D02*
X1021734D01*
X1020234Y-144973D02*
Y-141973D01*
X936611Y-244419D02*
X939611D01*
X938111Y-245919D02*
Y-242919D01*
X1133237Y-226722D02*
X1136237D01*
X1134737Y-228222D02*
Y-225222D01*
X1141789Y-182453D02*
X1144789D01*
X1143289Y-183953D02*
Y-180953D01*
X820803Y-138393D02*
X823803D01*
X822303Y-139893D02*
Y-136893D01*
X957010Y-392393D02*
X960010D01*
X958510Y-393893D02*
Y-390893D01*
X968576Y-372354D02*
X971576D01*
X970076Y-373854D02*
Y-370854D01*
X1054491Y-445933D02*
X1057491D01*
X1055991Y-447433D02*
Y-444433D01*
X1066332Y-449015D02*
X1069332D01*
X1067832Y-450515D02*
Y-447515D01*
X1076390Y-389853D02*
X1079390D01*
X1077890Y-391353D02*
Y-388353D01*
X869126Y-350935D02*
X872126D01*
X870626Y-352435D02*
Y-349435D01*
X695390Y-510503D02*
X698390D01*
X696890Y-512003D02*
Y-509003D01*
X687144Y-498258D02*
X690144D01*
X688644Y-499758D02*
Y-496758D01*
X681420Y-511773D02*
X684420D01*
X682920Y-513273D02*
Y-510273D01*
X684300Y-489226D02*
X687300D01*
X685800Y-490726D02*
Y-487726D01*
X653223Y-393367D02*
X656223D01*
X654723Y-394867D02*
Y-391867D01*
X658560Y-448273D02*
X661560D01*
X660060Y-449773D02*
Y-446773D01*
X509970Y-369533D02*
X512970D01*
X511470Y-371033D02*
Y-368033D01*
X549000Y-407183D02*
X552000D01*
X550500Y-408683D02*
Y-405683D01*
X699215Y-554953D02*
X702215D01*
X700714Y-556453D02*
Y-553453D01*
X785190Y-530823D02*
X788190D01*
X786690Y-532323D02*
Y-529323D01*
X732034Y-324933D02*
X735034D01*
X733534Y-326433D02*
Y-323433D01*
X701740Y-327623D02*
X704740D01*
X703240Y-329123D02*
Y-326123D01*
X623648Y-281903D02*
X626648D01*
X625148Y-283403D02*
Y-280403D01*
X475180Y-343565D02*
X478180D01*
X476680Y-345065D02*
Y-342065D01*
X960820Y-459703D02*
X963820D01*
X962320Y-461203D02*
Y-458203D01*
X739840Y-515583D02*
X742840D01*
X741340Y-517083D02*
Y-514083D01*
X760959Y-505480D02*
X763959D01*
X762459Y-506980D02*
Y-503980D01*
X738030Y-500343D02*
X741030D01*
X739530Y-501843D02*
Y-498843D01*
X750052Y-517047D02*
X753052D01*
X751552Y-518546D02*
Y-515546D01*
X762214Y-626394D02*
X765214D01*
X763714Y-627894D02*
Y-624894D01*
X1152267Y-472242D02*
X1155267D01*
X1153767Y-473742D02*
Y-470742D01*
X1094000Y-479511D02*
X1097000D01*
X1095500Y-481011D02*
Y-478011D01*
X701740Y-544793D02*
X704740D01*
X703240Y-546293D02*
Y-543293D01*
X796990Y-529553D02*
X799990D01*
X798490Y-531053D02*
Y-528053D01*
X947498Y-550521D02*
X950498D01*
X948998Y-552021D02*
Y-549021D01*
X961686Y-478363D02*
X964686D01*
X963186Y-479863D02*
Y-476863D01*
X1008299Y-381453D02*
X1011299D01*
X1009799Y-382953D02*
Y-379953D01*
X954470Y-563843D02*
X957470D01*
X955970Y-565343D02*
Y-562343D01*
X974790Y-553123D02*
X977790D01*
X976290Y-554623D02*
Y-551623D01*
X927800Y-585433D02*
X930800D01*
X929300Y-586933D02*
Y-583933D01*
X903670Y-589743D02*
X906670D01*
X905170Y-591242D02*
Y-588242D01*
X904024Y-549847D02*
X907024D01*
X905524Y-551347D02*
Y-548347D01*
X928140Y-540326D02*
X931140D01*
X929640Y-541826D02*
Y-538826D01*
X898824Y-557494D02*
X901824D01*
X900324Y-558993D02*
Y-555993D01*
X867820Y-592023D02*
X870820D01*
X869320Y-593523D02*
Y-590523D01*
X901130Y-572733D02*
X904130D01*
X902630Y-574233D02*
Y-571233D01*
X928140Y-477483D02*
X931140D01*
X929640Y-478983D02*
Y-475983D01*
X957010Y-407633D02*
X960010D01*
X958510Y-409133D02*
Y-406133D01*
X669802Y-344835D02*
X672802D01*
X671302Y-346335D02*
Y-343335D01*
X850330Y-616933D02*
X853330D01*
X851830Y-618433D02*
Y-615433D01*
X716980Y-626073D02*
X719980D01*
X718480Y-627573D02*
Y-624573D01*
X908750Y-458183D02*
X911750D01*
X910250Y-459683D02*
Y-456683D01*
X904940Y-505400D02*
X907940D01*
X906440Y-506899D02*
Y-503899D01*
X913972Y-502883D02*
X916972D01*
X915472Y-504383D02*
Y-501383D01*
X928696Y-628111D02*
X931696D01*
X930196Y-629611D02*
Y-626611D01*
X913830Y-635219D02*
X916830D01*
X915330Y-636719D02*
Y-633719D01*
X1009080Y-570972D02*
X1012080D01*
X1010580Y-572472D02*
Y-569472D01*
X994823Y-611833D02*
X997823D01*
X996323Y-613333D02*
Y-610333D01*
X640191Y-601433D02*
X643192D01*
X641692Y-602933D02*
Y-599933D01*
X638805Y-610465D02*
X641805D01*
X640305Y-611965D02*
Y-608965D01*
X634500Y-618933D02*
X637500D01*
X636000Y-620433D02*
Y-617433D01*
X650253Y-642433D02*
X653252D01*
X651752Y-643933D02*
Y-640933D01*
X652691Y-543433D02*
X655691D01*
X654191Y-544933D02*
Y-541933D01*
X858320Y-584433D02*
X861320D01*
X859820Y-585933D02*
Y-582933D01*
X738678Y-482433D02*
X741678D01*
X740178Y-483933D02*
Y-480933D01*
X930340Y-656237D02*
X933340D01*
X931840Y-657738D02*
Y-654738D01*
X832831Y-664809D02*
X835831D01*
X834331Y-666309D02*
Y-663309D01*
X912750Y-611714D02*
X915750D01*
X914250Y-613214D02*
Y-610214D01*
X810060Y-654013D02*
X813060D01*
X811560Y-655513D02*
Y-652513D01*
X940437Y-647538D02*
X943437D01*
X941937Y-649038D02*
Y-646038D01*
X913098Y-663893D02*
X916098D01*
X914598Y-665393D02*
Y-662393D01*
X940500Y-663893D02*
X943500D01*
X942000Y-665393D02*
Y-662393D01*
X972542Y-671793D02*
X975542D01*
X974042Y-673293D02*
Y-670293D01*
X894780Y-687242D02*
X897780D01*
X896280Y-688742D02*
Y-685742D01*
X859871Y-665443D02*
X862871D01*
X861371Y-666943D02*
Y-663943D01*
X633770Y-643038D02*
X636771D01*
X635271Y-644538D02*
Y-641538D01*
X868894Y-711040D02*
X871894D01*
X870394Y-712540D02*
Y-709540D01*
X218790Y-114263D02*
X221790D01*
X220290Y-115763D02*
Y-112763D01*
X265500Y-521313D02*
X268500D01*
X267000Y-522813D02*
Y-519813D01*
X219693Y-308153D02*
X222693D01*
X221193Y-309653D02*
Y-306653D01*
X136930Y-205303D02*
X139930D01*
X138430Y-206803D02*
Y-203803D01*
X167410Y-179283D02*
X170410D01*
X168910Y-180783D02*
Y-177783D01*
X107500Y-232623D02*
X110500D01*
X109000Y-234123D02*
Y-231123D01*
X686500Y-560453D02*
X689500D01*
X688000Y-561953D02*
Y-558953D01*
X485138Y-326603D02*
X488138D01*
X486638Y-328103D02*
Y-325103D01*
X437920Y-490433D02*
X440920D01*
X439420Y-491933D02*
Y-488933D01*
X493335Y-409153D02*
X496335D01*
X494835Y-410653D02*
Y-407653D01*
X477165Y-462683D02*
X480165D01*
X478665Y-464183D02*
Y-461183D01*
X475500Y-449683D02*
X478500D01*
X477000Y-451183D02*
Y-448183D01*
X476500Y-436936D02*
X479500D01*
X478000Y-438436D02*
Y-435436D01*
X422750Y-458183D02*
X425750D01*
X424250Y-459683D02*
Y-456683D01*
X399750Y-436751D02*
X402750D01*
X401250Y-438251D02*
Y-435251D01*
X611000Y-161562D02*
X614000D01*
X612500Y-163062D02*
Y-160062D01*
X674975Y-255408D02*
X677975D01*
X676475Y-256908D02*
Y-253908D01*
X652250Y-264482D02*
X655250D01*
X653750Y-265982D02*
Y-262982D01*
X505500Y-626723D02*
X508500D01*
X507000Y-628223D02*
Y-625223D01*
X15703Y-648683D02*
X18703D01*
X17203Y-650183D02*
Y-647183D01*
X59250Y-646000D02*
X62250D01*
X60750Y-647500D02*
Y-644500D01*
X121500Y-733433D02*
X124500D01*
X123000Y-734933D02*
Y-731933D01*
X110750Y-650250D02*
X113750D01*
X112250Y-651750D02*
Y-648750D01*
X146378Y-231683D02*
X149378D01*
X147878Y-233183D02*
Y-230183D01*
X133000Y-259933D02*
X136000D01*
X134500Y-261433D02*
Y-258433D01*
X29910Y-289023D02*
X32910D01*
X31410Y-290523D02*
Y-287523D01*
X38830Y-305013D02*
X41830D01*
X40330Y-306513D02*
Y-303513D01*
X51950Y-273634D02*
X54950D01*
X53450Y-275134D02*
Y-272134D01*
X244120Y-355813D02*
X247120D01*
X245620Y-357313D02*
Y-354313D01*
X91000Y-677816D02*
X94000D01*
X92500Y-679316D02*
Y-676316D01*
X36500Y-655183D02*
X39500D01*
X38000Y-656683D02*
Y-653683D01*
X49787Y-853433D02*
X52787D01*
X51287Y-854933D02*
Y-851933D01*
X92250Y-864933D02*
X95250D01*
X93750Y-866433D02*
Y-863433D01*
X544187Y-103683D02*
X547187D01*
X545687Y-105183D02*
Y-102183D01*
X564750Y-260925D02*
X567750D01*
X566250Y-262425D02*
Y-259425D01*
X715103Y-186082D02*
X718103D01*
X716603Y-187582D02*
Y-184582D01*
X678750Y-192433D02*
X681750D01*
X680250Y-193933D02*
Y-190933D01*
X420154Y-346683D02*
X423154D01*
X421654Y-348183D02*
Y-345183D01*
X310500Y-343933D02*
X313500D01*
X312000Y-345433D02*
Y-342433D01*
X603750Y-260433D02*
X606750D01*
X605250Y-261933D02*
Y-258933D01*
X673762Y-173683D02*
X676762D01*
X675262Y-175183D02*
Y-172183D01*
X367250Y-265933D02*
X370250D01*
X368750Y-267433D02*
Y-264433D01*
X447000Y-89433D02*
X450000D01*
X448500Y-90933D02*
Y-87933D01*
X400000Y-324683D02*
X403000D01*
X401500Y-326183D02*
Y-323183D01*
X459500Y-219815D02*
X462500D01*
X461000Y-221315D02*
Y-218315D01*
X456603Y-261433D02*
X459603D01*
X458103Y-262933D02*
Y-259933D01*
X342191Y-89993D02*
X345191D01*
X343691Y-91493D02*
Y-88493D01*
X402750Y-161933D02*
X405750D01*
X404250Y-163433D02*
Y-160433D01*
X362500Y-172933D02*
X365500D01*
X364000Y-174433D02*
Y-171433D01*
X394750Y-256433D02*
X397750D01*
X396250Y-257933D02*
Y-254933D01*
X354000Y-207933D02*
X357000D01*
X355500Y-209433D02*
Y-206433D01*
X354000Y-222183D02*
X357000D01*
X355500Y-223683D02*
Y-220683D01*
X310750Y-271433D02*
X313750D01*
X312250Y-272933D02*
Y-269933D01*
X307250Y-516683D02*
X310250D01*
X308750Y-518183D02*
Y-515183D01*
X268500Y-538433D02*
X271500D01*
X270000Y-539933D02*
Y-536933D01*
X138040Y-404683D02*
X141040D01*
X139540Y-406183D02*
Y-403183D01*
X138040Y-587683D02*
X141040D01*
X139540Y-589183D02*
Y-586183D01*
X107500Y-450733D02*
X110500D01*
X109000Y-452233D02*
Y-449233D01*
X133000Y-555433D02*
X136000D01*
X134500Y-556933D02*
Y-553933D01*
X117750Y-475683D02*
X120750D01*
X119250Y-477183D02*
Y-474183D01*
X104250Y-505433D02*
X107250D01*
X105750Y-506933D02*
Y-503933D01*
X112000Y-433433D02*
X115000D01*
X113500Y-434933D02*
Y-431933D01*
X28250Y-441683D02*
X31250D01*
X29750Y-443183D02*
Y-440183D01*
X516500Y-429739D02*
X519500D01*
X518000Y-431239D02*
Y-428238D01*
X295990Y-572749D02*
X298990D01*
X297490Y-574249D02*
Y-571249D01*
X283758Y-609433D02*
X286758D01*
X285258Y-610933D02*
Y-607933D01*
X357250Y-455183D02*
X360250D01*
X358750Y-456683D02*
Y-453683D01*
X302250Y-475933D02*
X305250D01*
X303750Y-477433D02*
Y-474433D01*
X329750Y-487183D02*
X332750D01*
X331250Y-488683D02*
Y-485683D01*
X301200Y-500683D02*
X304200D01*
X302700Y-502183D02*
Y-499183D01*
X378750Y-523933D02*
X381750D01*
X380250Y-525433D02*
Y-522433D01*
X653450Y-602183D02*
X656450D01*
X654950Y-603683D02*
Y-600683D01*
X632000Y-740683D02*
X635000D01*
X633500Y-742183D02*
Y-739183D01*
X701500Y-592433D02*
X704500D01*
X703000Y-593933D02*
Y-590933D01*
X622530Y-632169D02*
X625530D01*
X624030Y-633669D02*
Y-630668D01*
X578731Y-408183D02*
X581731D01*
X580231Y-409683D02*
Y-406683D01*
X563527Y-407908D02*
X566527D01*
X565028Y-409408D02*
Y-406408D01*
X1096750Y-830183D02*
X1099750D01*
X1098250Y-831683D02*
Y-828683D01*
X1096750Y-776433D02*
X1099750D01*
X1098250Y-777933D02*
Y-774933D01*
X1131775Y-543433D02*
X1134775D01*
X1133275Y-544933D02*
Y-541933D01*
X1184250Y-595683D02*
X1187250D01*
X1185750Y-597183D02*
Y-594183D01*
X1138250Y-572183D02*
X1141250D01*
X1139750Y-573683D02*
Y-570683D01*
X928140Y-725009D02*
X931140D01*
X929640Y-726509D02*
Y-723509D01*
X1169339Y-707898D02*
X1172339D01*
X1170839Y-709398D02*
Y-706398D01*
X930680Y-758403D02*
X933680D01*
X932180Y-759903D02*
Y-756903D01*
X1001000Y-665433D02*
X1004000D01*
X1002500Y-666933D02*
Y-663933D01*
X1139500Y-610433D02*
X1142500D01*
X1141000Y-611933D02*
Y-608933D01*
X997750Y-634933D02*
X1000750D01*
X999250Y-636433D02*
Y-633433D01*
X1055500Y-618433D02*
X1058500D01*
X1057000Y-619933D02*
Y-616933D01*
X1029000Y-610183D02*
X1032000D01*
X1030500Y-611683D02*
Y-608683D01*
X1004500Y-752933D02*
X1007500D01*
X1006000Y-754433D02*
Y-751433D01*
X1141000Y-732933D02*
X1144000D01*
X1142500Y-734433D02*
Y-731433D01*
X1068250Y-786683D02*
X1071250D01*
X1069750Y-788183D02*
Y-785183D01*
X1067719Y-742433D02*
X1070719D01*
X1069219Y-743933D02*
Y-740933D01*
X1025500Y-698336D02*
X1028500D01*
X1027000Y-699836D02*
Y-696836D01*
X627162Y-820101D02*
X630162D01*
X628662Y-821601D02*
Y-818601D01*
X680250Y-750972D02*
X683250D01*
X681750Y-752472D02*
Y-749472D01*
X772190Y-756943D02*
X775190D01*
X773690Y-758443D02*
Y-755443D01*
X568645Y-853653D02*
X571645D01*
X570145Y-855153D02*
Y-852153D01*
X558210Y-854507D02*
X561210D01*
X559710Y-856007D02*
Y-853007D01*
X577620Y-843493D02*
X580620D01*
X579120Y-844993D02*
Y-841993D01*
X590320Y-830935D02*
X593320D01*
X591820Y-832435D02*
Y-829435D01*
X488720Y-866353D02*
X491720D01*
X490220Y-867853D02*
Y-864853D01*
X360450Y-847303D02*
X363450D01*
X361950Y-848803D02*
Y-845803D01*
X405210Y-784183D02*
X408210D01*
X406710Y-785683D02*
Y-782683D01*
X419120Y-835873D02*
X422120D01*
X420620Y-837373D02*
Y-834373D01*
X427120Y-826983D02*
X430120D01*
X428620Y-828483D02*
Y-825483D01*
X507770Y-828454D02*
X510770D01*
X509270Y-829954D02*
Y-826954D01*
X524280Y-785953D02*
X527280D01*
X525780Y-787453D02*
Y-784453D01*
X469439Y-844763D02*
X472439D01*
X470938Y-846263D02*
Y-843263D01*
X496980Y-804931D02*
X499980D01*
X498480Y-806431D02*
Y-803431D01*
X468400Y-818836D02*
X471400D01*
X469900Y-820336D02*
Y-817336D01*
X328000Y-790183D02*
X331000D01*
X329500Y-791683D02*
Y-788683D01*
X605560Y-805393D02*
X608560D01*
X607060Y-806893D02*
Y-803893D01*
X597984Y-799043D02*
X600984D01*
X599484Y-800543D02*
Y-797543D01*
X600960Y-775101D02*
X603960D01*
X602460Y-776601D02*
Y-773601D01*
X605560Y-751864D02*
X608560D01*
X607060Y-753364D02*
Y-750364D01*
X308250Y-762683D02*
X311250D01*
X309750Y-764183D02*
Y-761183D01*
X264750Y-798933D02*
X267750D01*
X266250Y-800433D02*
Y-797433D01*
X282000Y-835933D02*
X285000D01*
X283500Y-837433D02*
Y-834433D01*
X181250Y-781933D02*
X184250D01*
X182750Y-783433D02*
Y-780433D01*
X233000Y-836683D02*
X236000D01*
X234500Y-838183D02*
Y-835183D01*
X208750Y-836933D02*
X211750D01*
X210250Y-838433D02*
Y-835433D01*
X234750Y-630183D02*
X237750D01*
X236250Y-631683D02*
Y-628683D01*
X383450Y-811130D02*
X386450D01*
X384950Y-812630D02*
Y-809630D01*
X436650Y-839683D02*
X439650D01*
X438150Y-841183D02*
Y-838183D01*
X342922Y-773049D02*
X345922D01*
X344422Y-774549D02*
Y-771550D01*
X757290Y-828618D02*
X760290D01*
X758790Y-830118D02*
Y-827118D01*
X792256Y-781183D02*
X795256D01*
X793756Y-782683D02*
Y-779684D01*
X763040Y-792969D02*
X766040D01*
X764540Y-794469D02*
Y-791469D01*
X777905Y-806795D02*
X780905D01*
X779405Y-808295D02*
Y-805295D01*
X896250Y-742919D02*
X899250D01*
X897750Y-744419D02*
Y-741420D01*
X387040Y-295078D02*
X390040D01*
X388540Y-296578D02*
Y-293578D01*
X492250Y-300683D02*
X495250D01*
X493750Y-302183D02*
Y-299183D01*
X520470Y-830793D02*
X523470D01*
X521970Y-832293D02*
Y-829293D01*
X366870Y-340183D02*
X369870D01*
X368370Y-341683D02*
Y-338683D01*
X505840Y-267293D02*
X508840D01*
X507340Y-268793D02*
Y-265793D01*
X293210Y-267793D02*
X296210D01*
X294710Y-269293D02*
Y-266293D01*
X350750Y-260183D02*
X353750D01*
X352250Y-261683D02*
Y-258683D01*
X399740Y-267703D02*
X402740D01*
X401240Y-269203D02*
Y-266203D01*
X632524Y-781749D02*
X635524D01*
X634024Y-783250D02*
Y-780249D01*
X118000Y-263183D02*
X121000D01*
X119500Y-264683D02*
Y-261683D01*
X723174Y-763537D02*
X726174D01*
X724674Y-765037D02*
Y-762037D01*
X1096390Y-465113D02*
X1099390D01*
X1097890Y-466613D02*
Y-463613D01*
X1170050Y-392723D02*
X1173050D01*
X1171550Y-394223D02*
Y-391223D01*
X785630Y-795233D02*
X788630D01*
X787130Y-796733D02*
Y-793733D01*
X658532Y-776544D02*
X661532D01*
X660032Y-778044D02*
Y-775043D01*
X106470Y-464143D02*
X109470D01*
X107970Y-465643D02*
Y-462643D01*
X1117999Y-617183D02*
X1121000D01*
X1119500Y-618683D02*
Y-615683D01*
X1107000Y-617183D02*
X1110000D01*
X1108500Y-618683D02*
Y-615683D01*
X612840Y-267293D02*
X615840D01*
X614340Y-268793D02*
Y-265793D01*
X622941Y-467901D02*
X625941D01*
X624441Y-469401D02*
Y-466401D01*
X622941Y-478900D02*
X625941D01*
X624441Y-480400D02*
Y-477400D01*
X622941Y-489901D02*
X625941D01*
X624441Y-491401D02*
Y-488401D01*
X622941Y-500900D02*
X625941D01*
X624441Y-502400D02*
Y-499400D01*
X622941Y-511901D02*
X625941D01*
X624441Y-513401D02*
Y-510401D01*
X622941Y-522900D02*
X625941D01*
X624441Y-524400D02*
Y-521400D01*
X611941Y-467901D02*
X614941D01*
X613442Y-469401D02*
Y-466401D01*
X611941Y-478900D02*
X614941D01*
X613442Y-480400D02*
Y-477400D01*
X611941Y-489901D02*
X614941D01*
X613442Y-491401D02*
Y-488401D01*
X611941Y-500900D02*
X614941D01*
X613442Y-502400D02*
Y-499400D01*
X611941Y-511901D02*
X614941D01*
X613442Y-513401D02*
Y-510401D01*
X611941Y-522900D02*
X614941D01*
X613442Y-524400D02*
Y-521400D01*
X600941Y-467901D02*
X603941D01*
X602441Y-469401D02*
Y-466401D01*
X600941Y-478900D02*
X603941D01*
X602441Y-480400D02*
Y-477400D01*
X600941Y-489901D02*
X603941D01*
X602441Y-491401D02*
Y-488401D01*
X600941Y-500900D02*
X603941D01*
X602441Y-502400D02*
Y-499400D01*
X600941Y-511901D02*
X603941D01*
X602441Y-513401D02*
Y-510401D01*
X600941Y-522900D02*
X603941D01*
X602441Y-524400D02*
Y-521400D01*
X589941Y-467901D02*
X592942D01*
X591441Y-469401D02*
Y-466401D01*
X589941Y-478900D02*
X592942D01*
X591441Y-480400D02*
Y-477400D01*
X589941Y-489901D02*
X592942D01*
X591441Y-491401D02*
Y-488401D01*
X589941Y-500900D02*
X592942D01*
X591441Y-502400D02*
Y-499400D01*
X589941Y-511901D02*
X592942D01*
X591441Y-513401D02*
Y-510401D01*
X589941Y-522900D02*
X592942D01*
X591441Y-524400D02*
Y-521400D01*
X578941Y-467901D02*
X581941D01*
X580441Y-469401D02*
Y-466401D01*
X578941Y-478900D02*
X581941D01*
X580441Y-480400D02*
Y-477400D01*
X578941Y-489901D02*
X581941D01*
X580441Y-491401D02*
Y-488401D01*
X578941Y-500900D02*
X581941D01*
X580441Y-502400D02*
Y-499400D01*
X578941Y-511901D02*
X581941D01*
X580441Y-513401D02*
Y-510401D01*
X578941Y-522900D02*
X581941D01*
X580441Y-524400D02*
Y-521400D01*
X567942Y-467901D02*
X570942D01*
X569442Y-469401D02*
Y-466401D01*
X567942Y-478900D02*
X570942D01*
X569442Y-480400D02*
Y-477400D01*
X567942Y-489901D02*
X570942D01*
X569442Y-491401D02*
Y-488401D01*
X567942Y-500900D02*
X570942D01*
X569442Y-502400D02*
Y-499400D01*
X567942Y-511901D02*
X570942D01*
X569442Y-513401D02*
Y-510401D01*
X567942Y-522900D02*
X570942D01*
X569442Y-524400D02*
Y-521400D01*
M02*
