G04*
G04 #@! TF.GenerationSoftware,Altium Limited,Altium Designer,19.0.15 (446)*
G04*
G04 Layer_Color=8388736*
%FSLAX44Y44*%
%MOMM*%
G71*
G01*
G75*
%ADD63R,1.2032X1.2532*%
%ADD64R,1.2532X1.2032*%
%ADD65R,1.4032X1.2032*%
%ADD66R,1.2032X1.4032*%
%ADD67R,1.2032X1.6032*%
%ADD68R,1.2032X1.3032*%
%ADD69R,1.3032X1.2032*%
%ADD70C,2.0000*%
%ADD71R,2.0032X2.5032*%
%ADD72R,2.0532X3.6032*%
%ADD73C,0.6000*%
%ADD74O,1.0032X0.5032*%
%ADD75R,1.0032X1.1032*%
%ADD76R,2.1532X6.8032*%
%ADD77R,0.9032X1.4032*%
%ADD78R,3.6032X2.0532*%
%ADD79O,2.4032X0.8032*%
%ADD80R,2.0032X1.3032*%
%ADD81O,0.8032X2.4032*%
%ADD82O,1.6032X0.5032*%
%ADD83R,3.2032X1.8032*%
%ADD84R,1.3032X3.0032*%
%ADD85R,2.6032X1.8532*%
%ADD86O,0.6032X1.1032*%
%ADD87O,0.6532X1.6032*%
%ADD88O,1.6032X0.6532*%
%ADD89O,2.7032X0.9032*%
%ADD90R,0.5032X1.6532*%
%ADD91R,1.6532X0.5032*%
%ADD92R,7.2032X7.8232*%
%ADD93R,1.7272X5.9032*%
G04:AMPARAMS|DCode=94|XSize=1.6032mm|YSize=1.4032mm|CornerRadius=0.4016mm|HoleSize=0mm|Usage=FLASHONLY|Rotation=90.000|XOffset=0mm|YOffset=0mm|HoleType=Round|Shape=RoundedRectangle|*
%AMROUNDEDRECTD94*
21,1,1.6032,0.6000,0,0,90.0*
21,1,0.8000,1.4032,0,0,90.0*
1,1,0.8032,0.3000,0.4000*
1,1,0.8032,0.3000,-0.4000*
1,1,0.8032,-0.3000,-0.4000*
1,1,0.8032,-0.3000,0.4000*
%
%ADD94ROUNDEDRECTD94*%
%ADD95R,3.6332X1.0932*%
%ADD96R,1.2782X0.7032*%
%ADD97R,6.8032X2.1532*%
%ADD98R,0.8032X1.3032*%
G04:AMPARAMS|DCode=99|XSize=0.6532mm|YSize=1.8032mm|CornerRadius=0.1511mm|HoleSize=0mm|Usage=FLASHONLY|Rotation=180.000|XOffset=0mm|YOffset=0mm|HoleType=Round|Shape=RoundedRectangle|*
%AMROUNDEDRECTD99*
21,1,0.6532,1.5010,0,0,180.0*
21,1,0.3510,1.8032,0,0,180.0*
1,1,0.3022,-0.1755,0.7505*
1,1,0.3022,0.1755,0.7505*
1,1,0.3022,0.1755,-0.7505*
1,1,0.3022,-0.1755,-0.7505*
%
%ADD99ROUNDEDRECTD99*%
%ADD100O,2.2532X0.8032*%
%ADD101O,0.8032X2.2532*%
G04:AMPARAMS|DCode=102|XSize=0.8032mm|YSize=1.2032mm|CornerRadius=0.1526mm|HoleSize=0mm|Usage=FLASHONLY|Rotation=90.000|XOffset=0mm|YOffset=0mm|HoleType=Round|Shape=RoundedRectangle|*
%AMROUNDEDRECTD102*
21,1,0.8032,0.8980,0,0,90.0*
21,1,0.4980,1.2032,0,0,90.0*
1,1,0.3052,0.4490,0.2490*
1,1,0.3052,0.4490,-0.2490*
1,1,0.3052,-0.4490,-0.2490*
1,1,0.3052,-0.4490,0.2490*
%
%ADD102ROUNDEDRECTD102*%
%ADD103R,3.0032X1.3032*%
%ADD104R,1.7032X1.7032*%
%ADD105C,1.7032*%
%ADD106C,1.7532*%
%ADD107R,1.7532X1.7532*%
%ADD108C,0.7032*%
%ADD109R,1.7032X1.7032*%
%ADD110C,2.0032*%
%ADD111C,2.2032*%
%ADD112C,1.9032*%
%ADD113C,1.5240*%
%ADD114C,6.2032*%
%ADD115O,1.4112X2.6192*%
%ADD116C,1.3032*%
%ADD117C,2.8032*%
%ADD118R,1.7532X1.7532*%
%ADD119C,0.9032*%
D63*
X224250Y-630499D02*
D03*
Y-645499D02*
D03*
X247750Y-630499D02*
D03*
Y-645499D02*
D03*
D64*
X1043893Y-553683D02*
D03*
X1028893D02*
D03*
D65*
X671392Y-418998D02*
D03*
Y-399998D02*
D03*
D66*
X708049Y-507901D02*
D03*
X727049D02*
D03*
Y-490138D02*
D03*
X708049D02*
D03*
D67*
X1102000Y-582433D02*
D03*
X1122000D02*
D03*
X1166250Y-614183D02*
D03*
X1186250D02*
D03*
D68*
X1049269Y-343955D02*
D03*
X1032269D02*
D03*
X1137835Y-345225D02*
D03*
X1154835D02*
D03*
X1045459Y-435395D02*
D03*
X1028459D02*
D03*
X1134025Y-436665D02*
D03*
X1151025D02*
D03*
X115000Y-799684D02*
D03*
X132000D02*
D03*
X692750Y-654433D02*
D03*
X675750D02*
D03*
Y-592433D02*
D03*
X692750D02*
D03*
X735655Y-763032D02*
D03*
X752655D02*
D03*
X568570Y-760943D02*
D03*
X551570D02*
D03*
X105750Y-660534D02*
D03*
X122750D02*
D03*
X1042750Y-665683D02*
D03*
X1025750D02*
D03*
X1117111Y-723159D02*
D03*
X1134111D02*
D03*
X904630Y-775096D02*
D03*
X921630D02*
D03*
X441605Y-232057D02*
D03*
X458605D02*
D03*
X718135Y-232057D02*
D03*
X701135D02*
D03*
X645662Y-255893D02*
D03*
X628662D02*
D03*
X209750Y-824545D02*
D03*
X192750D02*
D03*
X282750Y-809182D02*
D03*
X299750D02*
D03*
X386133Y-255893D02*
D03*
X369132D02*
D03*
X675501Y-543951D02*
D03*
X692501D02*
D03*
X892407Y-118327D02*
D03*
X875407D02*
D03*
X989634Y-108110D02*
D03*
X1006634D02*
D03*
X1032660Y-328715D02*
D03*
X1049660D02*
D03*
X1155225Y-329985D02*
D03*
X1138225D02*
D03*
X1028459Y-213653D02*
D03*
X1045460D02*
D03*
X1151025Y-214923D02*
D03*
X1134025D02*
D03*
X1028459Y-452412D02*
D03*
X1045459D02*
D03*
X1151025Y-453682D02*
D03*
X1134025D02*
D03*
X84574Y-662741D02*
D03*
X67574D02*
D03*
X115000Y-816683D02*
D03*
X132000D02*
D03*
X115000Y-834433D02*
D03*
X132000D02*
D03*
X807330Y-755863D02*
D03*
X790330D02*
D03*
X431410Y-746974D02*
D03*
X414410D02*
D03*
X469020Y-674583D02*
D03*
X486020D02*
D03*
X375040Y-747500D02*
D03*
X392040D02*
D03*
X283250Y-793964D02*
D03*
X300250D02*
D03*
X1085000Y-632183D02*
D03*
X1068000D02*
D03*
X1025425Y-680683D02*
D03*
X1042425D02*
D03*
X1068000Y-618506D02*
D03*
X1085000D02*
D03*
X465145Y-198375D02*
D03*
X482145D02*
D03*
X741674Y-198375D02*
D03*
X724674D02*
D03*
X497402Y-198375D02*
D03*
X514403D02*
D03*
X773932Y-198375D02*
D03*
X756932D02*
D03*
X476190Y-214022D02*
D03*
X493190D02*
D03*
X752720Y-214022D02*
D03*
X735720D02*
D03*
X493500Y-247871D02*
D03*
X510500D02*
D03*
X770029Y-247871D02*
D03*
X753029D02*
D03*
X476190Y-230915D02*
D03*
X493190D02*
D03*
X752720Y-230915D02*
D03*
X735720D02*
D03*
X476680Y-247897D02*
D03*
X459680D02*
D03*
X719210Y-247897D02*
D03*
X736210D02*
D03*
X327966Y-198548D02*
D03*
X310966D02*
D03*
X570496Y-198548D02*
D03*
X587496D02*
D03*
X293393Y-197512D02*
D03*
X276394D02*
D03*
X535923Y-197512D02*
D03*
X552923D02*
D03*
X327966Y-215058D02*
D03*
X310966D02*
D03*
X570496Y-215058D02*
D03*
X587496D02*
D03*
X293393Y-247872D02*
D03*
X276394D02*
D03*
X535923Y-247872D02*
D03*
X552923D02*
D03*
X327966Y-231568D02*
D03*
X310966D02*
D03*
X327966Y-247896D02*
D03*
X310966D02*
D03*
X570496Y-247896D02*
D03*
X587496D02*
D03*
Y-231568D02*
D03*
X570496D02*
D03*
X891875Y-576810D02*
D03*
X874875D02*
D03*
X207000Y-663183D02*
D03*
X224000D02*
D03*
X248250Y-663433D02*
D03*
X265250D02*
D03*
X950437Y-105896D02*
D03*
X933437D02*
D03*
X875407Y-170143D02*
D03*
X892407D02*
D03*
X875407Y-148861D02*
D03*
X892407D02*
D03*
X875407Y-134043D02*
D03*
X892407D02*
D03*
X1006634Y-143473D02*
D03*
X989634D02*
D03*
X989634Y-123684D02*
D03*
X1006634D02*
D03*
D69*
X1067254Y-419003D02*
D03*
Y-402003D02*
D03*
X1172820Y-403273D02*
D03*
Y-420273D02*
D03*
X992324Y-452395D02*
D03*
Y-435395D02*
D03*
X1097890Y-436665D02*
D03*
Y-453665D02*
D03*
X63500Y-677816D02*
D03*
Y-694816D02*
D03*
X355600Y-778333D02*
D03*
Y-761333D02*
D03*
X31250Y-798933D02*
D03*
Y-815933D02*
D03*
X48500Y-798933D02*
D03*
Y-815933D02*
D03*
X154500Y-695066D02*
D03*
Y-678066D02*
D03*
X813596Y-544403D02*
D03*
Y-527403D02*
D03*
X1006250Y-739183D02*
D03*
Y-722183D02*
D03*
X1021225Y-722433D02*
D03*
Y-739433D02*
D03*
X513900Y-231412D02*
D03*
Y-214412D02*
D03*
X770030Y-215055D02*
D03*
Y-232055D02*
D03*
X442780Y-198374D02*
D03*
Y-215374D02*
D03*
X702310Y-215374D02*
D03*
Y-198374D02*
D03*
X343720Y-198374D02*
D03*
Y-215374D02*
D03*
X603250Y-215374D02*
D03*
Y-198374D02*
D03*
X293393Y-232058D02*
D03*
Y-215058D02*
D03*
X552923Y-215058D02*
D03*
Y-232057D02*
D03*
X343721Y-248394D02*
D03*
Y-231394D02*
D03*
X603251Y-231394D02*
D03*
Y-248394D02*
D03*
X222500Y-799433D02*
D03*
Y-782433D02*
D03*
X1153938Y-589183D02*
D03*
Y-572183D02*
D03*
X98500Y-808434D02*
D03*
Y-825434D02*
D03*
X956826Y-647740D02*
D03*
Y-664740D02*
D03*
X892749Y-488399D02*
D03*
Y-505399D02*
D03*
X424810Y-506086D02*
D03*
Y-489086D02*
D03*
X363133Y-583778D02*
D03*
Y-600779D02*
D03*
X729352Y-439633D02*
D03*
Y-422633D02*
D03*
X282000Y-594183D02*
D03*
Y-577183D02*
D03*
X346750Y-583779D02*
D03*
Y-600779D02*
D03*
X1117111Y-757183D02*
D03*
Y-740183D02*
D03*
X1016639Y-326565D02*
D03*
Y-343565D02*
D03*
X1122205Y-344835D02*
D03*
Y-327835D02*
D03*
X1010104Y-452395D02*
D03*
Y-435395D02*
D03*
X1115670Y-436665D02*
D03*
Y-453665D02*
D03*
X674370Y-793964D02*
D03*
Y-776964D02*
D03*
X58250Y-766933D02*
D03*
Y-783933D02*
D03*
X14000Y-815933D02*
D03*
Y-798933D02*
D03*
X49000Y-645683D02*
D03*
Y-662683D02*
D03*
X80500Y-677816D02*
D03*
Y-694816D02*
D03*
X65000Y-798933D02*
D03*
Y-815933D02*
D03*
X81250Y-815933D02*
D03*
Y-798933D02*
D03*
X139000Y-711433D02*
D03*
Y-728433D02*
D03*
X138500Y-694816D02*
D03*
Y-677816D02*
D03*
X147074Y-799683D02*
D03*
Y-816683D02*
D03*
X122750Y-677816D02*
D03*
Y-694816D02*
D03*
X105750Y-694816D02*
D03*
Y-677816D02*
D03*
X656250Y-590686D02*
D03*
Y-573686D02*
D03*
X640324Y-573683D02*
D03*
Y-590683D02*
D03*
X675750Y-576824D02*
D03*
Y-559823D02*
D03*
X624750Y-573683D02*
D03*
Y-590683D02*
D03*
X586000Y-614944D02*
D03*
Y-631944D02*
D03*
X830900Y-527403D02*
D03*
Y-544403D02*
D03*
X238250Y-782433D02*
D03*
Y-799433D02*
D03*
X415732Y-144562D02*
D03*
Y-161562D02*
D03*
X675262Y-161562D02*
D03*
Y-144563D02*
D03*
X363662Y-161562D02*
D03*
Y-144562D02*
D03*
X623192Y-144562D02*
D03*
Y-161562D02*
D03*
X918208Y-600778D02*
D03*
Y-583778D02*
D03*
X877583Y-647740D02*
D03*
Y-664740D02*
D03*
X1042425Y-581242D02*
D03*
Y-598242D02*
D03*
X654723Y-402592D02*
D03*
Y-419592D02*
D03*
X608000Y-415933D02*
D03*
Y-398933D02*
D03*
X403000Y-575000D02*
D03*
Y-558000D02*
D03*
X254750Y-799683D02*
D03*
Y-782683D02*
D03*
X1130191Y-182453D02*
D03*
Y-165453D02*
D03*
X1049573Y-47423D02*
D03*
Y-64423D02*
D03*
X990131Y-178643D02*
D03*
Y-161643D02*
D03*
X1006634Y-178643D02*
D03*
Y-161643D02*
D03*
X592425Y-415933D02*
D03*
Y-398933D02*
D03*
X639149Y-402592D02*
D03*
Y-419592D02*
D03*
X623574Y-415933D02*
D03*
Y-398933D02*
D03*
X220980Y-281425D02*
D03*
Y-298425D02*
D03*
X713400Y-637500D02*
D03*
Y-654500D02*
D03*
X1010604Y-598242D02*
D03*
Y-581243D02*
D03*
D70*
X249174Y-142494D02*
D03*
X24384Y-899922D02*
D03*
X1177544Y-907034D02*
D03*
D71*
X31380Y-270723D02*
D03*
X80380D02*
D03*
D72*
X822303Y-109610D02*
D03*
Y-162111D02*
D03*
X1046934Y-242784D02*
D03*
Y-295283D02*
D03*
X1152500Y-296553D02*
D03*
Y-244054D02*
D03*
X161290Y-251141D02*
D03*
Y-303641D02*
D03*
X731260Y-163933D02*
D03*
Y-111433D02*
D03*
X567312Y-163933D02*
D03*
Y-111433D02*
D03*
X157589Y-584433D02*
D03*
Y-531933D02*
D03*
X157251Y-402518D02*
D03*
Y-455018D02*
D03*
X471730Y-163933D02*
D03*
Y-111433D02*
D03*
X307782Y-163933D02*
D03*
Y-111433D02*
D03*
X269472Y-280262D02*
D03*
Y-332762D02*
D03*
D73*
X586000Y-583433D02*
D03*
D74*
X892320Y-542463D02*
D03*
Y-537463D02*
D03*
Y-532463D02*
D03*
Y-527463D02*
D03*
X860320Y-542463D02*
D03*
Y-537463D02*
D03*
Y-532463D02*
D03*
Y-527463D02*
D03*
D75*
X883906Y-611433D02*
D03*
X902906D02*
D03*
X893406Y-591434D02*
D03*
D76*
X116050Y-183093D02*
D03*
X184550D02*
D03*
D77*
X219790Y-128433D02*
D03*
X209790D02*
D03*
X195290D02*
D03*
X180790D02*
D03*
X170790D02*
D03*
D78*
X521086Y-308002D02*
D03*
X468586D02*
D03*
X360404Y-308003D02*
D03*
X412904D02*
D03*
X28750Y-590683D02*
D03*
X81250D02*
D03*
X684950Y-308002D02*
D03*
X737450D02*
D03*
X629268Y-308003D02*
D03*
X576768D02*
D03*
X82250Y-410933D02*
D03*
X29750D02*
D03*
X916861Y-244419D02*
D03*
X969361D02*
D03*
D79*
X418800Y-239422D02*
D03*
Y-226722D02*
D03*
Y-214022D02*
D03*
Y-201322D02*
D03*
X370800Y-239422D02*
D03*
Y-226722D02*
D03*
Y-214022D02*
D03*
Y-201322D02*
D03*
X630329D02*
D03*
Y-214022D02*
D03*
Y-226722D02*
D03*
Y-239422D02*
D03*
X678330Y-201322D02*
D03*
Y-214022D02*
D03*
Y-226722D02*
D03*
Y-239422D02*
D03*
X963861Y-160910D02*
D03*
Y-148210D02*
D03*
Y-135510D02*
D03*
Y-122810D02*
D03*
X915861Y-160910D02*
D03*
Y-148210D02*
D03*
Y-135510D02*
D03*
Y-122810D02*
D03*
D80*
X1072032Y-329463D02*
D03*
Y-359464D02*
D03*
X1068524Y-466143D02*
D03*
Y-436143D02*
D03*
X1177598Y-360733D02*
D03*
Y-330733D02*
D03*
X1174090Y-437413D02*
D03*
Y-467413D02*
D03*
X415732Y-96433D02*
D03*
Y-126433D02*
D03*
X675262Y-96433D02*
D03*
Y-126433D02*
D03*
X363662Y-96433D02*
D03*
Y-126433D02*
D03*
X623192Y-96433D02*
D03*
Y-126433D02*
D03*
D81*
X1009799Y-413675D02*
D03*
X1022499D02*
D03*
X1035199D02*
D03*
X1047899D02*
D03*
X1009799Y-365675D02*
D03*
X1022499D02*
D03*
X1035199D02*
D03*
X1047899D02*
D03*
X1153465Y-366945D02*
D03*
X1140765D02*
D03*
X1128065D02*
D03*
X1115365D02*
D03*
X1153465Y-414945D02*
D03*
X1140765D02*
D03*
X1128065D02*
D03*
X1115365D02*
D03*
D82*
X651250Y-633933D02*
D03*
Y-628933D02*
D03*
Y-623933D02*
D03*
Y-618933D02*
D03*
Y-613933D02*
D03*
X610750Y-633933D02*
D03*
Y-628933D02*
D03*
Y-623933D02*
D03*
Y-618933D02*
D03*
Y-613933D02*
D03*
D83*
X1133750Y-523683D02*
D03*
X1174750D02*
D03*
D84*
X1012500Y-636698D02*
D03*
X1042500D02*
D03*
X51786Y-305013D02*
D03*
X81786D02*
D03*
D85*
X1114000Y-617183D02*
D03*
D86*
X1104500Y-601933D02*
D03*
X1114000D02*
D03*
X1123500D02*
D03*
Y-632433D02*
D03*
X1114000D02*
D03*
X1104500D02*
D03*
D87*
X368383Y-824170D02*
D03*
X374883D02*
D03*
X381383D02*
D03*
X387884D02*
D03*
X394383D02*
D03*
X400883D02*
D03*
X407383D02*
D03*
X413884D02*
D03*
X368383Y-765170D02*
D03*
X374883D02*
D03*
X381383D02*
D03*
X387884D02*
D03*
X394383D02*
D03*
X400883D02*
D03*
X407383D02*
D03*
X413884D02*
D03*
D88*
X511520Y-774295D02*
D03*
Y-780795D02*
D03*
Y-787295D02*
D03*
Y-793795D02*
D03*
Y-800295D02*
D03*
Y-806795D02*
D03*
Y-813295D02*
D03*
Y-819795D02*
D03*
X570520Y-774295D02*
D03*
Y-780795D02*
D03*
Y-787295D02*
D03*
Y-793795D02*
D03*
Y-800295D02*
D03*
Y-806795D02*
D03*
Y-813295D02*
D03*
Y-819795D02*
D03*
X693130Y-774295D02*
D03*
Y-787295D02*
D03*
Y-813295D02*
D03*
Y-806795D02*
D03*
Y-800295D02*
D03*
Y-793795D02*
D03*
Y-780795D02*
D03*
Y-819795D02*
D03*
X752130Y-774295D02*
D03*
Y-780795D02*
D03*
Y-787295D02*
D03*
Y-793795D02*
D03*
Y-800295D02*
D03*
Y-806795D02*
D03*
Y-813295D02*
D03*
Y-819795D02*
D03*
X886071D02*
D03*
Y-813295D02*
D03*
Y-806795D02*
D03*
Y-800295D02*
D03*
Y-793795D02*
D03*
Y-787295D02*
D03*
Y-780795D02*
D03*
Y-774295D02*
D03*
X827071Y-819795D02*
D03*
Y-813295D02*
D03*
Y-806795D02*
D03*
Y-800295D02*
D03*
Y-793795D02*
D03*
Y-787295D02*
D03*
Y-780795D02*
D03*
Y-774295D02*
D03*
D89*
X1092500Y-759233D02*
D03*
Y-746533D02*
D03*
Y-733833D02*
D03*
Y-721133D02*
D03*
X1043500Y-759233D02*
D03*
Y-746533D02*
D03*
Y-733833D02*
D03*
Y-721133D02*
D03*
D90*
X634441Y-438151D02*
D03*
X629441D02*
D03*
X624441D02*
D03*
X619441D02*
D03*
X614441D02*
D03*
X609441D02*
D03*
X604441D02*
D03*
X599441D02*
D03*
X594441D02*
D03*
X589441D02*
D03*
X584441D02*
D03*
X579441D02*
D03*
X574441D02*
D03*
X569442D02*
D03*
X564441D02*
D03*
X559442D02*
D03*
Y-552650D02*
D03*
X564441D02*
D03*
X569442D02*
D03*
X574441D02*
D03*
X579441D02*
D03*
X584441D02*
D03*
X589441D02*
D03*
X594441D02*
D03*
X599441D02*
D03*
X604441D02*
D03*
X609441D02*
D03*
X614441D02*
D03*
X619441D02*
D03*
X624441D02*
D03*
X629441D02*
D03*
X634441D02*
D03*
D91*
X539692Y-457901D02*
D03*
Y-462901D02*
D03*
Y-467901D02*
D03*
Y-472901D02*
D03*
Y-477901D02*
D03*
Y-482900D02*
D03*
Y-487901D02*
D03*
Y-492900D02*
D03*
Y-497901D02*
D03*
Y-502900D02*
D03*
Y-507901D02*
D03*
Y-512900D02*
D03*
Y-517901D02*
D03*
Y-522900D02*
D03*
Y-527901D02*
D03*
Y-532900D02*
D03*
X654191D02*
D03*
Y-527901D02*
D03*
Y-522900D02*
D03*
Y-517901D02*
D03*
Y-512900D02*
D03*
Y-507901D02*
D03*
Y-502900D02*
D03*
Y-497901D02*
D03*
Y-492900D02*
D03*
Y-487901D02*
D03*
Y-482900D02*
D03*
Y-477901D02*
D03*
Y-472901D02*
D03*
Y-467901D02*
D03*
Y-462901D02*
D03*
Y-457901D02*
D03*
D92*
X596942Y-495401D02*
D03*
D93*
X1089120Y-669683D02*
D03*
X1137380D02*
D03*
D94*
X675750Y-633492D02*
D03*
Y-611492D02*
D03*
X692750D02*
D03*
Y-633492D02*
D03*
D95*
X1137125Y-834380D02*
D03*
Y-787880D02*
D03*
D96*
X236130Y-825433D02*
D03*
X259370D02*
D03*
D97*
X51500Y-238183D02*
D03*
Y-169683D02*
D03*
D98*
X709294Y-413933D02*
D03*
X699794D02*
D03*
X690294D02*
D03*
Y-437933D02*
D03*
X709294D02*
D03*
D99*
X118617Y-716624D02*
D03*
X112117D02*
D03*
X105617D02*
D03*
X99117D02*
D03*
X92617D02*
D03*
X86117D02*
D03*
X79617D02*
D03*
X118617Y-777625D02*
D03*
X112117D02*
D03*
X105617D02*
D03*
X99117D02*
D03*
X92617D02*
D03*
X86117D02*
D03*
X79617D02*
D03*
D100*
X286691Y-452433D02*
D03*
Y-460433D02*
D03*
Y-468433D02*
D03*
Y-476433D02*
D03*
Y-484433D02*
D03*
Y-492433D02*
D03*
Y-500433D02*
D03*
Y-508433D02*
D03*
Y-516433D02*
D03*
Y-524433D02*
D03*
Y-532433D02*
D03*
X400692D02*
D03*
Y-524433D02*
D03*
Y-516433D02*
D03*
Y-508433D02*
D03*
Y-500433D02*
D03*
Y-492433D02*
D03*
Y-484433D02*
D03*
Y-476433D02*
D03*
Y-468433D02*
D03*
Y-460433D02*
D03*
Y-452433D02*
D03*
D101*
X303692Y-549433D02*
D03*
X311691D02*
D03*
X319692D02*
D03*
X327691D02*
D03*
X335691D02*
D03*
X343691D02*
D03*
X351691D02*
D03*
X359691D02*
D03*
X367691D02*
D03*
X375691D02*
D03*
X383691D02*
D03*
Y-435433D02*
D03*
X375691D02*
D03*
X367691D02*
D03*
X359691D02*
D03*
X351691D02*
D03*
X343691D02*
D03*
X335691D02*
D03*
X327691D02*
D03*
X319692D02*
D03*
X311691D02*
D03*
X303692D02*
D03*
D102*
X328250Y-587183D02*
D03*
Y-606183D02*
D03*
X300750D02*
D03*
Y-596683D02*
D03*
Y-587183D02*
D03*
D103*
X1098500Y-788308D02*
D03*
Y-818308D02*
D03*
D104*
X765750Y-699933D02*
D03*
X546700Y-888230D02*
D03*
X1135700D02*
D03*
D105*
X740350Y-699933D02*
D03*
X714950D02*
D03*
X689550D02*
D03*
X664150D02*
D03*
X638750D02*
D03*
X613350D02*
D03*
X587950D02*
D03*
X562550D02*
D03*
X537150D02*
D03*
X511750D02*
D03*
X486350D02*
D03*
X460950D02*
D03*
X435550D02*
D03*
X410150D02*
D03*
X384750D02*
D03*
X359350D02*
D03*
X333950D02*
D03*
X308550D02*
D03*
X283150D02*
D03*
X765750Y-725333D02*
D03*
X740350D02*
D03*
X714950D02*
D03*
X689550D02*
D03*
X664150D02*
D03*
X638750D02*
D03*
X613350D02*
D03*
X587950D02*
D03*
X562550D02*
D03*
X537150D02*
D03*
X511750D02*
D03*
X486350D02*
D03*
X460950D02*
D03*
X435550D02*
D03*
X410150D02*
D03*
X384750D02*
D03*
X359350D02*
D03*
X333950D02*
D03*
X308550D02*
D03*
X283150D02*
D03*
X521300Y-888230D02*
D03*
X495900D02*
D03*
X470500D02*
D03*
X445100D02*
D03*
X419700D02*
D03*
X394300D02*
D03*
X368900D02*
D03*
X343500D02*
D03*
X318100D02*
D03*
X292700D02*
D03*
X267300D02*
D03*
X241900D02*
D03*
X216500D02*
D03*
X191100D02*
D03*
X165700D02*
D03*
X140300D02*
D03*
X114900D02*
D03*
X89500D02*
D03*
X64100D02*
D03*
X546700Y-913630D02*
D03*
X521300D02*
D03*
X495900D02*
D03*
X470500D02*
D03*
X445100D02*
D03*
X419700D02*
D03*
X394300D02*
D03*
X368900D02*
D03*
X343500D02*
D03*
X318100D02*
D03*
X292700D02*
D03*
X267300D02*
D03*
X241900D02*
D03*
X216500D02*
D03*
X191100D02*
D03*
X165700D02*
D03*
X140300D02*
D03*
X114900D02*
D03*
X89500D02*
D03*
X64100D02*
D03*
X1110300Y-888230D02*
D03*
X1084900D02*
D03*
X1059500D02*
D03*
X1034100D02*
D03*
X1008700D02*
D03*
X983300D02*
D03*
X957900D02*
D03*
X932500D02*
D03*
X907100D02*
D03*
X881700D02*
D03*
X856300D02*
D03*
X830900D02*
D03*
X805500D02*
D03*
X780100D02*
D03*
X754700D02*
D03*
X729300D02*
D03*
X703900D02*
D03*
X678500D02*
D03*
X653100D02*
D03*
X1135700Y-913630D02*
D03*
X1110300D02*
D03*
X1084900D02*
D03*
X1059500D02*
D03*
X1034100D02*
D03*
X1008700D02*
D03*
X983300D02*
D03*
X957900D02*
D03*
X932500D02*
D03*
X907100D02*
D03*
X881700D02*
D03*
X856300D02*
D03*
X830900D02*
D03*
X805500D02*
D03*
X780100D02*
D03*
X754700D02*
D03*
X729300D02*
D03*
X703900D02*
D03*
X678500D02*
D03*
X653100D02*
D03*
X1178000Y-837400D02*
D03*
X417650Y-630683D02*
D03*
X392250Y-633683D02*
D03*
X366850Y-630683D02*
D03*
X341450Y-633683D02*
D03*
X316050Y-630683D02*
D03*
D106*
X914130Y-17433D02*
D03*
Y-42833D02*
D03*
X939530D02*
D03*
Y-17433D02*
D03*
X888730D02*
D03*
Y-42833D02*
D03*
X837930D02*
D03*
X863330D02*
D03*
X837930Y-17433D02*
D03*
X863330D02*
D03*
X812530D02*
D03*
Y-42833D02*
D03*
X761730Y-17433D02*
D03*
X736330D02*
D03*
X710930D02*
D03*
X761730Y-42833D02*
D03*
X736330D02*
D03*
X787130D02*
D03*
Y-17433D02*
D03*
X964930Y-42833D02*
D03*
Y-17433D02*
D03*
X1015730D02*
D03*
Y-42833D02*
D03*
X990330D02*
D03*
Y-17433D02*
D03*
X397557Y-42833D02*
D03*
Y-17433D02*
D03*
X372157D02*
D03*
Y-42833D02*
D03*
X422957D02*
D03*
Y-17433D02*
D03*
X473757D02*
D03*
X448357D02*
D03*
X473757Y-42833D02*
D03*
X448357D02*
D03*
X499157D02*
D03*
Y-17433D02*
D03*
X549957Y-42833D02*
D03*
X575357D02*
D03*
X600757D02*
D03*
X549957Y-17433D02*
D03*
X575357D02*
D03*
X524557D02*
D03*
Y-42833D02*
D03*
X346757Y-17433D02*
D03*
Y-42833D02*
D03*
X295957D02*
D03*
Y-17433D02*
D03*
X321357D02*
D03*
Y-42833D02*
D03*
X828258Y-598524D02*
D03*
Y-573124D02*
D03*
X802858Y-623924D02*
D03*
Y-598524D02*
D03*
Y-573124D02*
D03*
X827700Y-467213D02*
D03*
Y-441813D02*
D03*
X802300Y-492613D02*
D03*
Y-467213D02*
D03*
Y-441813D02*
D03*
X222299Y-540326D02*
D03*
Y-565726D02*
D03*
X247700Y-514926D02*
D03*
Y-540326D02*
D03*
Y-565726D02*
D03*
X247700Y-404492D02*
D03*
Y-379092D02*
D03*
X222300Y-429892D02*
D03*
Y-404492D02*
D03*
Y-379092D02*
D03*
X827550Y-344933D02*
D03*
Y-319533D02*
D03*
X802150Y-370333D02*
D03*
Y-344933D02*
D03*
Y-319533D02*
D03*
D107*
X710930Y-42833D02*
D03*
X600757Y-17433D02*
D03*
D108*
X1202000Y-832738D02*
D03*
Y-846738D02*
D03*
Y-839738D02*
D03*
Y-860738D02*
D03*
Y-867738D02*
D03*
Y-853738D02*
D03*
Y-895738D02*
D03*
Y-909737D02*
D03*
Y-902738D02*
D03*
Y-881738D02*
D03*
Y-888738D02*
D03*
Y-874738D02*
D03*
Y-923730D02*
D03*
Y-930730D02*
D03*
Y-916730D02*
D03*
Y-5027D02*
D03*
Y-19027D02*
D03*
Y-12027D02*
D03*
Y-33027D02*
D03*
Y-40027D02*
D03*
Y-26027D02*
D03*
Y-68027D02*
D03*
Y-82027D02*
D03*
Y-75027D02*
D03*
Y-54027D02*
D03*
Y-61027D02*
D03*
Y-47027D02*
D03*
Y-96020D02*
D03*
Y-103020D02*
D03*
Y-89020D02*
D03*
X-2000Y-4310D02*
D03*
Y-18310D02*
D03*
Y-11310D02*
D03*
Y-32310D02*
D03*
Y-39310D02*
D03*
Y-25310D02*
D03*
Y-67310D02*
D03*
Y-81310D02*
D03*
Y-74310D02*
D03*
Y-53310D02*
D03*
Y-60310D02*
D03*
Y-46310D02*
D03*
Y-95303D02*
D03*
Y-102303D02*
D03*
Y-88303D02*
D03*
Y-916303D02*
D03*
Y-930303D02*
D03*
Y-923303D02*
D03*
Y-874310D02*
D03*
Y-888310D02*
D03*
Y-881310D02*
D03*
Y-902310D02*
D03*
Y-909310D02*
D03*
Y-895310D02*
D03*
Y-853310D02*
D03*
Y-867310D02*
D03*
Y-860310D02*
D03*
Y-839310D02*
D03*
Y-846310D02*
D03*
Y-832310D02*
D03*
D109*
X1178000Y-812000D02*
D03*
X290650Y-633683D02*
D03*
D110*
X1065984Y-524406D02*
D03*
X1034994Y-524473D02*
D03*
X1172000Y-762183D02*
D03*
X977000Y-724183D02*
D03*
X1024571Y-821433D02*
D03*
X1065984Y-553683D02*
D03*
X1095500Y-524406D02*
D03*
X715940Y-377154D02*
D03*
X448000Y-583269D02*
D03*
X1095500Y-553683D02*
D03*
D111*
X115538Y-14392D02*
D03*
X15538D02*
D03*
D112*
X105538Y-114392D02*
D03*
X85538D02*
D03*
X65538D02*
D03*
X45538D02*
D03*
X25538D02*
D03*
D113*
X1181250Y-724112D02*
D03*
X657579Y-21500D02*
D03*
X18750Y-757433D02*
D03*
X600500Y-905000D02*
D03*
D114*
X-40000Y-53750D02*
D03*
X1240000Y-53731D02*
D03*
X-40000Y-881183D02*
D03*
X1240000Y-881146D02*
D03*
X815000Y-222433D02*
D03*
X235000D02*
D03*
X815000Y-712433D02*
D03*
X235000D02*
D03*
D115*
X232790Y-21433D02*
D03*
X157790D02*
D03*
D116*
X195290Y-22433D02*
D03*
Y-82433D02*
D03*
D117*
X1130500Y-21433D02*
D03*
X1182500Y-99433D02*
D03*
X1155500Y-85433D02*
D03*
X1090500Y-131433D02*
D03*
X1085500Y-55433D02*
D03*
D118*
X828258Y-623924D02*
D03*
X827700Y-492613D02*
D03*
X222299Y-514926D02*
D03*
X247700Y-429892D02*
D03*
X827550Y-370333D02*
D03*
D119*
X546995Y-619903D02*
D03*
X388788Y-567343D02*
D03*
X654723Y-393367D02*
D03*
M02*
