G04*
G04 #@! TF.GenerationSoftware,Altium Limited,Altium Designer,19.0.15 (446)*
G04*
G04 Layer_Color=8421504*
%FSLAX44Y44*%
%MOMM*%
G71*
G01*
G75*
%ADD23R,1.0000X1.0500*%
%ADD24R,1.0500X1.0000*%
%ADD25R,1.2000X1.0000*%
%ADD26R,1.0000X1.2000*%
%ADD27R,1.0000X1.4000*%
%ADD28R,1.0000X1.1000*%
%ADD29R,1.1000X1.0000*%
%ADD30R,1.8000X2.3000*%
%ADD31R,1.8500X3.4000*%
%ADD32C,0.5000*%
%ADD33O,0.8000X0.3000*%
%ADD34R,0.8000X0.9000*%
%ADD35R,1.9500X6.6000*%
%ADD36R,0.7000X1.2000*%
%ADD37R,3.4000X1.8500*%
%ADD38O,2.2000X0.6000*%
%ADD39R,1.8000X1.1000*%
%ADD40O,0.6000X2.2000*%
%ADD41O,1.4000X0.3000*%
%ADD42R,3.0000X1.6000*%
%ADD43R,1.1000X2.8000*%
%ADD44R,2.4000X1.6500*%
%ADD45O,0.4000X0.9000*%
%ADD46O,0.4500X1.4000*%
%ADD47O,1.4000X0.4500*%
%ADD48O,2.5000X0.7000*%
%ADD49R,0.3000X1.4500*%
%ADD50R,1.4500X0.3000*%
%ADD51R,7.0000X7.6200*%
%ADD52R,1.5240X5.7000*%
G04:AMPARAMS|DCode=53|XSize=1.4mm|YSize=1.2mm|CornerRadius=0.3mm|HoleSize=0mm|Usage=FLASHONLY|Rotation=90.000|XOffset=0mm|YOffset=0mm|HoleType=Round|Shape=RoundedRectangle|*
%AMROUNDEDRECTD53*
21,1,1.4000,0.6000,0,0,90.0*
21,1,0.8000,1.2000,0,0,90.0*
1,1,0.6000,0.3000,0.4000*
1,1,0.6000,0.3000,-0.4000*
1,1,0.6000,-0.3000,-0.4000*
1,1,0.6000,-0.3000,0.4000*
%
%ADD53ROUNDEDRECTD53*%
%ADD54R,3.4300X0.8900*%
%ADD55R,1.0750X0.5000*%
%ADD56R,6.6000X1.9500*%
%ADD57R,0.6000X1.1000*%
G04:AMPARAMS|DCode=58|XSize=0.45mm|YSize=1.6mm|CornerRadius=0.0495mm|HoleSize=0mm|Usage=FLASHONLY|Rotation=180.000|XOffset=0mm|YOffset=0mm|HoleType=Round|Shape=RoundedRectangle|*
%AMROUNDEDRECTD58*
21,1,0.4500,1.5010,0,0,180.0*
21,1,0.3510,1.6000,0,0,180.0*
1,1,0.0990,-0.1755,0.7505*
1,1,0.0990,0.1755,0.7505*
1,1,0.0990,0.1755,-0.7505*
1,1,0.0990,-0.1755,-0.7505*
%
%ADD58ROUNDEDRECTD58*%
%ADD59O,2.0500X0.6000*%
%ADD60O,0.6000X2.0500*%
G04:AMPARAMS|DCode=61|XSize=0.6mm|YSize=1mm|CornerRadius=0.051mm|HoleSize=0mm|Usage=FLASHONLY|Rotation=90.000|XOffset=0mm|YOffset=0mm|HoleType=Round|Shape=RoundedRectangle|*
%AMROUNDEDRECTD61*
21,1,0.6000,0.8980,0,0,90.0*
21,1,0.4980,1.0000,0,0,90.0*
1,1,0.1020,0.4490,0.2490*
1,1,0.1020,0.4490,-0.2490*
1,1,0.1020,-0.4490,-0.2490*
1,1,0.1020,-0.4490,0.2490*
%
%ADD61ROUNDEDRECTD61*%
%ADD62R,2.8000X1.1000*%
D23*
X224250Y-630499D02*
D03*
Y-645499D02*
D03*
X247750Y-630499D02*
D03*
Y-645499D02*
D03*
D24*
X1043893Y-553683D02*
D03*
X1028893D02*
D03*
D25*
X671392Y-418998D02*
D03*
Y-399998D02*
D03*
D26*
X708049Y-507901D02*
D03*
X727049D02*
D03*
Y-490138D02*
D03*
X708049D02*
D03*
D27*
X1102000Y-582433D02*
D03*
X1122000D02*
D03*
X1166250Y-614183D02*
D03*
X1186250D02*
D03*
D28*
X1049269Y-343955D02*
D03*
X1032269D02*
D03*
X1137835Y-345225D02*
D03*
X1154835D02*
D03*
X1045459Y-435395D02*
D03*
X1028459D02*
D03*
X1134025Y-436665D02*
D03*
X1151025D02*
D03*
X115000Y-799684D02*
D03*
X132000D02*
D03*
X692750Y-654433D02*
D03*
X675750D02*
D03*
Y-592433D02*
D03*
X692750D02*
D03*
X735655Y-763032D02*
D03*
X752655D02*
D03*
X568570Y-760943D02*
D03*
X551570D02*
D03*
X105750Y-660534D02*
D03*
X122750D02*
D03*
X1042750Y-665683D02*
D03*
X1025750D02*
D03*
X1117111Y-723159D02*
D03*
X1134111D02*
D03*
X904630Y-775096D02*
D03*
X921630D02*
D03*
X441605Y-232057D02*
D03*
X458605D02*
D03*
X718135Y-232057D02*
D03*
X701135D02*
D03*
X645662Y-255893D02*
D03*
X628662D02*
D03*
X209750Y-824545D02*
D03*
X192750D02*
D03*
X282750Y-809182D02*
D03*
X299750D02*
D03*
X386133Y-255893D02*
D03*
X369132D02*
D03*
X675501Y-543951D02*
D03*
X692501D02*
D03*
X892407Y-118327D02*
D03*
X875407D02*
D03*
X989634Y-108110D02*
D03*
X1006634D02*
D03*
X1032660Y-328715D02*
D03*
X1049660D02*
D03*
X1155225Y-329985D02*
D03*
X1138225D02*
D03*
X1028459Y-213653D02*
D03*
X1045460D02*
D03*
X1151025Y-214923D02*
D03*
X1134025D02*
D03*
X1028459Y-452412D02*
D03*
X1045459D02*
D03*
X1151025Y-453682D02*
D03*
X1134025D02*
D03*
X84574Y-662741D02*
D03*
X67574D02*
D03*
X115000Y-816683D02*
D03*
X132000D02*
D03*
X115000Y-834433D02*
D03*
X132000D02*
D03*
X807330Y-755863D02*
D03*
X790330D02*
D03*
X431410Y-746974D02*
D03*
X414410D02*
D03*
X469020Y-674583D02*
D03*
X486020D02*
D03*
X375040Y-747500D02*
D03*
X392040D02*
D03*
X283250Y-793964D02*
D03*
X300250D02*
D03*
X1085000Y-632183D02*
D03*
X1068000D02*
D03*
X1025425Y-680683D02*
D03*
X1042425D02*
D03*
X1068000Y-618506D02*
D03*
X1085000D02*
D03*
X465145Y-198375D02*
D03*
X482145D02*
D03*
X741674Y-198375D02*
D03*
X724674D02*
D03*
X497402Y-198375D02*
D03*
X514403D02*
D03*
X773932Y-198375D02*
D03*
X756932D02*
D03*
X476190Y-214022D02*
D03*
X493190D02*
D03*
X752720Y-214022D02*
D03*
X735720D02*
D03*
X493500Y-247871D02*
D03*
X510500D02*
D03*
X770029Y-247871D02*
D03*
X753029D02*
D03*
X476190Y-230915D02*
D03*
X493190D02*
D03*
X752720Y-230915D02*
D03*
X735720D02*
D03*
X476680Y-247897D02*
D03*
X459680D02*
D03*
X719210Y-247897D02*
D03*
X736210D02*
D03*
X327966Y-198548D02*
D03*
X310966D02*
D03*
X570496Y-198548D02*
D03*
X587496D02*
D03*
X293393Y-197512D02*
D03*
X276394D02*
D03*
X535923Y-197512D02*
D03*
X552923D02*
D03*
X327966Y-215058D02*
D03*
X310966D02*
D03*
X570496Y-215058D02*
D03*
X587496D02*
D03*
X293393Y-247872D02*
D03*
X276394D02*
D03*
X535923Y-247872D02*
D03*
X552923D02*
D03*
X327966Y-231568D02*
D03*
X310966D02*
D03*
X327966Y-247896D02*
D03*
X310966D02*
D03*
X570496Y-247896D02*
D03*
X587496D02*
D03*
Y-231568D02*
D03*
X570496D02*
D03*
X891875Y-576810D02*
D03*
X874875D02*
D03*
X207000Y-663183D02*
D03*
X224000D02*
D03*
X248250Y-663433D02*
D03*
X265250D02*
D03*
X950437Y-105896D02*
D03*
X933437D02*
D03*
X875407Y-170143D02*
D03*
X892407D02*
D03*
X875407Y-148861D02*
D03*
X892407D02*
D03*
X875407Y-134043D02*
D03*
X892407D02*
D03*
X1006634Y-143473D02*
D03*
X989634D02*
D03*
X989634Y-123684D02*
D03*
X1006634D02*
D03*
D29*
X1067254Y-419003D02*
D03*
Y-402003D02*
D03*
X1172820Y-403273D02*
D03*
Y-420273D02*
D03*
X992324Y-452395D02*
D03*
Y-435395D02*
D03*
X1097890Y-436665D02*
D03*
Y-453665D02*
D03*
X63500Y-677816D02*
D03*
Y-694816D02*
D03*
X355600Y-778333D02*
D03*
Y-761333D02*
D03*
X31250Y-798933D02*
D03*
Y-815933D02*
D03*
X48500Y-798933D02*
D03*
Y-815933D02*
D03*
X154500Y-695066D02*
D03*
Y-678066D02*
D03*
X813596Y-544403D02*
D03*
Y-527403D02*
D03*
X1006250Y-739183D02*
D03*
Y-722183D02*
D03*
X1021225Y-722433D02*
D03*
Y-739433D02*
D03*
X513900Y-231412D02*
D03*
Y-214412D02*
D03*
X770030Y-215055D02*
D03*
Y-232055D02*
D03*
X442780Y-198374D02*
D03*
Y-215374D02*
D03*
X702310Y-215374D02*
D03*
Y-198374D02*
D03*
X343720Y-198374D02*
D03*
Y-215374D02*
D03*
X603250Y-215374D02*
D03*
Y-198374D02*
D03*
X293393Y-232058D02*
D03*
Y-215058D02*
D03*
X552923Y-215058D02*
D03*
Y-232057D02*
D03*
X343721Y-248394D02*
D03*
Y-231394D02*
D03*
X603251Y-231394D02*
D03*
Y-248394D02*
D03*
X222500Y-799433D02*
D03*
Y-782433D02*
D03*
X1153938Y-589183D02*
D03*
Y-572183D02*
D03*
X98500Y-808434D02*
D03*
Y-825434D02*
D03*
X956826Y-647740D02*
D03*
Y-664740D02*
D03*
X892749Y-488399D02*
D03*
Y-505399D02*
D03*
X424810Y-506086D02*
D03*
Y-489086D02*
D03*
X363133Y-583778D02*
D03*
Y-600779D02*
D03*
X729352Y-439633D02*
D03*
Y-422633D02*
D03*
X282000Y-594183D02*
D03*
Y-577183D02*
D03*
X346750Y-583779D02*
D03*
Y-600779D02*
D03*
X1117111Y-757183D02*
D03*
Y-740183D02*
D03*
X1016639Y-326565D02*
D03*
Y-343565D02*
D03*
X1122205Y-344835D02*
D03*
Y-327835D02*
D03*
X1010104Y-452395D02*
D03*
Y-435395D02*
D03*
X1115670Y-436665D02*
D03*
Y-453665D02*
D03*
X674370Y-793964D02*
D03*
Y-776964D02*
D03*
X58250Y-766933D02*
D03*
Y-783933D02*
D03*
X14000Y-815933D02*
D03*
Y-798933D02*
D03*
X49000Y-645683D02*
D03*
Y-662683D02*
D03*
X80500Y-677816D02*
D03*
Y-694816D02*
D03*
X65000Y-798933D02*
D03*
Y-815933D02*
D03*
X81250Y-815933D02*
D03*
Y-798933D02*
D03*
X139000Y-711433D02*
D03*
Y-728433D02*
D03*
X138500Y-694816D02*
D03*
Y-677816D02*
D03*
X147074Y-799683D02*
D03*
Y-816683D02*
D03*
X122750Y-677816D02*
D03*
Y-694816D02*
D03*
X105750Y-694816D02*
D03*
Y-677816D02*
D03*
X656250Y-590686D02*
D03*
Y-573686D02*
D03*
X640324Y-573683D02*
D03*
Y-590683D02*
D03*
X675750Y-576824D02*
D03*
Y-559823D02*
D03*
X624750Y-573683D02*
D03*
Y-590683D02*
D03*
X586000Y-614944D02*
D03*
Y-631944D02*
D03*
X830900Y-527403D02*
D03*
Y-544403D02*
D03*
X238250Y-782433D02*
D03*
Y-799433D02*
D03*
X415732Y-144562D02*
D03*
Y-161562D02*
D03*
X675262Y-161562D02*
D03*
Y-144563D02*
D03*
X363662Y-161562D02*
D03*
Y-144562D02*
D03*
X623192Y-144562D02*
D03*
Y-161562D02*
D03*
X918208Y-600778D02*
D03*
Y-583778D02*
D03*
X877583Y-647740D02*
D03*
Y-664740D02*
D03*
X1042425Y-581242D02*
D03*
Y-598242D02*
D03*
X654723Y-402592D02*
D03*
Y-419592D02*
D03*
X608000Y-415933D02*
D03*
Y-398933D02*
D03*
X403000Y-575000D02*
D03*
Y-558000D02*
D03*
X254750Y-799683D02*
D03*
Y-782683D02*
D03*
X1130191Y-182453D02*
D03*
Y-165453D02*
D03*
X1049573Y-47423D02*
D03*
Y-64423D02*
D03*
X990131Y-178643D02*
D03*
Y-161643D02*
D03*
X1006634Y-178643D02*
D03*
Y-161643D02*
D03*
X592425Y-415933D02*
D03*
Y-398933D02*
D03*
X639149Y-402592D02*
D03*
Y-419592D02*
D03*
X623574Y-415933D02*
D03*
Y-398933D02*
D03*
X220980Y-281425D02*
D03*
Y-298425D02*
D03*
X713400Y-637500D02*
D03*
Y-654500D02*
D03*
X1010604Y-598242D02*
D03*
Y-581243D02*
D03*
D30*
X31380Y-270723D02*
D03*
X80380D02*
D03*
D31*
X822303Y-109610D02*
D03*
Y-162111D02*
D03*
X1046934Y-242784D02*
D03*
Y-295283D02*
D03*
X1152500Y-296553D02*
D03*
Y-244054D02*
D03*
X161290Y-251141D02*
D03*
Y-303641D02*
D03*
X731260Y-163933D02*
D03*
Y-111433D02*
D03*
X567312Y-163933D02*
D03*
Y-111433D02*
D03*
X157589Y-584433D02*
D03*
Y-531933D02*
D03*
X157251Y-402518D02*
D03*
Y-455018D02*
D03*
X471730Y-163933D02*
D03*
Y-111433D02*
D03*
X307782Y-163933D02*
D03*
Y-111433D02*
D03*
X269472Y-280262D02*
D03*
Y-332762D02*
D03*
D32*
X586000Y-583433D02*
D03*
D33*
X892320Y-542463D02*
D03*
Y-537463D02*
D03*
Y-532463D02*
D03*
Y-527463D02*
D03*
X860320Y-542463D02*
D03*
Y-537463D02*
D03*
Y-532463D02*
D03*
Y-527463D02*
D03*
D34*
X883906Y-611433D02*
D03*
X902906D02*
D03*
X893406Y-591434D02*
D03*
D35*
X116050Y-183093D02*
D03*
X184550D02*
D03*
D36*
X219790Y-128433D02*
D03*
X209790D02*
D03*
X195290D02*
D03*
X180790D02*
D03*
X170790D02*
D03*
D37*
X521086Y-308002D02*
D03*
X468586D02*
D03*
X360404Y-308003D02*
D03*
X412904D02*
D03*
X28750Y-590683D02*
D03*
X81250D02*
D03*
X684950Y-308002D02*
D03*
X737450D02*
D03*
X629268Y-308003D02*
D03*
X576768D02*
D03*
X82250Y-410933D02*
D03*
X29750D02*
D03*
X916861Y-244419D02*
D03*
X969361D02*
D03*
D38*
X418800Y-239422D02*
D03*
Y-226722D02*
D03*
Y-214022D02*
D03*
Y-201322D02*
D03*
X370800Y-239422D02*
D03*
Y-226722D02*
D03*
Y-214022D02*
D03*
Y-201322D02*
D03*
X630329D02*
D03*
Y-214022D02*
D03*
Y-226722D02*
D03*
Y-239422D02*
D03*
X678330Y-201322D02*
D03*
Y-214022D02*
D03*
Y-226722D02*
D03*
Y-239422D02*
D03*
X963861Y-160910D02*
D03*
Y-148210D02*
D03*
Y-135510D02*
D03*
Y-122810D02*
D03*
X915861Y-160910D02*
D03*
Y-148210D02*
D03*
Y-135510D02*
D03*
Y-122810D02*
D03*
D39*
X1072032Y-329463D02*
D03*
Y-359464D02*
D03*
X1068524Y-466143D02*
D03*
Y-436143D02*
D03*
X1177598Y-360733D02*
D03*
Y-330733D02*
D03*
X1174090Y-437413D02*
D03*
Y-467413D02*
D03*
X415732Y-96433D02*
D03*
Y-126433D02*
D03*
X675262Y-96433D02*
D03*
Y-126433D02*
D03*
X363662Y-96433D02*
D03*
Y-126433D02*
D03*
X623192Y-96433D02*
D03*
Y-126433D02*
D03*
D40*
X1009799Y-413675D02*
D03*
X1022499D02*
D03*
X1035199D02*
D03*
X1047899D02*
D03*
X1009799Y-365675D02*
D03*
X1022499D02*
D03*
X1035199D02*
D03*
X1047899D02*
D03*
X1153465Y-366945D02*
D03*
X1140765D02*
D03*
X1128065D02*
D03*
X1115365D02*
D03*
X1153465Y-414945D02*
D03*
X1140765D02*
D03*
X1128065D02*
D03*
X1115365D02*
D03*
D41*
X651250Y-633933D02*
D03*
Y-628933D02*
D03*
Y-623933D02*
D03*
Y-618933D02*
D03*
Y-613933D02*
D03*
X610750Y-633933D02*
D03*
Y-628933D02*
D03*
Y-623933D02*
D03*
Y-618933D02*
D03*
Y-613933D02*
D03*
D42*
X1133750Y-523683D02*
D03*
X1174750D02*
D03*
D43*
X1012500Y-636698D02*
D03*
X1042500D02*
D03*
X51786Y-305013D02*
D03*
X81786D02*
D03*
D44*
X1114000Y-617183D02*
D03*
D45*
X1104500Y-601933D02*
D03*
X1114000D02*
D03*
X1123500D02*
D03*
Y-632433D02*
D03*
X1114000D02*
D03*
X1104500D02*
D03*
D46*
X368383Y-824170D02*
D03*
X374883D02*
D03*
X381383D02*
D03*
X387884D02*
D03*
X394383D02*
D03*
X400883D02*
D03*
X407383D02*
D03*
X413884D02*
D03*
X368383Y-765170D02*
D03*
X374883D02*
D03*
X381383D02*
D03*
X387884D02*
D03*
X394383D02*
D03*
X400883D02*
D03*
X407383D02*
D03*
X413884D02*
D03*
D47*
X511520Y-774295D02*
D03*
Y-780795D02*
D03*
Y-787295D02*
D03*
Y-793795D02*
D03*
Y-800295D02*
D03*
Y-806795D02*
D03*
Y-813295D02*
D03*
Y-819795D02*
D03*
X570520Y-774295D02*
D03*
Y-780795D02*
D03*
Y-787295D02*
D03*
Y-793795D02*
D03*
Y-800295D02*
D03*
Y-806795D02*
D03*
Y-813295D02*
D03*
Y-819795D02*
D03*
X693130Y-774295D02*
D03*
Y-787295D02*
D03*
Y-813295D02*
D03*
Y-806795D02*
D03*
Y-800295D02*
D03*
Y-793795D02*
D03*
Y-780795D02*
D03*
Y-819795D02*
D03*
X752130Y-774295D02*
D03*
Y-780795D02*
D03*
Y-787295D02*
D03*
Y-793795D02*
D03*
Y-800295D02*
D03*
Y-806795D02*
D03*
Y-813295D02*
D03*
Y-819795D02*
D03*
X886071D02*
D03*
Y-813295D02*
D03*
Y-806795D02*
D03*
Y-800295D02*
D03*
Y-793795D02*
D03*
Y-787295D02*
D03*
Y-780795D02*
D03*
Y-774295D02*
D03*
X827071Y-819795D02*
D03*
Y-813295D02*
D03*
Y-806795D02*
D03*
Y-800295D02*
D03*
Y-793795D02*
D03*
Y-787295D02*
D03*
Y-780795D02*
D03*
Y-774295D02*
D03*
D48*
X1092500Y-759233D02*
D03*
Y-746533D02*
D03*
Y-733833D02*
D03*
Y-721133D02*
D03*
X1043500Y-759233D02*
D03*
Y-746533D02*
D03*
Y-733833D02*
D03*
Y-721133D02*
D03*
D49*
X634441Y-438151D02*
D03*
X629441D02*
D03*
X624441D02*
D03*
X619441D02*
D03*
X614441D02*
D03*
X609441D02*
D03*
X604441D02*
D03*
X599441D02*
D03*
X594441D02*
D03*
X589441D02*
D03*
X584441D02*
D03*
X579441D02*
D03*
X574441D02*
D03*
X569442D02*
D03*
X564441D02*
D03*
X559442D02*
D03*
Y-552650D02*
D03*
X564441D02*
D03*
X569442D02*
D03*
X574441D02*
D03*
X579441D02*
D03*
X584441D02*
D03*
X589441D02*
D03*
X594441D02*
D03*
X599441D02*
D03*
X604441D02*
D03*
X609441D02*
D03*
X614441D02*
D03*
X619441D02*
D03*
X624441D02*
D03*
X629441D02*
D03*
X634441D02*
D03*
D50*
X539692Y-457901D02*
D03*
Y-462901D02*
D03*
Y-467901D02*
D03*
Y-472901D02*
D03*
Y-477901D02*
D03*
Y-482900D02*
D03*
Y-487901D02*
D03*
Y-492900D02*
D03*
Y-497901D02*
D03*
Y-502900D02*
D03*
Y-507901D02*
D03*
Y-512900D02*
D03*
Y-517901D02*
D03*
Y-522900D02*
D03*
Y-527901D02*
D03*
Y-532900D02*
D03*
X654191D02*
D03*
Y-527901D02*
D03*
Y-522900D02*
D03*
Y-517901D02*
D03*
Y-512900D02*
D03*
Y-507901D02*
D03*
Y-502900D02*
D03*
Y-497901D02*
D03*
Y-492900D02*
D03*
Y-487901D02*
D03*
Y-482900D02*
D03*
Y-477901D02*
D03*
Y-472901D02*
D03*
Y-467901D02*
D03*
Y-462901D02*
D03*
Y-457901D02*
D03*
D51*
X596942Y-495401D02*
D03*
D52*
X1089120Y-669683D02*
D03*
X1137380D02*
D03*
D53*
X675750Y-633492D02*
D03*
Y-611492D02*
D03*
X692750D02*
D03*
Y-633492D02*
D03*
D54*
X1137125Y-834380D02*
D03*
Y-787880D02*
D03*
D55*
X236130Y-825433D02*
D03*
X259370D02*
D03*
D56*
X51500Y-238183D02*
D03*
Y-169683D02*
D03*
D57*
X709294Y-413933D02*
D03*
X699794D02*
D03*
X690294D02*
D03*
Y-437933D02*
D03*
X709294D02*
D03*
D58*
X118617Y-716624D02*
D03*
X112117D02*
D03*
X105617D02*
D03*
X99117D02*
D03*
X92617D02*
D03*
X86117D02*
D03*
X79617D02*
D03*
X118617Y-777625D02*
D03*
X112117D02*
D03*
X105617D02*
D03*
X99117D02*
D03*
X92617D02*
D03*
X86117D02*
D03*
X79617D02*
D03*
D59*
X286691Y-452433D02*
D03*
Y-460433D02*
D03*
Y-468433D02*
D03*
Y-476433D02*
D03*
Y-484433D02*
D03*
Y-492433D02*
D03*
Y-500433D02*
D03*
Y-508433D02*
D03*
Y-516433D02*
D03*
Y-524433D02*
D03*
Y-532433D02*
D03*
X400692D02*
D03*
Y-524433D02*
D03*
Y-516433D02*
D03*
Y-508433D02*
D03*
Y-500433D02*
D03*
Y-492433D02*
D03*
Y-484433D02*
D03*
Y-476433D02*
D03*
Y-468433D02*
D03*
Y-460433D02*
D03*
Y-452433D02*
D03*
D60*
X303692Y-549433D02*
D03*
X311691D02*
D03*
X319692D02*
D03*
X327691D02*
D03*
X335691D02*
D03*
X343691D02*
D03*
X351691D02*
D03*
X359691D02*
D03*
X367691D02*
D03*
X375691D02*
D03*
X383691D02*
D03*
Y-435433D02*
D03*
X375691D02*
D03*
X367691D02*
D03*
X359691D02*
D03*
X351691D02*
D03*
X343691D02*
D03*
X335691D02*
D03*
X327691D02*
D03*
X319692D02*
D03*
X311691D02*
D03*
X303692D02*
D03*
D61*
X328250Y-587183D02*
D03*
Y-606183D02*
D03*
X300750D02*
D03*
Y-596683D02*
D03*
Y-587183D02*
D03*
D62*
X1098500Y-788308D02*
D03*
Y-818308D02*
D03*
M02*
