M48
;Layer_Color=9474304
;FILE_FORMAT=4:3
METRIC,LZ
;TYPE=PLATED
T1F00S00C0.300
T2F00S00C0.500
T4F00S00C0.762
T5F00S00C0.900
T6F00S00C1.000
T7F00S00C1.020
T8F00S00C1.100
T9F00S00C1.700
T10F00S00C2.750
;TYPE=NON_PLATED
T11F00S00C1.100
%
T01
X01006Y-0075293
X0106922Y-0074243
X0106975Y-0078668
X0109825Y-0077643
Y-0083018
X0113166Y-0086019
X0116912Y-0079424
X011425Y-0073293
X0117084Y-007079
X0118575Y-0059568
X01141Y-0061043
X011195Y-0061718
X011085
X01057Y-0061843
X010305Y-0061018
X0099632Y-0061183
X0099925Y-0063493
X010025Y-0066543
X0097404Y-0067179
X01027Y-0069834
X0101058Y-0057097
X0107311Y-0059287
X0110243Y-0056769
X0113975Y-0057218
X0095597Y-0056384
X009293Y-0058543
X0090517Y-0058974
X0090263Y-0057273
X0090032Y-0055749
X0086932Y-0059202
X0085982Y-0058443
X0085183Y-0061693
X0086137Y-0066544
X0083433Y-0066481
X0081156Y-0065401
X0076371Y-0062639
X0071848Y-0062607
X0072467Y-0065274
X0066498Y-0065489
X0065175Y-0064243
X0063527Y-0064304
X0062403Y-0063217
X00636Y-0061893
X0064031Y-0061047
X0064169Y-0060143
X0065495Y-0060218
X00703Y-0059243
X0070071Y-0055495
X00688Y-0056045
X005991Y-0060448
X0056479Y-0060268
X0056255Y-0066163
X0058023Y-0075467
X0060706Y-0075186
X0060246Y-007751
X0059948Y-0079904
X0060706Y-0080539
X0062866Y-008201
X0065649Y-0083093
X006939Y-0082763
X0075879Y-0082862
X0076579Y-0081379
X0077941Y-008068
X0078713Y-0079523
X0079376Y-0078118
X0081269Y-0078318
X0081253Y-0079342
X008128Y-0081488
X0077182Y-0078634
X0076454Y-0079297
X0077369Y-0075694
X0072467Y-0076354
X0068175Y-0075097
X0066003Y-0077654
X0063402Y-0078175
X006335Y-0074068
X0059182Y-0083093
X0057912Y-0084349
X0057014Y-0085365
X0089916Y-0081145
X0090043Y-0080188
X0091161Y-0081864
X0093218Y-007584
X0092964Y-0072501
X0089775Y-0071333
X0089628Y-0068724
X0088708Y-0067687
X009146Y-0066389
X0091491Y-006444
X0091533Y-0063522
X009302Y-0062811
X009431Y-0062509
X0094194Y-0064754
X00942Y-0066389
X0093184Y-0065624
X0091425Y-0061171
X0087039Y-0071104
X0087732Y-0073343
X0088873Y-0073355
X0089775Y-0074292
X008651Y-0075616
X0085725Y-0076358
X0085026Y-0075339
X0084709Y-0074316
X0053848Y-0076094
X0052578Y-0078595
X0049848Y-0080493
X0050927Y-0082845
X0052197Y-0083079
X0052578Y-0084241
X0048737Y-0084476
X0047094Y-0084476
X004699Y-0081884
X0044831Y-0082952
X0043815Y-0083968
X0042062Y-0083587
X0042862Y-0082698
X0041049Y-0084277
X0036195Y-008473
X0034725Y-008351
X0034417Y-0079868
X003295Y-0079018
X0034442Y-0077305
X003556Y-0074972
X0030975Y-0076268
X0028289Y-0075307
X0026947Y-0078283
X0026625Y-0079893
X002835Y-0083593
X002345Y-0083668
X0021025Y-0083693
X0020032Y-0079168
X0018275Y-0078193
X0018218Y-0074101
X0019332Y-0074129
X0020403
X0018253Y-0072374
X0018281Y-007126
Y-0070189
Y-0069118
Y-0068048
X0020888Y-0067782
X0023625Y-0063018
X0022174Y-0059944
X0027042Y-0059509
X0028526Y-0060943
X0031449Y-0059362
X0029749Y-0057275
X0038879Y-0056734
X00403Y-00586
X0035388Y-0061368
X0044162Y-006403
X00507Y-0062672
X0051909Y-0060855
X0054699Y-006199
X0054534Y-0056261
X0047317Y-0071751
X0046829Y-0077593
X0045178Y-0077974
X0043781Y-0078228
X0040671Y-0078418
X0038495Y-0081113
X0045278Y-0076157
X0042316Y-0073137
X0028775Y-0071218
X00301Y-0067618
X0049022Y-0086635
X0055971Y-0085451
X0014326Y-0083225
X0012268Y-0084531
X0009375Y-0086493
X0005129Y-0085343
X0004191Y-0079121
X000706Y-0078157
X0006985Y-0074651
X0009912Y-0076374
X00123Y-0073343
X0015381Y-0073652
Y-0072581
X0015294Y-0070561
X0015381Y-0074723
Y-0075793
X0015353Y-0076908
Y-0077978
X0014939Y-0066529
X0013005Y-0064059
X0011225Y-0065025
X000925Y-0067782
X0006075Y-00646
X00038Y-0065518
X000172Y-0064868
X0001575Y-0060675
X0002946Y-0057393
X0002595Y-0055982
X0006996Y-0056642
X001345Y-0055543
X0013954Y-0058768
X0010575Y-0050543
X0011925Y-0047568
X0010797Y-0046414
X00109Y-0045073
X001135Y-0043343
X0013954Y-0040468
X0012346Y-0032406
X0010634Y-0031736
X0006757Y-0031345
X0004033Y-0030501
X0003141Y-0028902
X0005345Y-0027363
X001195Y-0026318
X001345Y-0025993
X0014788Y-0023168
X0013843Y-002053
X00109Y-0023262
X0001651Y-0020761
X0001109Y-0037706
X000285Y-0042989
X0002975Y-0044168
X0002825Y-0050393
X0002758Y-0053018
X0005537Y-0051333
X0005918Y-0049327
X0020498Y-0041393
X0020828Y-0039192
X0024562Y-0035581
X0027889Y-0037287
X0030887Y-00373
X0032258
X0035408
X0037872
X0039243
X0040613
X0042027
X0042165Y-0034668
X004015Y-0032468
X0038854Y-0029508
X0036837Y-0029002
X0036875Y-0026593
X0035225Y-0026018
X003555Y-0022218
Y-0020793
X00364Y-0017293
X0040425Y-0016193
X0042037Y-001938
X0045707Y-0018608
X00461Y-0021982
X004581Y-0026143
X0047175Y-0029143
X0048099Y-0029206
X0049375Y-0030068
X0048664Y-003266
X0048602Y-0033839
X0047668Y-0034357
X0051943Y-0034112
X0053569Y-0033858
X0052654Y-0037414
X0051147Y-0036953
X0050004Y-0039337
X0049484Y-0040915
X00518Y-0042974
X0053907Y-0043618
X005505Y-0040718
X0052451Y-0039403
X00478Y-0043694
X00477Y-0044968
X0047867Y-0046268
X004793Y-0047219
X0048209Y-0049555
X0049632Y-0049098
X0050419Y-0048565
X005115Y-0047993
X004638Y-0049936
X0046634Y-0052045
X0044475Y-0051664
X0044069Y-0053137
X004375Y-0050393
X0043942Y-0049043
X0042748Y-0047803
X0041834Y-0047854
X0042425Y-0045818
X0040125Y-0043675
X0037211Y-0041377
X0035875Y-0045518
X0038138Y-0046986
X003832Y-005105
X0038025Y-0052393
X0035662Y-005334
X0033274Y-0053168
X0030875Y-0051668
X003027Y-0050068
X0030375Y-0047593
X0033125Y-0048718
X0034626Y-0048243
X0041707Y-0051689
X0054052Y-0053993
X0027Y-0053843
X00267Y-0052131
X00312Y-0034393
X0036837Y-0034018
X0040124Y-002677
X0039625Y-0025643
X0031225Y-0027143
X0029471Y-0026779
X0022119Y-0030815
X0019994Y-0030414
X0019355Y-0031053
X0018716Y-0031691
X0018078Y-003233
X0017403Y-0033359
X0016891Y-0017928
X0050734Y-0026729
X0056625Y-0026093
X0060525Y-0026043
X0061434Y-0026729
X0062958Y-0026539
X0062515Y-002819
X0065375Y-0026448
X0067647Y-0025541
X0068072Y-0029413
X0069655Y-0029206
X0070324Y-0032762
X0073353Y-0032493
X006713Y-0034484
X0063527Y-0034413
X0061137Y-0032639
X005805Y-0033841
X0056322Y-0033979
X0057116Y-0036699
X0056503Y-0040791
X0058023Y-0040818
X0057981Y-0045168
X0056896Y-004506
X0056944Y-004679
X0058044
Y-004789
X0056944
Y-004899
X0058044
Y-005009
X0056944
Y-005119
X0058044
Y-005229
X0056944
X0056667Y-0053975
X0059144Y-005229
X0060244
Y-005119
X0059144
Y-005009
X0060244
Y-004899
X0059144
Y-004789
X0060244
Y-004679
X0059144
X0059538Y-0045161
X0060909Y-004511
X0061812Y-0045134
X0061344Y-004679
X0062444
Y-004789
X0061344
Y-004899
X0062444
Y-005009
X0061344
Y-005119
X0062444
Y-005229
X0061344
X006223Y-0053924
X0065419Y-0054343
X0070324Y-0054479
X0069689Y-005105
X0068292Y-0051177
X0068864Y-0049826
X006858Y-0048923
X0064101Y-0047494
X0064147Y-0044495
X0066006Y-0044827
X0065472Y-0039337
X006668Y-0038985
X0063915Y-0039239
X0062704Y-0038096
X007066Y-0039325
X0073957Y-0042274
X0072935Y-0045076
X0074018Y-0048243
X0073953Y-0050034
X0074134Y-0051558
X0075155Y-0051705
X0076246Y-0050548
X0078669Y-0053082
X0079849Y-0052955
X0084449Y-0054268
X0085945Y-0054987
X0086985Y-0054
X008817Y-0050796
X0090644Y-005054
X0091547Y-0050288
X0090771Y-0052701
X0090552Y-0054985
X0092964Y-0054033
X009525
X00949Y-0055052
X0092964Y-0047748
X0091025Y-0045818
X0088607Y-0045589
X0089083Y-004789
X0084802Y-0048256
X0083151Y-0039493
X0087063Y-0035094
X0087596Y-003393
X0094436Y-0032973
X0092949Y-0039088
X0095851Y-0039239
Y-0040763
X0093811Y-0024442
X0093599Y-0016091
X0085056Y-0018886
X007166Y-0018608
X0071652Y-0022108
X0068025Y-0019243
X0067526Y-0017368
X006125Y-0016156
X0057944Y-0029143
X008156Y-0030909
X0096232Y-0031492
X0097008Y-0037235
X010098Y-0038145
X010309Y-0038767
X010479Y-0039923
X0106922Y-0039112
X0107789Y-0038985
X0106671Y-0037955
X0110302Y-0038274
X0111536Y-0038276
X0110941Y-0039095
X0113474Y-003935
X0113451Y-0038276
X011485Y-0039403
X0117155Y-0039272
X0115377Y-0047224
X0113972Y-0050586
X0111742
X010955Y-0047951
X0109789Y-0046511
X0106783Y-0044901
X0105599Y-0044593
X0097852Y-004524
X0097933Y-0043257
X0096232Y-004597
X0096319Y-0047836
X0097629Y-0055312
X0113327Y-0054343
X0117475Y-0050718
X0113474Y-0022672
X0114329Y-0018245
X0104436Y-0020012
X0102122Y-0019887
X0101922Y-0018056
X0103319Y-0016938
X0102846Y-0022526
X0102486Y-0028993
X0097107Y-0016944
X0102023Y-0014347
X0099788Y-0006556
X0098518Y-0006473
X0103877Y-0004742
X011305Y-0012073
X011575Y-0014773
X0094713Y-0014821
X0093336Y-001483
X0093565Y-0013586
X0094648Y-0012281
X00936Y-00079
X00926Y-0006956
X0091914Y-0006346
X0089916Y-0005965
X0085183Y-0005203
X0082364Y-0002943
X008371Y-0011858
X008223Y-0013839
X0085056Y-001549
X0075988Y-0015211
X0065186Y-001041
X0061815Y-0007362
X0063796Y-0003806
X0054569Y-0010368
X004485Y-0008943
X0045968Y-0002872
X003832Y-0005963
X003784Y-0008101
X0034369Y-0008999
X0022029Y-0011426
X0015079Y-001422
X001345Y-0013778
T02
X01202Y-0093073
Y-0092373
Y-0091673
Y-0090974
Y-0090274
Y-0089574
Y-0088874
Y-0088174
Y-0087474
Y-0086774
Y-0086074
Y-0085374
Y-0084674
Y-0083974
Y-0083274
X-00002Y-0083231
Y-0083931
Y-0084631
Y-0085331
Y-0086031
Y-0086731
Y-0087431
Y-0088131
Y-0088831
Y-0089531
Y-0090231
Y-0090931
Y-009163
Y-009233
Y-009303
X01202Y-0010302
Y-0009602
Y-0008902
Y-0008203
Y-0007503
Y-0006803
Y-0006103
Y-0005403
Y-0004703
Y-0004003
Y-0003303
Y-0002603
Y-0001903
Y-0001203
Y-0000503
X-00002Y-0000431
Y-0001131
Y-0001831
Y-0002531
Y-0003231
Y-0003931
Y-0004631
Y-0005331
Y-0006031
Y-0006731
Y-0007431
Y-0008131
Y-000883
Y-000953
Y-001023
T04
X0118125Y-0072411
X006005Y-00905
X0001875Y-0075743
X0065758Y-000215
T05
X01178Y-008374
Y-00812
T06
X009833Y-0091363
Y-0088823
X010087
X010341
X010595
X010849
X011103
X011357
Y-0091363
X011103
X010849
X010595
X010341
X010087
X0102457Y-0082143
X00977Y-0072418
X01172Y-0076218
X009579Y-0088823
X009325
X009071
X008817
X008563
X008309
X008055
X007801
X007547
X007293
X007039
X006785
X006531
Y-0091363
X006785
X007039
X007293
X007547
X007801
X008055
X008309
X008563
X008817
X009071
X009325
X009579
X0076575Y-0072533
Y-0069993
X0074035
X0071495
X0068955
X0066415
X0063875
X0061335
X0058795
X0056255
Y-0072533
X0058795
X0061335
X0063875
X0066415
X0068955
X0071495
X0074035
X0053715
Y-0069993
X0051175
X0048635
X0046095
X0043555
X0041015
X0038475
X0035935
X0033395
X0030855
X0028315
Y-0072533
X0030855
X0033395
X0035935
X0038475
X0041015
X0043555
X0046095
X0048635
X0051175
X005213Y-0088823
X005467
Y-0091363
X005213
X004959
Y-0088823
X004705
X004451
X004197
X003943
X003689
X003435
X003181
X002927
X002673
X002419
X002165
X001911
X001657
Y-0091363
X001911
X002165
X002419
X002673
X002927
X003181
X003435
X003689
X003943
X004197
X004451
X004705
X00448Y-0058327
X001403Y-0088823
X001149
X000895
X000641
Y-0091363
X000895
X001149
X001403
X0071594Y-0037715
X0103499Y-0052447
X0106598Y-0052441
Y-0055368
X010955
X010955Y-0052441
X0010554Y-0011439
X0008554
X0006554
X0004554
X0002554
T07
X0080286Y-0062392
X0082826
Y-0059852
Y-0057312
X0080286
Y-0059852
X0041765Y-0063068
X0039225Y-0063368
X0036685Y-0063068
X0034145Y-0063368
X0031605Y-0063068
X0029065Y-0063368
X002477Y-0056573
X002223
Y-0054033
Y-0051493
X002477
Y-0054033
X002477Y-0042989
Y-0040449
Y-0037909
X002223
Y-0040449
Y-0042989
X008023Y-0044181
X008277
Y-0046721
Y-0049261
X008023
Y-0046721
X0080215Y-0037033
X0082755
Y-0034493
Y-0031953
X0080215
Y-0034493
X0096493Y-0004283
Y-0001743
X0099033
X0101573
Y-0004283
X0099033
X0093953
X0091413
Y-0001743
X0093953
X0088873
Y-0004283
X0086333
X0083793
Y-0001743
X0086333
X0081253
Y-0004283
X0078713
X0076173
Y-0001743
X0073633
X0071093
Y-0004283
X0073633
X0078713Y-0001743
X0060076Y-0001743
Y-0004283
X0057536
Y-0001743
X0054996
Y-0004283
X0052456
X0049916
X0047376
Y-0001743
X0044836
X0042296
X0039756
Y-0004283
X0037216
Y-0001743
X0034676
Y-0004283
X0032136
X0029596
Y-0001743
X0032136
X0042296Y-0004283
X0044836
X0049916Y-0001743
X0052456
T08
X0001554Y-0001439
X0011554
T09
X010905Y-0013143
X010855Y-0005543
X011305Y-0002143
X011555Y-0008543
X011825Y-0009943
T10
X0124Y-0088115
X00815Y-0071243
X00235
X-0004Y-0088118
X00235Y-0022243
X00815
X0124Y-0005373
X-0004Y-0005375
T11
X0019529Y-0008243
Y-0002243
M30
